<svg xmlns="http://www.w3.org/2000/svg" viewBox="0 0 351.76 448"><g id="Ebene_2" data-name="Ebene 2"><g id="Ebene_1-2" data-name="Ebene 1"><path d="M292.71,448H59.05A59.08,59.08,0,0,1,0,389V301a27.51,27.51,0,1,1,55,0v88a4.06,4.06,0,0,0,4.06,4.06H292.71a4.06,4.06,0,0,0,4.06-4.06V301a27.51,27.51,0,1,1,55,0v88a59.07,59.07,0,0,1-59,59Z"/><path d="M172.45,0a27.52,27.52,0,0,1,27.44,27.44V203l56-56a27.45,27.45,0,1,1,38.85,38.78L191.91,288.68a28,28,0,0,1-38.93,0L50.43,186.06A27.55,27.55,0,0,1,89.29,147l56,56V27.45A27.5,27.5,0,0,1,172.45,0Z"/></g></g></svg>