<svg xmlns="http://www.w3.org/2000/svg" viewBox="0 0 380.17 503.96"><defs><style>.cls-1{fill:#fff;fill-rule:evenodd;}</style></defs><g id="Ebene_2" data-name="Ebene 2"><g id="Ebene_1-2" data-name="Ebene 1"><path class="cls-1" d="M340.67,96.12a36.21,36.21,0,0,0,11.2,5.88c2.23.93,3.36,2.33,3.36,4.2,0,1.12-.94,2.14-2.8,3.08-2.43.55-5.7-.28-9.81-2.52q-8.12-4.77-35.28-21.84-4.2-2.81-3.36-5.6,2.25-4.77,7.56-1.68ZM227.83,8.48q.55,18.48-1.68,26.6-1.12,3.64-3.64,11.2A45.52,45.52,0,0,0,220,58q-.57,7.85-5.88,6.72c-2.24-.37-3.27-1.5-3.08-3.36q.84-3.36,1.4-5,3.65-10.35,5-16a66.8,66.8,0,0,0,3.36-16.8q0-4.2-1.4-5.32-2.25-1.68-4.48,2.24A183.7,183.7,0,0,1,180.23,51.6Q166,61.68,140.47,76a454.36,454.36,0,0,0-55.72,36.68,70.94,70.94,0,0,1-6.16,4.76q-2.52,3.36-.56,7.84.84,2.24-1.4,3.92-1.11.84-3.92,2.52l-19.6,13.16a20.82,20.82,0,0,0-9.52,14.56Q49.19,158,59,150.72q9.24-6.72,15.39-8.12c.38,2.8-.28,4.94-2,6.44-1.12.74-2.7,1.68-4.76,2.8Q52.83,162.48,41.9,169.2,27.62,177.6,24,198a7.11,7.11,0,0,0,6.16-.56c2-1.5,3.64-2.7,4.76-3.64l30.52-20.72c3.18-2.06,5.41-1.86,6.72.56.93,1.68-.28,3.26-3.64,4.76Q52.81,186,28.18,205.6a26.81,26.81,0,0,0-9,13.44q-1.68,6.17-.84,16.8,5.31-3.08,34.16-24.08Q72.7,196.66,88.38,191q-.28,5-3.36,7.56a24.94,24.94,0,0,1-5.6,2.8q-14,5.9-29.68,18.2-9,7.29-26.61,22.12-5,3.92-4.2,10.93.57,3.65,2.52,12.6,14-6.17,36.68-23Q81.65,224.94,94,219.05q1.13,3.36-.28,5.32c-.19.56-1.12,1.3-2.8,2.24Q71.3,237,45.53,257.13l-7,5.6q-.56.84-8.4,4.2-5,2.52-4.76,6.16,0,3.92,3.36,9.24c2.62,4.1,4.57,7.09,5.88,9q3.64,5.88,9.52,1.4Q64.29,276.45,71,272q6.17-4.77,26-17.64c2.8-1.68,5.14-1.87,7-.56a5,5,0,0,1-2,4.76,15.77,15.77,0,0,1-3.92,2.52q-21.84,12.87-23.24,14a173.92,173.92,0,0,0-22.12,16.52q-9,8.12-9,11.2-.29,3.63,7.28,14,6.72-3.36,16.24-11.48,10.92-9,15.39-12a28.49,28.49,0,0,1,3.93-3.08,5,5,0,0,1,4.19-1.68l.29-.28.28.28h-.56q-1.68,5-7.84,10.08-8.68,6.72-9.8,8.4a53,53,0,0,1-9,7.84q-2,1.68-5.6,5-2.25,3.64,1.39,7.84,4.76,5.88,8.12,6.44,3.36.84,9.52-3.36L108,307q8.4-6.17,12.88-7,6.45-7.85,19.32-12.88-3.91,6.15-7.28,8.68t-11.2,5.32A109,109,0,0,1,107.12,314q-11.76,9-15.68,12.6l-7.28,5.88q-4.75,3.65-6.44,7,7,10.92,11.76,11.76,4.48.84,14.28-7l44.8-36.12a15.36,15.36,0,0,1,10.08-1.68q-5.31,5.88-16,12.88-11.19,7.27-14.84,11.2-3.65,3.64-14.56,12.32a104.37,104.37,0,0,0-13.72,13.44l1.12,2.8q13.16,12.31,17.64,12.32,4.22,0,17.08-11.76,11.76-11.21,38.64-32.2,3.09-2.25,3.36-2.52c1.31-.37,2.71.09,4.2,1.4a2.65,2.65,0,0,1-.84,3.36l-3.08,1.68a193.34,193.34,0,0,0-24.07,18.2q-1.68,1.39-22.4,20.44c-.94.74-2.8,2.14-5.6,4.2q-3.09,3.07,1.12,7.28,4.47,5,9.8,5.6a11.72,11.72,0,0,0,9.24-3.08l31.07-27.44a12,12,0,0,1,6.72-2.8q10.92-12.89,34.16-25.48-6.72,13.44-33.88,26a64.24,64.24,0,0,1-11.19,12.32q-10.65,9-12.88,11.2-2.81,2.52-8.68,7.84a25.5,25.5,0,0,0-6.72,10.64,76,76,0,0,0,15.68-.84,31.22,31.22,0,0,0,14.28-7q12-9.81,48.16-37l3.92-3.08c1.86-.75,4.11-.28,6.72,1.4q-6.45,5.31-27.44,20.44-17.37,12.31-27.16,22.12h32.76q3.92,0,8.4-3.08a58.28,58.28,0,0,1,6.72-5.6q8.11-7,12-10.36a60.31,60.31,0,0,1,13.72-8.4q-3.36,5.61-10.93,12-11.76,10.36-12.87,11.48,18.75,5.88,29.12-3.36,7.83-7.84,11.76-11.48,5.31-5.88,7.28-2.8,3.36,5.31,7.28,3.36a36.21,36.21,0,0,1,5.6-4.48,55,55,0,0,0,19.88-23.24q5.31-10.92,8.68-29.12,3.91-23.25-7.56-42.56-9.24-15.39-30.52-31.92-7.27-5.31-28-18.2Q234,213.73,224.73,205.33c-3.92-3.18-8.49-3.54-13.72-1.12q-21.56,9.79-49-.28-11.47-4.2-20.44-17.92-8.67-13.44-8.68-25.77c0-4.1,1.59-6.16,4.76-6.16q4.2,0,4.77,4.77l.28,4.48q2,16,13.72,25.76,10.64,8.68,26.87,10.36A60.34,60.34,0,0,0,214.1,195a31.52,31.52,0,0,1,9-2.8,88.12,88.12,0,0,0,9.24-2.81q14.83-6.72,26,3.93,8.69,8.11,24.36,16.8,24.92,14.28,25.77,14.56a18.93,18.93,0,0,0,8.67,3.36c2.81.18,5.79-.75,9-2.8q6.43-4.49,20.71-11.48,10.37-5.61,6.17-14.84a45.59,45.59,0,0,1-3.08-16.24c0-2.06.09-7.37.28-16q.27-13.16-4.76-21.84-5.32-8.41-17.64-14.56-43.41-22.41-65-38.36-11.48-8.4-36.39-23l-2.52-1.68c-.75-.56-.84-1.5-.28-2.8q1.68-3.64,6.16-1.68,19.31,7.83,28,13.72,45.63,31.64,74.19,44,27.16,11.47,25.2,40.6-1.95,24.36,7,38.64a6,6,0,0,1-.55,7q-6.74,9.81-18.77,17.92-7,4.77-22.39,12.32c-2.81,1.31-6,1.31-9.52,0a48.14,48.14,0,0,1-8.68-4.76q-8.68-5-26.32-14.56a205.16,205.16,0,0,1-25.2-17.36q-11.49-10.35-21-1.4,1.39,4.2,8.68,8.13,21,12.31,49.56,32.48,26,18.75,34.44,48.44a67,67,0,0,1,.84,32.76q-2.52,12.32-10.64,30.24-6.17,14-20.16,25.48-6.45,5.31-27.16,17.92.56,1.11,3.36,9.24a61.46,61.46,0,0,1,2.8,9c.55,2.42,1.68,3.92,3.36,4.48a3.86,3.86,0,0,0,4.19-.28q7-3.64,17.08-1.4,14,3.07,16.8,2.8a28.94,28.94,0,0,1,10.93,1.12,90.5,90.5,0,0,0,10.92,3.36q28.27,8.67,33.88,39.2.27,1.95,1.12,10.92.27,6.72,2.52,10.64a4,4,0,0,1-.56,4.48,6.85,6.85,0,0,1-3.92,2.24,89.5,89.5,0,0,1-11.77.56q-108.35.84-121.8,1.12-18.19.84-54.6,4.48-15.39,1.39-38.08,2.8-12.32.57-37.8,2L38,503.82q-7.83.57-9.8-1.12c-.93-.93-1.5-3.82-1.68-8.68Q25.94,477,36.85,461.54,47.77,445.86,64,440.26q17.64-6.15,54.88-11.76a50.68,50.68,0,0,0,10.64-.84q5.31-1.12,7.28-7.84,3.09-11.2,1.68-15.4t-9.8-10.92q-7-5.6-35-26Q72.13,351.23,59.25,340q-5.31-4.47-14.84-17.08-9-11.76-15.4-16.52-8.4-21-12.88-31.36-7.27-18.75-7-32.76.55-28.85,7.28-49.56,18.21-54.6,70.56-91,12.6-8.68,33-21,27.45-16.8,33.6-20.44Q189.46,37.35,204,21.38a76.55,76.55,0,0,1,6.16-6.44,15.91,15.91,0,0,0,3.36-8.4q.56-6.72,6.72-5.88,7.59.54,7.58,7.82Zm-32.48.28A77.61,77.61,0,0,1,190,15.2q-7,7.56-21,16.52-17.64,11.2-21.84,14.84-5.61,4.75-7.56-.56-2-4.47,4.76-6.72,12.6-4.74,28.84-17.64,11.21-9,14-14.84Q190.88-.76,198.15.08a15.49,15.49,0,0,1-2.8,8.68Zm51.24,100.52c6,0,9.7,2.52,11.2,7.56q2.52,11.19-2.52,16.8C254,135.5,252.19,136,250,135c-.93-.37-5.7-1-14.28-2h-3.36q-14.85,2.23-12.88-9.8c.18-1.31-.84-3.17-3.08-5.6q-2.79-2.81,0-5.88,2-2.52,6.44-2.52,5,.28,7.56.28ZM225,120.48q9.79,6.15,22.68,3.08Q239.58,116,225,120.48Zm142.8,9.24a2.82,2.82,0,0,1,3.08-2.24,8,8,0,0,1,7,3.08,10.44,10.44,0,0,1,2.23,7.56c0,2.24-1.21,3.54-3.64,3.92q-1.39,0-5-5.32c-2.61-3.17-3.82-5.51-3.63-7Zm-5.6,179.48q-2.25,13.16-7.56,19-2.52-6.45-.56-16,3.36-14.28,3.36-15.68.28-5.88-2.52-15.68-3.09-11.21-3.08-16.8a16.41,16.41,0,0,1,8.68,8.68,114.53,114.53,0,0,1,2.52,11.2,76.87,76.87,0,0,1-.84,25.2Zm-10.08,60.48q-3.09,7.29-10.92,13.44a66.32,66.32,0,0,1,4.48-16.24,43.56,43.56,0,0,1,9.8-14.28q-.57,10.92-3.36,17.08Zm-92.4,31.08q-2.52-2.52-14.56-2.23-33.6,0-44.52.84-16,.83-45.64,5.32a8,8,0,0,0-6.72,4.76,23.81,23.81,0,0,0-.84,7.56q.28,4.75,3.64,5.32a22.68,22.68,0,0,0,6.44-.56,150.21,150.21,0,0,1,22.68-2q15.12,0,23-.28c1.68,0,4.77-.66,9.24-2a27.16,27.16,0,0,1,9.8-.84q14,2.25,43.4-.28-3.36-13.72-5.88-15.68Zm-5.32,24.92a23.5,23.5,0,0,0-14.56,4.2,535.34,535.34,0,0,0-67.2,50.4c-3,2.61-4.48,4-4.48,4.2a9.56,9.56,0,0,0-2.52,5.6q12.89,1.13,20.72-.56a37.21,37.21,0,0,0,18.48-10.64A54.55,54.55,0,0,1,215,470.2q7.28-5,10.64-7.84l44.52-34.16q-9.81-2.52-15.68-2.52Zm22.4,28-7.28,6.16a175.89,175.89,0,0,1-14.28,11.76q-9.53,7.29-14.29,13.16h25.2c3.93,0,7.84-1.77,11.77-5.32q18.75-17.07,49.28-40a34.44,34.44,0,0,0,5.32-3.07,7.22,7.22,0,0,0,2.52-6.16q-8.42-4.2-14.28-4.2a21.85,21.85,0,0,0-13.72,6.44q-6.17,5.88-12.88,5.6-4.2,7.85-12,8.68-1.12,3.63-5.32,7Zm26-27.72q-14.28-1.4-17.64-.84-4.22.56-12.88,7.28-32.76,24.64-49,37.8Q211,479.73,206.83,487a101.34,101.34,0,0,0,16.52-1.4,28.83,28.83,0,0,0,13.72-6.72,101.21,101.21,0,0,1,14-10.92q2.24-1.12,15.12-12,8.4-7,15.39-9.24,2.25-7,12.32-9.24c.19-1.86,1.68-3.73,4.49-5.6,3-1.69,4.48-3.65,4.48-5.89ZM197.31,436.6q-14.56,10.08-44.52,33.88l-24.93,20.44q20.17,3.36,31.08-6.44Q161.75,482,174.62,471l59.08-44q-17.62-3.07-36.39,9.52Zm105.28,45.08q7-1.95,13.44-8.68,5.31-5.6,13.72-12.88,9.51-7.56,14.28-11.76,4.75-3.64,8.68,1.12-6.16,4.77-18.76,14.84a107,107,0,0,0-17.36,16.8q10.92,1.68,14,1.12,3.35-.83,10.36-7,7-5.31,10.64-8.39,7.83-7.29,7.55-15.4t-9-14.56c-3.17-2.24-5.41-3.46-6.71-3.64-2.81-.37-5,1.58-6.45,5.88q-1.39,3.08-10.36,8.12-8.4,5-20.71,15.68-14.85,13.44-21.56,18.2,10.35,2.79,18.2.55Zm40,0q16.51,1.41,23.52,0-.28-5.6-.56-8.12A13.78,13.78,0,0,0,362,466q-4.49,1.68-9.52,6.72-8.13,7.56-9.8,9ZM118.07,55c1.3-.93,2.52-.56,3.64,1.12.93,1.87.84,3.18-.29,3.92L96.23,74.56l-1.68-.28-1.68-2c-.37-1.86-.1-3.26.84-4.2ZM91.47,288.2a22.72,22.72,0,0,1,8.4-8.4q3.07-1.4,11.48-4.2a28.52,28.52,0,0,1-19.88,12.6ZM87,386.76a21.11,21.11,0,0,1-2.24,3.36L80,387.32q-7.84-7-35.28-21.56a77.07,77.07,0,0,1-20.44-17.07q-2.81-2.81-16.81-20.45-3.63-3.92.56-6.44t6.72,2Q23.43,340.85,42.46,354q1.68,1.41,35.56,21.56c.93.56,4,2.9,9.24,7q1.13,1.4-.27,4.2ZM39.67,425.4q-17.35,15.41-25.76,28.29-6.16,9-5.33,14,.57,5,8.68,14.28-12.32-2.81-16-8.12-3.07-5.33,1.12-14,6.17-11.49,24.65-31.36,4.75-4.77,12.6-3.09Zm1.12,64.68a7.54,7.54,0,0,0-1.4,5.88,8.92,8.92,0,0,0,7.28-.28q.84-.84,5.88-4.48Q80,468.8,94,458.44q9.24-7.56,14-11.2a50.69,50.69,0,0,1,15.4-8.4q-16.24-4.47-31.92,6.72Q72.42,459,44.7,485.88c-2.42,2.61-3.73,4-3.91,4.2ZM71,496.24a19.5,19.5,0,0,0,11.2-3.64l82-63.28q-19.59.29-40.87,9.52a21,21,0,0,1-6.45,8.12l-8.12,6.16q-16.51,12.6-51.24,40.32,8.13,3.07,13.45,2.8Zm-7.56-33.88q15.39-12,23.52-19-21.57,2.52-33.32,12.88-12,10.37-11.76,26a239,239,0,0,1,21.56-19.88Zm118.44-20.44a107.14,107.14,0,0,0,15.4-14.56q-17.1,0-25.48,4.49Q155,441.36,134,458.17,122.26,467.41,98.74,487a18.46,18.46,0,0,0-3.36,2.8c-1.12.93-1.39,2.33-.84,4.2q21,3.08,34.16-9.52,12.88-12,36.68-30.24,11.2-8.13,16.53-12.33Z"/></g></g></svg>