<svg xmlns="http://www.w3.org/2000/svg" viewBox="0 0 503.93 461.61"><defs><style>.cls-1{fill:#fff;fill-rule:evenodd;}</style></defs><g id="Ebene_2" data-name="Ebene 2"><g id="Ebene_1-2" data-name="Ebene 1"><path class="cls-1" d="M334.25,77.66q1.39,12.6,2,15.68,2.23,8.41-9,4.2-6.72-2.24-8.4-1.4c-.93.75-1.68,3.93-2.23,9.52q-.57,4.49-3.37,4.48c-2.42.38-5.69,1-9.8,2a46,46,0,0,1-10.08,1.68q-22.39.55-66.36,3.92a324.79,324.79,0,0,1-33.6-1.4q-15.4-2-25.76,5-16.25,10.92-45.08,25.2-36.12,17.91-46.2,23.8a65,65,0,0,1-8.68,4.76,8.06,8.06,0,0,0-4.2,8.4q7.27-6.72,21.28-12.6,19.32-7.84,22.68-9.81-2.79,6.17-10.92,10.65-4.48,2.52-14,6.71-8.69,5.61-27.44,15.4-19,10.92-26.6,22.4,7.85,3.36,12.88,3.36,5.88-.56,12.6-5,6.16-4.47,28-16.8,17.66-9.81,26.88-18.2c2.43-1.68,4.58-1.58,6.44.28,1.13,1.12.75,3-1.12,5.6q-3.92,5-15.12,10.64-30,16.8-39.76,24.08,24.08,8.69,39.48-.28,11.49-6.72,44.24-27.72a24.46,24.46,0,0,1,4.2-2.52q2.23-.84,4.2,2.24c1.11,2.24-.19,4.3-3.93,6.16l-38.64,24.36q18.21,7,30.8,5Q152,225.78,169.88,214a47.35,47.35,0,0,1,5.32-4.76c2.24-1.87,4.1-1.68,5.6.56q2.8,3.63-1.39,5.87c-4.11,1.68-6.26,2.81-6.45,3.36q-.56,1.41-4.48,3.36a6.72,6.72,0,0,0-3.92,4.2q15.12,6.45,32.2-.84,19.61-11.19,30.24-15.68a12.9,12.9,0,0,1-6.72,10.08q-7,3.92-8.12,6.44,13.44,6.16,28.84-2,17.08-10.64,26.88-14a18.17,18.17,0,0,1-6.72,9.52q-7.29,5.31-8.68,7.28Q287.76,230,346,221.57q70-9.8,94.91-10.92Q432,221,418.8,221q-17.35.27-50.4,5.88-34.15,5.88-50.69,6.72l-20.16.84q-1.68,0-44,2.8-26.59,1.4-44.52-1.4-12.58,3.92-31.92,2.52-10.35-.57-31.92-2.52-65-.56-111.16-7.84a71.41,71.41,0,0,1-13.16-3.36c-2.81-.56-4.48-.75-5-.56-1.68.38-2.8,2-3.37,4.76-.37,3.36-.56,5.42-.56,6.16.19,1.87,1.68,3.36,4.49,4.48a257.35,257.35,0,0,0,31.92,10.36q21.27,5.33,32.2,8.12,13.15,3.64,33.88,5,30,1.68,34.44,2.24a641.35,641.35,0,0,0,88.2,5q37.51,0,80.35-2.8,28.29-1.68,71.4-8.68,63.29-9.8,71.12-10.92,6.45-.84,27.16-7.28,5.32-2,6.72,2.8c.75,2.24-.46,3.82-3.63,4.76q-21.57,6.45-25.77,7-58.23,9.51-122.36,19-10.08,1.4-30,1.68-10.65.56-5.88,9.8,13.15,25.49,29.68,66.36,24.08,60.21,27.16,67.2,5.32,11.76,12,15.4,6.72,4.2,17.92,2.52h13.16a51.48,51.48,0,0,1,6.44-.56,3.26,3.26,0,0,1,3.37,3.64q0,4.75-3.65,4.76a31,31,0,0,1-6.71-1.12H385.19a61.19,61.19,0,0,0-9.8.56q-8.67,2.24-10.37,1.12-1.95-.57-5-8.68-37.53-93.52-61.6-145l-5.32-10.08q-3.93-5.31-10.93-3.08-6.15,2-5.6,8.68a43.6,43.6,0,0,0,2,10.64q4.2,62.16,4.2,93.24a73.63,73.63,0,0,0,2,14c1.49,6,2.05,10.54,1.68,13.72q2.79,2.25,6.72,0c2.8-1.86,4.94-2.34,6.43-1.4,1.5,1.68,1.21,3-.84,3.92q-2.52,2-8.12,5.6-3.65,3.36-2.8,9a2.71,2.71,0,0,1-1.68,3.35,3.9,3.9,0,0,1-4.48,0c-2.05-1.49-3.27-2.23-3.64-2.23-1.12-.38-2.05.37-2.8,2.23-.37,1.87,0,3,1.12,3.36h4.2q15.12,1.13,23.8-1.12a36.11,36.11,0,0,0,21-11.48c1.5-1.3,3.17-1.3,5,0q1.4,3.65-2.8,5.88-4.49,2.81-4.48,5.32c3,1.68,7,2.52,12,2.52q8.13-.27,12.32-.28a30.61,30.61,0,0,1,5,.56,4.46,4.46,0,0,1,2.8,3.64q0,6.17-7.56,4.76-14.28-2.52-35.84-2.52l-36.12.56q-46.75-.84-111.71,2.8-13.44.27-17.64.84a39,39,0,0,0-16.52,6.16c-2,1.5-4,1.59-5.88.28a21.4,21.4,0,0,0-15.4-6.72q-4.74,0-17.07,2.24a31.6,31.6,0,0,0-3.37.28c-3-.18-4.95-.56-5.88-1.12-1.86-.74-2.7-2.24-2.52-4.48.37-3.54,3.09-5,8.12-4.48a90.78,90.78,0,0,0,15.12.56c6.54-.18,11.57-.28,15.12-.28q7.27,0,11.76-7.28,7-11.76,15.4-32.2,10.36-24.91,14.57-33,1.4-2.52-1.4-7.28c-1.5-2.8-.93-5,1.68-6.72a26.55,26.55,0,0,0,9.8-11.2q9.51-20.16,14.28-30.52,8.4-17.08,16-29.4,3.36-5.6,2.24-9.24-11.76-3.92-29.68-4.2l-30.24-1.12q-35.55-2.79-55.72-5.6a290.1,290.1,0,0,1-54.6-12.6,102.71,102.71,0,0,1-10.36-4.48,14.94,14.94,0,0,0-11.2-1.12q-2.79,1.11-6.44-5Q-1.75,235.84.75,221q2-15.4,10.36-23.52A83.67,83.67,0,0,1,36,180.69l103.32-51.8q16.26-10.36,24.08-14.84,8.4-4.76,4.2-11.2a21.15,21.15,0,0,1-2.23-16.52q1.4-4.77,6.43-13.44,35.55-58,94.37-51.8,47,4.2,64.4,41.16a56.2,56.2,0,0,1,3.65,15.41ZM295.62,38.75Q267.89,25.3,239.9,31.46q-29.4,6.45-48.72,32.48a70.92,70.92,0,0,1-5.32,6.72,13.86,13.86,0,0,0-3.08,8.12,10,10,0,0,0,5.32-.28,17.58,17.58,0,0,1,3.08-2.8q2.25-2,20.44-16,12.6-9.8,19.31-17.36,3.09-3.08,5.89-.84,3.92,3.36-.84,7c-4.86,4.3-7.75,6.81-8.68,7.56L189.22,83.54q-7.84,6.17-9.8,8.12-4.75,5.61-1.4,10.08c2.43,3.54,5.7,4.3,9.8,2.24a111.9,111.9,0,0,1,9.8-7.84l42.56-32.2q5-3.36,7,.56c.94,1.5-.09,3.18-3.07,5q-11.49,7-48.45,36.12,19.89,7.84,40.32-8.12l21.56-16a6.72,6.72,0,0,1,3.64-2.52q2.52-1.12,5,2.52-3.08,4.76-14.28,12.6-10.92,7-15.11,14.28,2.52-.27,14-.28c4.84,0,8.58-1,11.19-3.08a141.3,141.3,0,0,1,12.88-9.24q8.13-5.31,12-10.08c2.05-3.35,4.2-3.92,6.44-1.68,1.68,1.5,2.14,3,1.4,4.49a14.23,14.23,0,0,1-3.08,3.92,66.75,66.75,0,0,1-8.12,5,24.8,24.8,0,0,0-7,7c1.86,1.3,3.08,2,3.64,2l3.36.28q9,.27,18.2-6.44,10.08-8.4,15.68-11.48,12.6-6.72,5.6-19.32-12.62-23-27.44-30.8Zm41.71,70c-1.49-1.31-1.58-3-.28-5a3.58,3.58,0,0,1,4.2-2.24c.38,0,1.86.74,4.48,2.24q54.6,26.6,63,30.8,12.33,6.44,31.09,14.28l31.91,12.88q17.08,7.28,25.49,21.28,8.11,14.55,5.6,33c-.38,3,0,7.46,1.11,13.44q0,5-4.76,5.88-2.79.28-5-3.92a19.21,19.21,0,0,1-2.52-8.13c0-3.35-.1-6-.28-7.84q0-8.11-1.4-10.35a23.8,23.8,0,0,0-10.36,1.39q-3.36,1.13-9.8,3.93-5.59,2.24-7-2-2.25-4.77,3.64-6.17,10.92-3.07,16-5c3.17-1.31,5.14-3.18,5.88-5.61q.57-3.63-3.08-7.28-11.76-10.64-20.72-14.28-38.07-14.55-114.8-54.32l-7.55-3.64a30.53,30.53,0,0,1-4.77-3.35Zm-3.91,21.55q11.19,8.69,30.8,19.61,27.72,14.84,31.91,17.36,4.22,2.23,3.37,5c-.18,1.31-1.3,2.24-3.37,2.81-1.49.19-4.09-.75-7.83-2.81l-54-31.92-5.32-4.2q-3.65-2.79,0-5.6,1.95-2.24,4.48-.28ZM238.78,7.1Q190.9,9.91,171.86,52.18q-1.68,4.2-2.24,5.32a4.34,4.34,0,0,1-5.32.84q-8.4-3.36-2.52-12Q193.7-6.62,255.3.94a14.54,14.54,0,0,1-8.4,5.33c-.19,0-2.89.28-8.12.83Zm-82.6,75c-2.62-.37-3.64-2-3.08-4.76q.27-4.47,5.88-3.92,3.92.27,3.92,5-2.25,4.48-6.72,3.64ZM82.53,128.07q-18.47,9.51-30.23,18.48c-.57.55-3.27,1.77-8.12,3.64-3.74,0-5.88-1-6.45-3.08-.55-2.61.38-4.39,2.81-5.32q4.2-1.68,19.32-10.08,4.2-2.52,31.92-16.24,19.32-9.51,30.8-17.92c2.43-1.5,4.57-1.5,6.44,0q3.07,3.36-1.4,7a94.06,94.06,0,0,1-12.6,7.84q-10.93,5.6-32.49,15.68Zm-30.8,59.64q6.45-3.92,11.77-4.2-12.33-2.81-23.24,4.76Q34.1,193,22.34,203.67A16.41,16.41,0,0,0,33,200.87a55.72,55.72,0,0,1,8.4-6.16c4.66-3,8.12-5.32,10.35-7ZM206.58,297.47q1.39-.56,11.2-7.56,6.45-3.92,11.2-4.48v.28c.37,0,.56.09.56.28a20.33,20.33,0,0,1-7.84,8.68,114.07,114.07,0,0,1-10.08,7q-19.32,13.71-26,37.24Q225.35,312.3,250,293c3.17-2.62,4.86-4,5-4.2,1.3-1.68,1.4-3.64.28-5.88q-4.2-7.85-12.88-2.8c-1.5.93-3.64,2.33-6.44,4.2a10.25,10.25,0,0,1-6.44,1.68.87.87,0,0,0,.29-.56H229v-3.92c0-1.68-1.13-2.61-3.36-2.81q-7.84-.27-12,3.36-4.22,4.21-7,15.41Zm-53.76-.84q4.2,0,4.2,4.2.55,4.2-4.2,4.2l-31.64,1.67v-.83H97.66c-5.6,0-8.31-2-8.12-5.88q0-4.2,2.8-4.2.55,0,5.88,1.12,20.44,2.52,34.44,0a47.83,47.83,0,0,1,9.8-.84q6.72.56,10.36.56Zm21.83,61.6q-5,8.4-8.39,22.4,30.24-18.76,66.36-45.36.56,6.44-2.8,10.36-1.4,1.68-7,5-17.64,12.31-42,27.71-29.4,17.65-31.36,47.88,34.72-25.74,40.6-30l20.16-15.12q11.76-8.67,21.56-12.6-13.15,13.71-46.48,38.08-32.49,23.52-47.88,40,2.79-.84,11.2,0c3.91.19,7-.75,9.23-2.8q10.65-8.68,30-19.88,23.52-14,30.52-19a38.08,38.08,0,0,1,5-3.08,8.84,8.84,0,0,1,7.84,1.68q-10.92,7-32.19,19.6a300.17,300.17,0,0,0-31.37,21.28q38.35,5,73.08-26.6-.84,7.84-9.24,14-10.92,8.11-13.16,11.76l42.56-.56c2.05,0,3.45-.55,4.2-1.68a127.67,127.67,0,0,0,11.2-14.55,20.26,20.26,0,0,0,1.12-19q-.84-1.68-1.68-12.88-2.81-26.88-3.64-80.64-.27-6.45-3.36-31.08-6.15,17.08-6.72,39.48,0,27.72-1.69,38.64-1.11,6.72-.83,19.88,0,13.71-.57,19.88-.84,6.44.57,19.32.84,11.48-4.2,18.48-3.93-14.28-3.37-34.44.86-23.52.84-35-.27-23.25-.28-35a229.35,229.35,0,0,1,4.2-37q-5.33,3.34-11.77,7-9,6.43-26.31,19.32A276.06,276.06,0,0,1,191.44,342a50.16,50.16,0,0,0-16.78,16.25ZM485.73,279q-7,5-11.76,5.88-37.52,7.85-51.52,12.6l-6.43,1.4c-3,.55-4.67-.47-5-3.08-.56-2.62.46-4.2,3.08-4.76a166.31,166.31,0,0,1,17.36-4.77q22.13-4.2,25.2-4.76A108.24,108.24,0,0,0,481,272.26q4.75-2,6.44,2a4.12,4.12,0,0,1-1.69,4.76ZM372.9,299.71a2.16,2.16,0,0,1-.56,2.52,8.57,8.57,0,0,1-6.44,3.08c-1.49.19-3.83.56-7,1.12a30,30,0,0,1-4.76-.84,4,4,0,0,1-2.52-3.92c-.18-2.06,1.68-3.64,5.6-4.76q9.81-2.25,14.29,1.12a2.5,2.5,0,0,1,1.39,1.68Z"/></g></g></svg>