<svg xmlns="http://www.w3.org/2000/svg" viewBox="0 0 817.5 1240.04"><defs><style>.cls-1{fill:#fff;}</style></defs><g id="Ebene_2" data-name="Ebene 2"><g id="Ebene_1-2" data-name="Ebene 1"><path class="cls-1" d="M90.24,942.05l-3.49.36a2.71,2.71,0,0,0-.3.39.8.8,0,0,0-.1.45c1,9.58,2,19.16,3,28.91l3.87-.4,1,10,6-.63L102,997l3.88-.23,1,9.69,6-.33,1.64,15.6,4-.1.61,3.76,5.83-.61,1.66,15.79,9.75-1c.86,3.3.71,6.61,1.39,10l5.74-.6,2.09,19.9,4.05-.2,1,9.8,5.86-.61,2.27,21.65,4.06,0,.39,3.68,6-.63.63,6,4-.43,1,9.83,5.77-.61c.86,3.3.71,6.62,1.39,10l9.65-1,.75,4,9.74-1,.64,6,5.85-.61.6,5.74h4.07l.39,3.7,6-.63.64,6,3.95-.42,1.06,10-3.88.41-.62-5.82-5.87.35-.4-3.77-4,.42-.62-5.86-5.76.6-.87-4-3.67.39-.64-6-16,1.68-.63-6-5.86.61-1-9.72-4.07,0-1-9.65-6,.63-.63-3.87-3.85.41.38,3.6-9.82,1-.57-3.66,3.78-.4-1.67-15.93-3.74.19-1.66-15.8-5.84.61-1-9.8-4.05.24c1.26,12,0-.19,0-.19l-6,.63-2.06-19.61-6,.63-1-9.83L117,1042l-1-10-6,.63-1.67-15.91-4.06.2-1-9.83-5.85.62L95.65,992l-4.07,0-1-9.71-6,.63-3.12-29.72-3.82.4c-1.08-6-1.41-11.93-2.08-17.8s-1.26-11.89-1.91-18l-5.82.62-2.72-25.91-6,.63-4.81-45.74-4,.19-.4-3.85-6,.64-.63-6,5.48-.57a2.71,2.71,0,0,0,.3-.39A.82.82,0,0,0,49,837q-1.79-17.15-3.59-34.3a2.16,2.16,0,0,1,.21-.62l3.47-.36-1-10-3.58.17-3.12-29.64,3.62-.38.38,3.63,6-.63-1-9.61-5.71.6L44,752l-3.65.38c-.9-3.3-.71-6.62-1.42-9.95l-5.73.6L32,731.11l-3.92.19-1-9.77,3.57-.54L29.2,707.4l6-.63,3.09,29.41,4.06-.13,1,9.62,12-1.26-2.7-25.66,4-.42,7.5,71.38-3.76.79,3.09,29.44,3.84,0L78.19,923.18l6-.63c.36,3.43.7,6.7,1,10.05-1.84.26-3.76.46-5.68.66l.39,3.74,5.61-.59c-.14-1.35-.27-2.61-.32-3.81,1.32-.21,2.58-.34,4-.5ZM53.15,837.18l5.64-.59-2-19.56-5.64.6Z"/><path class="cls-1" d="M238.55,632.85l-9.61,1c-.22-1.56-.46-3.15-.65-4.75s-.35-3.26-.54-5l-11.84,1.24.61,5.76-23.77,2.49.4,3.77-6,.63-.37-3.57-15.94,1.68-.63-6,5.78-.6-.61-5.86,15.69-1.65c0-1.4,0-2.65,0-4.07l9.66-1-.63-6L226,608.11l-.43-4,13.81-1.45-.58-5.46C243,596,273,592.64,284.58,592l.6,5.66,9.95-1c.23,1.45.41,2.55.65,4L311.57,599l.62,5.85,5.76-.61c.27,1.37.52,2.6.79,4l9.72-1,.63,6L333,613l.6,5.7,6.05-.32L340,622l4.07-.12.59,5.64,5.79-.61c.3,1.37.56,2.58.85,4l3.57-.37.63,6-45.29,4.76-.6-5.76,21.46-2.26-.4-3.85-5.65.27L324,620l-10,1-.62-5.89-6,.64.59,5.57-3.76.4c0,1.4,0,2.65,0,4.07l-5.69.6.62,6-4,.65.4,3.78-31.7,3.34-.39-3.66-4.07,0-.6-5.74-6,.63-1-9.84-3.79.4c-.88-3.3-.71-6.61-1.4-9.93l-9.67,1c0,1.1.06,2.35.1,3.77l-5.64.59,1.26,12,5.59-.59Zm18.16-21.92,1.67,15.84,3.86-.4.42,4,6-.64.6,5.72,15.8-1.66c-.19-1.79-.34-3.43-.54-5.06s-.45-3.16-.69-4.9l-5.85.62-.61-5.87-4,.43-1-9.76Zm41.07,11.67a17.27,17.27,0,0,0-.72-6.14l-3.61.38-.61-5.82,3.77-.4-.39-3.75-9.59,1,2.05,19.54,5.55-.59c0-1.4,0-2.64,0-3.86Z"/><path class="cls-1" d="M602.42,630.8c.28,1.82.47,3.64.69,5.73l-3.81.8.37,3.59-21.89,2.3c-.18-1.11-.36-2.22-.6-3.67L563.39,641l-.61-5.85-5.83.61a67,67,0,0,1-1-7.89c-.33-2.62-.56-5.25-.86-8l-3.8.4c-.25-1.38-.48-2.62-.72-4l-11.75,1.24.4,3.81-3.86.41.61,5.78h3.71l.39,3.71,6-.63,1.25,11.84-9.8,1-.58-5.59-19.75,2.07a66.54,66.54,0,0,1-1-7.88c-.33-2.62-.56-5.25-.86-8l3.79-.39c0-1.41-.07-2.66-.1-4.07l15.71-1.65-.63-6,9.83-1-.42-4c2.71-.45,5.31-.61,7.89-.9s5.26-.56,8.05-.85l-.61-5.84,35.83-3.76-.41-3.9,13.92-1.46.39,3.72-9.72,1,.61,5.84,9.61-1c.28,1.37.53,2.6.82,4l15.66-1.65.63,6,6-.63.42,4,9.82-1,.61,5.75,4.07,0,1,9.7,6-.64.62,5.87,9.76-1c.29,1.37.55,2.58.89,4.13l15.72-1.65.57,5.5a1.91,1.91,0,0,1-.31.34,1,1,0,0,1-.41.2l-66.8,7,.41,3.87-3.86.41-1-9.65c2-.66,4.27-.58,6.51-.87s4.59-.49,7-.75l-.4-3.84,6-.63-1.67-15.94-9.71,1-.61-5.87-6,.63,1,9.54L608,624c.1,2.06.19,4,.3,6.2l-5.92.62c-.29-1.93-.49-3.88-.69-5.78h-4l-2.06-19.52-5.85.61,1.05,9.93-5.66.6.63,6,5.63-.59c.67,3.34.53,6.65,1.33,9.77Zm-27-7.21-1.65-15.68L563.86,609l.58,5.55-3.62.79,1.42,13.52,4,0,.6,5.7c2.79-.29,5.42-.53,8-.85a72.15,72.15,0,0,0,7.53-.91l-1-9.82Z"/><path class="cls-1" d="M781.46,324.41,784.57,354l5.8-.61-.37-3.55,4-.6L796.5,373l6-.63,1,10-5.73.6.62,5.85,5.65-.59c1.12,6.66,1.54,13.24,2.27,19.77s1.4,13.2,2.11,20l-5.88.62c.11,2.74.5,5.31.75,7.89s.55,5.25.86,8.22l6-.63,1.65,15.73-5.78.92,1.44,13.66,5.67-.59,4.39,41.77-5.71.59L813.88,536l-4,.72,2.69,25.64-6,.63,4.81,45.74-6,.63.63,6-4,.42.43,4-6,.63-2.69-25.6,5.83-.61.58,5.48,4-.42-5.82-55.38,6-.63-1-9.84-5.66.6c-1-6-1.39-11.93-2.06-17.8s-1.26-11.89-1.9-18l5.82-.61L802,521.19l6-.63L805.52,497l3.86-.63-1.65-15.73-3.61.21-1-9.68-6,.32-1.65-15.67,5.68-.6L799,435.39l-5.79.61,1.63,15.52-5.52.58c-1.15-3.86-4.67-35.09-5.75-51.5,1.91-.2,3.86-.4,5.89-.54.28,1.85.48,3.79.72,6l5.94-.62L797.57,419l3.75-.4-2.05-19.51c-3.35.35-6.6.69-9.78.95-1.47-13.24-2.85-26.41-4.25-39.74l-5.86.61-2.29-21.86-3.87.41-3.15-30,3.75-.39L775.49,325Z"/><path class="cls-1" d="M352.53,548.47l.61,5.81L359,554l.38,3.63-21.61,2.27-.39-3.65-19.91,2.1-.63-6L287,555.45c-.23-1.42-.41-2.53-.65-4l-9.79,1-.62-5.85L254.08,549l.58,5.6-19.73,2.07c-.27-1.66-.57-3.54-.93-5.75l-9.81,1-.37-3.49a1.93,1.93,0,0,0-.39-.3.86.86,0,0,0-.44-.1l-64.69,6.79-.61-5.82,35.48-3.72-.63-6-9.67,1c-.23-1.44-.41-2.55-.65-4l-5.76.6-.61-5.84,15.64-1.65c.26,1.68.56,3.57.88,5.62l3.68-.38c.25,1.38.47,2.61.73,4l9.76-1,.62,5.95,21.76-2.29-.59-5.59,4-.87-.38-3.69,10-1.05-.63-6-9.71,1-.41-3.86,65.33-6.87c.21,1,.46,2.2.75,3.58l11.6-1.22c.31,2,.6,3.93.92,6l3.7-.39c.24,1.38.46,2.62.71,4l9.77-1,.63,6,6-.63.63,6-9.95,1.05-.62-6-9.95,1-.63-6-6,.63-.4-3.83-55.73,5.86.41,4-9.6,1,.63,6,25.63-2.7.62,5.84,23.74-2.49c.24,1.45.42,2.56.6,3.69l15.66-1.65-.41-3.91-9.8,1-.61-5.81,15.91-1.68.63,6,9.94-1,.42,4,10-1,.61,5.81,4.15-.06.39,3.76Z"/><path class="cls-1" d="M542.58,940.76l5.75-.61c.68,2.15.62,4.46.91,6.71s.49,4.58.77,7.19c4.75-.5,9.34-1,14-1.4.27,1.85.47,3.77.67,5.68l5.72-.6-.59-5.61c-2,.21-3.94.41-5.8.53-.55-4.52-1-9-1.52-13.79l-3.84.17.4,3.77-6.13.64-2.07-19.64,5.78-.61c.3,1.85.59,3.73,1,5.94l3.84-.41.42,4,6-.63,1.65,15.68h3.85l.38,3.56,15.92-1.68-.38-3.58,16.07-1.69-1.69-16.06,3.49-.37a2.24,2.24,0,0,1,.37.32.86.86,0,0,1,.2.42c.87,8.25,1.74,16.5,2.62,24.93l-3.86.41.62,6-19.93,2.1-.6-5.73L574.7,957.6l.59,5.59c-2.32.77-4.64.69-6.87,1s-4.59.5-7.06.76l.39,3.74-6,.63c-.18-1.09-.35-2.19-.59-3.65l-9.8,1-.61-5.85L529,962.49c.08,1.68.18,3.58.28,5.65l-49.44,5.19c-.26-1.69-.56-3.58-.87-5.62l-25.62,2.69.6,5.68-39.81,4.19-.61-5.76-15.95,1.67-.64-6-10,1.05-.42-4,15.78-1.66-.61-5.83L389.86,961l-.44-4.12,15.67-1.64c.26,1.19.52,2.41.82,3.8l5.69-.6.63,6,10-1,.42,4L534,955.63c-.07-1.17-.14-2.41-.23-3.77l5.86-.61L540,955l4-.42Z"/><path class="cls-1" d="M390.75,128.25c1.22-.2,2.37-.32,3.89-.48a67.47,67.47,0,0,1,.95,7.7c.32,2.61.56,5.24.85,8l5.79-.61-3.1-29.49,6-.63c-.18-2.07-.32-4-.51-5.9s-.4-3.93-.65-6.23l4.07-.43c.84,7.24,1.61,14.48,2.38,21.89l5.85-.61,1,9.8,3.71-.39L419.36,115l-3.75.39c-.3-2.79-.54-5.42-.86-8a70.63,70.63,0,0,0-.94-7.73l-5.74.6c-.21-1.14-.33-2.3-.48-3.76,3.11-.81,6.42-.66,9.74-1.34l-.6-5.71-9.62,1-.42-4,9.79-1-2.73-26,15.74-1.66c.22,1.56.47,3.14.66,4.73s.35,3.26.54,5.07l-5.86.61,1.67,15.92-3.86.63,5.21,49.53,3.61-.19,1,9.59,6-.63-1-9.44,4-.42,1,9.63,6-.63L449.78,154l5.74-.6.88,4L460,157l.63,6-9.65,1-.6-5.73-5.85.61.59,5.6c-.73.18-1.32.36-1.92.46s-1.27.14-2.08.23l-.62-5.86-6,.63-.63-3.87-9.64,1v3.82l-3.79.4-2.06-19.63-6,.63,2.06,19.62L384.74,165l-1-9.84-5.94.63-1-10,5.83-.61-2.1-20,9.94-1c.15,1.46.29,2.72.36,4.06-1.85.27-3.78.48-5.68.68l1,9.68,5.62-.6C391.36,134.67,391,131.43,390.75,128.25Zm7.45,31.16,11.61-1.22-1.22-11.62-5.62.59c.12,2.06.24,4,.36,6l-5.72.61Zm-5.37-11.18-5.63.59.59,5.65,5.63-.59Z"/><path class="cls-1" d="M709.75,1019.72l-.4-3.83,5.82-.88-1.65-15.71,9.94-1c-.08-1.47-.13-2.59-.2-3.9l5.67-.6c-.1-2.06-.19-4-.29-6l3.72-.4-1.67-16,6-.64-1.46-13.92,3.84-.57-1.64-15.67,6-.92-.61-5.75,4-.6-2.08-19.78,6-.63-2.07-19.77,5.84-.61-1.67-16,4-.63-3.12-29.7,5.85-.61L758,829.91l4-.88-2.48-23.57,6-.64-1.68-16,4-.42-1.67-16,10-1.05,1.65,15.69-3.82.79,2.07,19.63-6,.63,1.68,16-4,.42,3.75,35.68-6,.63c.25,2.41.48,4.66.72,6.92s.48,4.59.74,7.05l-3.88.41,1.67,16-5.86.61,1.65,15.73-4,.85L758.59,928l-6,.64,1.06,10-6,.63L749.27,955l-3.76.39c-.3,2.43.28,4.68.45,6.93s.47,4.59.73,7.06l-5.83.61,1,10-4,.63,1.24,11.8-5.85.61.39,3.76-4,.87.6,5.68-6,.63,1.05,10-4,.43.43,4Z"/><path class="cls-1" d="M504.12,1206.23l3.74-.39V1202l5.58-.59-1.26-12-5.52.58-1-10,5.71-.6-1.47-14,5.83-.61-1-9.79,4-.64,2.07,19.72-3.63.74.38,3.61,9.69-1c-.06-1.14-.11-2.26-.18-3.73l3.83-.4-2.71-25.72,6-.63.59,5.6,3.82-.4,3.58,34,6.13-.65c.21,2,.42,4,.57,6-1.85.26-3.77.46-5.68.67l.6,5.71,5.61-.59c-.21-2-.41-3.93-.53-5.79,1.31-.21,2.56-.34,4-.5l-.63-6,6-.62c-.21-2-.36-3.6-.56-5.22s-.44-3.16-.65-4.71l-5.8.61-2.08-19.77c1.89-.24,3.81-.5,5.74-.72s3.92-.42,6.06-.64l-.4-3.76,4-.42c.18,1.14.36,2.24.57,3.54l5.79-.61c.47,2.71.61,5.31.91,7.88s.56,5.26.85,8.06l-9.81,1,2.09,19.94-6,.63.63,6-5.86.61.35,3.31a4.29,4.29,0,0,1-.46.6.89.89,0,0,1-.41.21l-28.93,3.05.61,5.85-10,1c.07,1.46.12,2.59.19,4.06l-9.82,1,.64,6-15.94,1.68-.63-6,5.83-.61c0-1.52-.07-2.76-.1-4.1l9.76-1Zm24.25-18.8,3.92-.41c-.21-1.39-.4-2.6-.56-3.64l-3.74.4Z"/><path class="cls-1" d="M56.67,718.33,54.18,694.7H50.31l-1.64-15.6,3.73-.67L50.74,662.7l6-.64L50.92,606.5l3.86-.4c-.41-6.76-1.29-13.3-2-19.86s-1.38-13.2-2.09-20l5.73-.6-.63-6-5.53.58-.63-6,5.58-.58L53.2,533.94l4-.85-2.07-19.61,6-.63-1.68-16,4-.42-1.05-10,6-.63,2.07,19.71-5.79.91,1.64,15.6-4,.75,5.82,55.45-6,.63,1.68,16-4,.42,6.49,61.67-6,.63,3.12,29.71-3.27.34a5.84,5.84,0,0,0-.51.57.82.82,0,0,0-.14.44c1,9.58,2,19.17,3.05,29.09Z"/><path class="cls-1" d="M291.09,1188.4l6-.63,1,9.79c1.58-.11,3.18-.2,4.78-.35s3.26-.33,5.06-.52l.41,3.88,10-1,.62,5.87,15.72-1.66.86,4,3.61-.38-.06-3.7,5.75-.6.39,3.72,3.89-.21.6,5.69,6.05-.31.59,5.61,10-1-.59-5.53,4-.43,1,9.56,11.8-1.24c.31,2,.6,3.94.92,6l33.52-3.52c.25,1.37.47,2.61.72,4l15.73-1.66-.4-3.82,6-.64-.63-6,4-.42,1,10c2-.21,3.59-.36,5.22-.56s3.16-.44,4.89-.68l-.4-3.76c7.34-.92,14.55-1.44,21.69-2.42l-.62-5.87,13.93-1.47,1,9.95-25.89,2.72.61,5.83c-3.47.76-6.78.53-9.87,1.4l.39,3.76-4,.42-.37-3.51a3,3,0,0,0-.39-.28.86.86,0,0,0-.44-.1l-60.84,6.38-.62-5.93-19.75,2.07-.42-4c-6.7.6-13.22,1.38-20.08,2-.22-2.06-.42-4-.56-6,1.18-.2,2.43-.33,3.69-.46l-.4-3.73-3.62.38c.14,1.36.27,2.62.33,3.81-7.29.84-14.5,1.59-21.84,2.37-.21-1.37-.38-2.48-.61-3.92l-3.79.4-.61-5.83,3.62-.38-.63-6-13.4,1.41c-.29-1.35-.56-2.56-.86-3.93l-5.62.59c-.31-2-.6-3.91-.93-6.11l-9.83,1-.4-3.82c-1.56.11-3.16.2-4.75.34s-3.25.34-5.21.54l-.63-6,9.95-1Z"/><path class="cls-1" d="M487.26,128.09c.26,1.81.45,3.62.68,5.78l5.83-.31,1,9.66,6-.36.6,5.66,4.05-.08.39,3.75,6-.63.63,6,3.95-.41.61,4,9.84-1,.61,5.82,5.8-.61c.22,1.37.42,2.59.67,4.13l-10,1-.42-4-9.94,1-.63-6-9.94,1-.42-4-6,.63-.63-6-6,.63L489,144l-4,.64,1,9.77-6,.62c-.58-5.5-1.12-10.7-1.6-16,1.83-.27,3.75-.47,5.67-.67l-.39-3.74-5.61.59c.14,1.35.27,2.61.33,3.82-1.23.19-2.39.31-3.55.44-1.14-4.07-4.29-32-5.12-45.56l3.6-.38c0-1.4-.05-2.66-.07-4L489,87.82l.4,3.78L495.3,91l1.23,11.73,4.06,0,1.43,13.6,6-.63,1.05,10,4-.42.63,6,6-.64,1,10,10-1.05.6,5.72,4,0,1,9.76-3.82.4c-.29-1.87-.57-3.76-.88-5.81l-9.67,1c-.25-1.38-.47-2.62-.71-4l-5.65.59-.61-5.78H511l-1-9.62-6,.63-.63-6-4,.42-1.45-13.82-6,.64,1.45,13.72-6.06.64c-.4-3.23-.74-6.47-1.08-9.73l-3.91.41c.57,3.37.51,6.61,1.26,9.71ZM480.1,98.83l-5.63.59,1,9.68,5.62-.59c-.35-3.35-.69-6.59-.78-10l3.64-.38-.6-5.71-3.64.39A44.29,44.29,0,0,1,480.1,98.83Z"/><path class="cls-1" d="M18.65,547.37c-.53-4.46-1-8.93-1.5-13.67l3.78-.83-1.64-15.59,6-.63-1.68-15.93-5.82.61-5.24-49.85,6-.63-1.67-15.91,5.87-.61c.25,2.06.51,4.15.75,6.24.26,2.32.49,4.64.73,7l.69,6.55,3.76-.39,2.72,25.87L28,480.1c-.13.16-.34.3-.32.41,2.26,21.67,4.53,43.32,6.83,65.16l-5.83.61,3.74,35.66-6,.92,2.06,19.55-4,.42-1.43-13.65-5.95.63L12.72,548l5.93-.62c.82,7.2,1.57,14.41,2.34,21.66l3.9-.41c-1-7.34-1.34-14.55-2.51-21.64Z"/><path class="cls-1" d="M170,75l-.61-5.74,3.82-.8-.39-3.71,10-1-.62-5.87,9.78-1c0-1.4,0-2.63,0-4l9.61-1c-.12-2.05-.23-4-.35-6l41.44-4.36c0-1.38,0-2.63-.06-4l25.62-2.7-.63-6,9.84-1,.62,5.82-5.77.61.42,4L252.8,40.11l.62,5.93c-3.5.51-6.75.59-9.88,1.19L244,51.1l-6,.63.63,6-13.9,1.46.4,3.8-5.8.61c.11,2,.21,4,.32,6.18l-3.84.41-1-9.71,3.8-.81-.6-5.69,6-.63-.41-3.88L207.8,51.08l1.42,13.53-5.81.61c.1,2.06.2,4,.3,6l-3.72.39,1,10-10,1.05.63,6-5.87.62.43,4,5.59-.59,2.07,19.65-5.65.6-1.41-13.46-4.06.08-.61-5.75-6,.62L174.57,78.7l5.06-.53c.32-.34.53-.45.53-.57,0-1.11-.07-2.23-.12-3.7Z"/><path class="cls-1" d="M673.18,557l-45.72,4.81-.61-5.79-25.61,2.69c-.3-1.35-.57-2.57-.87-3.94l-5.61.59c0,1.07,0,2.32.07,3.71l-3.76.39-.4-3.78L568.76,558l-.63-6-9.82,1-.62-5.92c-6.73.54-13.27,1.34-19.82,2s-13.2,1.38-20.14,2.11l-.42-4,54.93-5.78a.81.81,0,0,0,.41-.21,2.28,2.28,0,0,0,.3-.38l-.58-5.45,3.85-.4c.35,2.21.66,4.09,1,5.93l11.73-1.23.4,3.78,4.2,0,.6,5.71c1.79-.19,3.42-.34,5-.54s3.16-.44,4.55-.63l-.59-5.63-3.86,0-.39-3.73,9.72-1,.79,3.82,3.72-.39.64,6,21.93-2.31,1.05,10L672.55,551Z"/><path class="cls-1" d="M692.16,1043.69l5.45-.58a1.79,1.79,0,0,0,.31-.37.92.92,0,0,0,.12-.45c-.86-8.24-1.73-16.48-2.61-24.9l3.75-.4c.22,1,.48,2.21.82,3.75l9.75-1,1,9.72-3.82.78,1.65,15.67-6,.63,1,9.85-3.84.4c.1,2.06.2,4,.3,6l-5.72.6,1,10-4,.42-.6-5.73-6,.63,1,9.85-4,.41.63,6c-2,.21-4,.42-6,.56-.4-3.16-.74-6.4-1.08-9.65l-5.73.6,1,9.58c2-.21,3.94-.41,5.81-.53.29,2.06.5,4,.71,6l-6,.63.42,4-4,.42.63,6-5.8.6c-.29-1.85-.58-3.73-.93-5.93l-9.81,1L650,1082.58l5.8-.61,1.2,11.48,4-.2-.61-5.87,6-.62-1.67-15.92-5.68.59-1-10,5.71-.6c-.08-1.46-.13-2.58-.2-3.9l3.79-.4.55,3.56,5.67-.59c0-1,0-2.26,0-3.84l5.77-.61,1,10c1.95-.2,3.58-.35,5.21-.55s3.17-.44,4.89-.68l-1-9.6,3.77-.83Z"/><path class="cls-1" d="M139.1,124.38c-1.88.28-3.7.47-5.55.66a2.28,2.28,0,0,0-.28.39.87.87,0,0,0-.11.44c.66,6.27,1.31,12.53,2,19l-3.75.39-2.68-25.59,3.65-.38-1.05-10,5.86-.62-.4-3.78,4-.86-.6-5.65,6-.63-.43-4,4-.42-.63-6,6-.63-.63-6,10-1,.61,5.81-5.81.89.6,5.67-4,.72c.06,1.23.12,2.35.19,3.82l-5.83.61.61,5.85-3.46.36c-.35,4.73,4.67,55,8.54,85.69l3.84-.4,1,9.82,5.75-.6.64,6.16-15.64,1.64-.61-5.8,5.78-.9-.39-3.74-5.7.6L149,179.83l-4.1.25c-2-18.65-3.9-37.13-5.79-55.7,1.19-.2,2.46-.34,3.69-.47l-1-9.66-3.64.38C138.49,118,138.83,121.22,139.1,124.38Z"/><path class="cls-1" d="M793.56,630.83l1.65,15.74-5.8.9,1.64,15.61-4,.73,3.12,29.63-6,.64,1.66,15.79-3.27.35a5.17,5.17,0,0,0-.52.57.73.73,0,0,0-.13.44c1.13,10.91,2.28,21.82,3.46,33.07l-6,.63-1-9.78-5.85.33L768.38,696l5.7-.6L771,665.6l6-.63,2.47,23.44,4-.42-4.16-39.54,6-.63-1.67-16Z"/><path class="cls-1" d="M467.27,1200.05l5.82-.61-1-9.83,4-.42-1-10,5.87-.62-.61-5.76,4-.88-1-9.52,6-.63.59,5.52,4-.43-.58-5.58,5.37-.56a5.29,5.29,0,0,0,.41-.58.78.78,0,0,0,.11-.44c-1-9.59-2-19.17-3-28.93l3.87-.41-.62-6,5.87-.62,3.75,35.66-5.6.59,1,9.73-4,.81.61,5.73-6,.63c.08,1.47.14,2.59.21,3.89l-9.66,1c.1,2.06.2,4,.3,6l-3.73.4,1.05,10-5.88.62.61,5.8-4.14.87.4,3.8-31.82,3.34-2.7-25.71,5.81-.61,1,9.8,4.13-.43,1.25,11.93c2.95-.31,5.58-.55,8.2-.87a67.75,67.75,0,0,0,7.7-1Z"/><path class="cls-1" d="M0,617.72l5.64-.59-2.7-25.71,4-.62,1.46,13.84,6-.62,1.26,12-5.74.6L13,646.31l5.66-.6c.21-3-.71-6.22-.68-9.62l3.61-.38,1.64,15.63-3.64.38,1.46,14-5.86.62L16.85,682l-4,.84L16,712.28l-6,.63Z"/><path class="cls-1" d="M631.28,62.68l.39,3.74h3.87l1.63,15.52-9.68,1-1.64-15.59-4,.42-1-9.83-6,.63.59,5.59-5.84.61c-.26-1.68-.55-3.57-.87-5.62l-3.68.38c-.25-1.37-.48-2.61-.72-3.95l-9.75,1,.39,3.73-5.85.62-1-9.57-4.21,0c-.55-5.21-1.1-10.46-1.59-15.79,1.18-.19,2.44-.33,3.69-.46l-.39-3.73-3.63.38c.14,1.36.28,2.62.33,3.81-1.88.27-3.7.46-5.82.68-.83-3.11-.67-6.42-1.31-9.76l-3.67.39-.42-4,13.54-1.43.67,3.73,5.77-.61.63,5.95,3.88-.22L595.9,34l6-.3.59,5.61,4.06,0,.6,5.71,6-.62c.24,1.44.42,2.54.65,4l5.82-.61.62,5.84L624,53.2c.92,3.28.71,6.6,1.47,10.09ZM597.19,46.06l-.62-5.91-3.63.57.6,5.72Z"/><path class="cls-1" d="M725.47,231.76l-4.17-39.68,5.78-.6L728.51,205h4l1.21,11.51,6.14-.65-2.27-21.62,4-.42c-.25-1.55-.44-2.77-.64-4l-3.8.4-1-9.77-5.84.32L727,149.39l5.68-.59,1,9.51,4-.11L740,179.87l6-.63,3.13,29.85-5.79.61L745,225.49l-3.76.39c-.26,3.41.68,6.61.64,10.19l-5.82.61-.62-6Zm9.35-5.1-.63-5.92c-1.27.22-2.36.39-3.45.6-.12,0-.2.25-.14.17l.58,5.54Z"/><path class="cls-1" d="M386.49,967.22l-19.71,2.07c-.29-1.86-.59-3.74-.92-5.79l-9.62,1c-.26-1.37-.49-2.6-.75-4l-11.73,1.23.4,3.73-19.78,2.08L324,964,320,964l-.59-5.64-10,1-.42-4-6,.63-.61-5.86-9.76,1-.88-4.12-9.76,1-.61-5.8c1.56-.22,3.14-.46,4.73-.66s3.26-.34,5.06-.53l-.6-5.74,4-.42.59,5.67,6-.64.62,5.85,9.72-1,.87,4,19.55-2.05c.31,2,.59,3.92.9,6l9.66-1c.25,1.37.47,2.6.72,4l15.72-1.65.63,6,15.79-1.66.4,3.76c3.41.26,6.6-.68,10.18-.64Z"/><path class="cls-1" d="M62.39,275.31l.61,5.8-5.8.89,1,9.65-4,.73.6,5.78-6,.63,2.08,19.76-5.84.62c.12,1.74.2,3.33.34,4.91s.34,3.27.53,5.08l-3.83.4,2.09,19.9-6,.63-1-9.66-4,.42.6,5.73-5.85.62-1-9.67,5.76-.91-2.71-25.73,4-.41-1-10,6-.63-.63-6,4-.42-.42-4,6-.63-.63-6,6-.62-.63-6Z"/><path class="cls-1" d="M41.22,571.32l4.34,41.34-3.77.83L44.89,643l-6,.91,6.86,65.27-6,.63L34,654.59l-4,0-.39-3.73,3.73-.56-2.28-21.74,6-.64-3.13-29.7,5.25-.55a4.56,4.56,0,0,0,.53-.58.75.75,0,0,0,.13-.43c-.86-8.26-1.73-16.52-2.61-24.95Z"/><path class="cls-1" d="M683.6,216.05l-1-9.76-5.83.3-.6-5.7-6,.63-1-10,5.71-.6-.42-4,6-.63-1-9.83,4-.41.55,3.56,5.8-.61c.47,2.69.62,5.28.91,7.85s.56,5.25.85,8.06l3.8-.4c1.11,6.63,1.42,13.19,2.32,19.86l5.71-.6c.33,2,.63,3.91,1,6.12l3.84-.4,1,9.88,5.77-.6,1,9.87-5.65.59-.62-5.83-10.06,1.05-.39-3.73-3.86,0-.59-5.62-10.11,1.06-.43-4.15,3.71-.39-.62-6Zm9.15-7.09-1-9.61-5.65.6,1,9.6Z"/><path class="cls-1" d="M12.53,451.48l-4,.42c-.68-6.53-1.37-13.06-2.07-19.77l3.89-.41L6.6,395.86l5.86-.62L9.13,363.56l6-1L13.68,349l4-.75L15.4,326.56l6-.64-1.47-14,4-.42L26,331.16l-3.77.83,2,19.53-5.94.93,3.31,31.44-3.94.86,1.43,13.61-6.12.64,3.78,35.94-6,.63Z"/><path class="cls-1" d="M99.35,340l1,9.6-5.8.9,1,9.64-4,.74,1,9.74-6,.63.62,5.86-3.85.4c.12,1.75.2,3.34.34,4.93s.34,3.26.52,5.07l-5.82.61,1,10-4,.42.42,4-5.86.61,1,9.77-4,.83.58,5.55-6,.63-1-9.58,5.72-.6-1.05-10,4-.42-1-9.83,5.75-.6-.63-6-5.46.57-1-10,5.64-.59-.63-6,4-.64-.4-3.86,5.84-.62-.61-5.75,4-.81-.39-3.73,6-.63-.63-6,4-.42-.41-3.85Z"/><path class="cls-1" d="M205.61,183.83l-.39-3.74h-3.89l-.6-5.7-6,.63-.63-6-4,.42-1-9.82-5.73.6c-.79-2.31-.7-4.62-1-6.85s-.49-4.59-.75-7.06l-3.73.39-4.39-41.76,3.41-.36c-.07-.06.16,0,.17.16,1.11,10.37,2.2,20.75,3.33,31.47l6.18-.65c.4,3.23.74,6.47,1.08,9.73l3.85-.4c-.19-1.84-.34-3.47-.54-5.09s-.43-3.11-.65-4.63l-3.74.39c-.61-5.12-1.15-10.25-1.72-15.73l3.82-.61,1,9.87,6-.64,3.76,35.83,4-.42,1.05,10,5.93-.62,1,10Z"/><path class="cls-1" d="M768.79,490.82l10,95.07h3.85l.59,5.59-3.66.74,2.7,25.61-6,.63,1.45,13.82-4,.42-2-19.52,3.71-.39L762.65,491.47Z"/><path class="cls-1" d="M221.69,1159.5l.39,3.74H226l.58,5.56,26-2.73-.6-5.73,5.81-.61,1,9.82,4-.43.63,6,10-1.06,1.05,10,6-.63,1.05,10-6,.62-.42-4c-1.43.24-2.53.41-3.62.62-.12,0-.2.25-.3.38l.37,3.45-5.75.6c-.69-2.14-.62-4.45-.91-6.68s-.5-4.59-.78-7.22c-1.42.15-2.7.29-4.06.36-.27-1.85-.47-3.78-.67-5.68l-9.68,1,.59,5.62c3.35-.35,6.59-.69,9.76-1,.21,1.22.33,2.38.5,4l-15.79,1.66-.41-3.89-4,.43-.61-5.87-5.82.61c-.33-2-.64-3.92-1-6l-9.62,1-.75-4-5.63.59-.61-5.81h-4.23l-.4-3.8Z"/><path class="cls-1" d="M455.71,841.29l-.4-3.74,3.8-.8-.58-5.57,25.85-2.72.59,5.6,15.93-1.67.43,4,4-.42.63,6,5.94-.62.4,3.86-5.67.59c.11,2.05.21,4,.32,6.18l-13.79,1.45-.61-5.8c-5.18.12-10.32,1.1-15.85,1.42l-.39-3.78L460.48,847c-.3-2-.58-3.86-.91-6.06Z"/><path class="cls-1" d="M170.66,521.18l.63,6-5.84.61c.09,1.4.16,2.64.25,4.05l-9.68,1,.64,6,15.53-1.63.39,3.68c.06-.07,0,.16-.16.18-7.07.76-14.14,1.5-21.39,2.26l.62,5.89-10,1-1-9.65,5.81-.61-.62-5.85,3.76-.4v-4.07l5.7-.6-.64-6,10-1.05-.42-4,9.82-1-.62-5.83c1.74-.24,3.33-.48,4.92-.68s3.26-.34,5.06-.53l.6,5.74L210,513l-.58-5.54,10-1.05L220,512l9.8-1c.22,1.37.41,2.59.64,4Z"/><path class="cls-1" d="M288.23,32.37l29.82-3.14-.61-5.79,19.71-2.07c-.1-2.05-.2-3.95-.31-6.18l15.78-1.66.6,5.72-3.78.83.59,5.65-6,.63,2.5,23.82-5.92.93,1,9.66-4.12.64c-.51-4.8-1-9.38-1.41-14,1.19-.2,2.45-.33,3.69-.46l-.6-5.71-3.63.38c.21,2,.42,3.94.54,5.79-1.87.27-3.68.46-5.78.68,0,1.21,0,2.45,0,4l-3.79.39-1-9.94,4-.42-.42-4,9.74-1-.62-5.88-3.87.2-.41-3.88c-3.51.44-6.72.64-9.86,1.12l.41,3.91-35.8,3.77Z"/><path class="cls-1" d="M219.43,162.27l1,9.92,5.78-.61.61,5.74h4l.38,3.63,6-.34.59,5.61,4.18,0,1,9.77-9.79,1c-.28-1.86-.57-3.75-.89-5.81l-3.69.39-.72-4-5.79.61-1.05-10-5.84.62-1.23-11.72-4.07,0-1.44-13.66-6,.63-2.72-25.9,5.8-.61L204,111.79l3.7-.39c-.09-.06.14,0,.16.13,1.8,17,3.59,34,5.41,51.39Z"/><path class="cls-1" d="M234.44,936.77l-.59-5.68-5.72.6L226,911.75l5.56-.59-.4-3.85c1.73-.25,3.31-.5,4.89-.7s3.27-.35,5.06-.53l.41,3.86-5.68.59,1,9.86,5.63-.59c0-1,0-2.22,0-3.64l3.61-.38.75,3.65,5.72-.6,1,9.95,9.84-1-.38-3.62c3.3-.89,6.62-.7,9.95-1.41l-.59-5.62,6-.62,1,9.65-5.81.61.61,5.85Z"/><path class="cls-1" d="M234,587.26l-.63-6,39.52-4.15.59,5.67L238,586.51l.63,6-19.92,2.09.42,4-15.95,1.68.63,6-19.76,2.08.4,3.83a63.14,63.14,0,0,1-7.88,1c-2.62.32-5.25.56-8,.85l-.4-3.85L179.81,609l-.64-6,9.94-1.05c-.08-1.46-.14-2.58-.21-4l19.77-2.08-.61-5.83Z"/><path class="cls-1" d="M337.48,843.66l9.6-1c.29,1.85.58,3.74.9,5.77l5.73-.6-.6-5.69,4-.63-1-9.74,31.83-3.34.39,3.74,3.89-.2.6,5.67,6-.29.59,5.6,4,0,1,9.56-3.75.4-.6-5.67-15.88,1.67-.6-3.84-5.67.6c-.33-2-.64-3.91-1-6l-9.66,1c-.31-2-.59-3.92-.9-6l-3.76.4,1.23,11.69-6,.63.41,4-13.8,1.45-.38-3.65-6,.28Z"/><path class="cls-1" d="M105.93,306.93l-1.44-13.77,5.81-.88-.6-5.76,9.94-1c-.07-1.46-.13-2.58-.2-4.06l3.87-.4-1.24-11.82,5.84-.61-1-10,4-.63-1-9.81,5.85-.61-1-9.8,6-1-.38-3.67,4-.74-1.22-11.6,6-.63.61,5.76,4-.42.61,5.74-3.82.79.39,3.72-6,.63.63,6-4,.43,1,9.82-5.84.61,1.05,10-6,.64,1,9.94-4,.65,1,9.82-5.84.61,1,9.8-4,.63-.4-3.79-6,.63c0,1.14.11,2.26.18,3.73l-3.86.41,1,10Z"/><path class="cls-1" d="M431.1,1009l2.68,25.5,5.84-.31,6.86,65.26-5.67.6-3.09-29.38-4.05.09L432,1055l-6,.62-1.66-15.79,5.09-.54a7.45,7.45,0,0,0,.53-.57.8.8,0,0,0,.13-.44c-1-9.58-2-19.17-3-28.92Zm4,39.54-.41-3.93-3.62.58.39,3.73Z"/><path class="cls-1" d="M411,1047.1l3.83-.41c-.11-1.87-.23-3.79-.35-5.84l5.63-.59,2.69,25.6-5.66.6,1.67,15.89-3.84.62.38,3.66,3.67,0,.59,5.65-9.64,1,.43,4,5.7-.6.63,6-5.83.61,1.05,10-6,.63-3.76-35.72,5.9-.62-1.05-10,5.84-.62-.6-5.79,4-.81-.38-3.6-3.84,0Z"/><path class="cls-1" d="M557,44.34l3.83-.4c.28,1.87.56,3.76.87,5.82l11.73-1.23,1.46,13.92,3.9-.2,1,9.63-3.58.79,1,9.59,3.71-.08,1.63,15.57-3.75.39c-.18-1.17-.35-2.28-.54-3.56l-5.72.6a65.42,65.42,0,0,1-1-7.89c-.33-2.63-.57-5.26-.86-8.05l-5.86.61L562.1,54l-4,.42,1,9.72-6,.63-1.45-13.82,6-.63Z"/><path class="cls-1" d="M768.52,356l6-.63,4.78,45.5-5.74.6-2.06-19.61-4,.41-1.66-15.79,3.72-.39c-.08-1.39-.15-2.62-.24-4.05l-3.91.41-4.82-45.8-5.86.62-1.67-15.88,9.58-1Z"/><path class="cls-1" d="M372.92,53.63l9.87-1c-.1-2.55-.49-5.12-.74-7.69s-.54-5.25-.84-8l3.82-.4c.26,1.68.55,3.57.87,5.6l5.72-.6-.6-5.7,6-.63-.41-4,4-.65L400,24.68l5.84-.61-.41-3.83c-3-.18-6.23.71-9.79.7L395,15.11l33.56-3.53.62,5.84-19.53,2,1,10-4,.66.41,3.85-5.85.62.6,5.76-4,.8c.07,1.17.13,2.29.22,3.77l-5.84.61.62,5.86-5.74.6c0,1.41,0,2.65,0,4.08l-3.69.38.63,6-15.82,1.66-.61-5.81,5.76-.6Z"/><path class="cls-1" d="M489.83,190.16l.61,5.76c3.21.16,6.42-.69,9.82-.71l.39,3.72,6-.63.63,6,13.9-1.46.41,3.88L502,208.77l-.39-3.64-19.88,2.09-.63-6-6,.62c-.23-1.43-.41-2.54-.65-4l-3.83.4-.62-5.84-5.8.61c-.33-2-.63-3.9-1-6.12l-3.84.41-.42-4-6,.63-1-9.69,5.82-.61.37,3.53,4.06-.1.61,5.76,5.95-.63c.22,1.45.39,2.56.59,3.85l9.66-1c.33,2,.63,3.91,1,6.12Z"/><path class="cls-1" d="M511.1,105.47l5.77-.6c.29,1.83.59,3.71.92,5.75l3.59-.37c.3,1.35.56,2.56.87,3.94l5.61-.59.94,6.1,3.86-.41,1,9.68,6-.62-1-9.68,6-.63c.24,2.24.48,4.5.72,6.75s.48,4.59.74,7.06l3.89-.41.64,6,5.86-.61.61,5.75,4.05,0,.38,3.57-13.66,1.43c-.18-1.1-.36-2.21-.6-3.66l-5.83.61-.64-6-10,1-1-9.74-5.83.28-.59-5.57-4,0-1-9.61-6.16.36Z"/><path class="cls-1" d="M555.47,183.26l-.6-5.72-4,0-.39-3.79L596,168.94c1.08,6.47,1.44,13,2.31,19.87l-10,1.05-.43-4.11-16,1.69-.62-5.84Z"/><path class="cls-1" d="M708.08,219.33l-2.26-21.46-3.86,0-1.43-13.59-6,.36-2.27-21.56-4,.07-.39-3.75,3.78-.4-1-9.83,6-.63L698,162.06l3.83-.4a67.06,67.06,0,0,1,1,7.88c.33,2.62.56,5.24.86,8l5.72-.6,4.39,41.75Z"/><path class="cls-1" d="M696.34,106.11l5.64-.59c.29,1.85.58,3.74.9,5.8l3.67-.39c.25,1.38.48,2.61.74,4l5.76-.6,1.25,12,5.85-.62,3.55,33.76L718,160l-1-9.78-5.85.62-1.44-13.72h-4L704,121.59l-6,.31Z"/><path class="cls-1" d="M779.9,252.18l-5.76.6c.17,6.52,1.37,13,1.8,19.82l-5.89.62,1.68,16-3.5.36a2.58,2.58,0,0,1-.36-.31.85.85,0,0,1-.19-.42c-1-9.57-2-19.14-3-28.89l3.84-.4-1.26-12,6-.63-1.05-10,6-.63L775,206.56l9.82-1,1,9.79-5.59.58,3.12,29.62-4.11.88Z"/><path class="cls-1" d="M91.09,165.7,89.44,150l5.8-.89-1-9.66,4-.71-1-9.77,6-.64-1-10,4-.42,1.44,13.68-3.93.84,6,57.5-5.45.57a2.88,2.88,0,0,1-.39-.3.87.87,0,0,1-.2-.41c-1.22-11.56-2.44-23.11-3.67-34.85l-3.78.4c-.2,3,.71,6.22.68,9.79Z"/><path class="cls-1" d="M61.63,363.72,61,358.13l3.81-.79-1-9.69,6-.63-1-10,4-.43-1-9.82,5.82-.61c-.12-1.75-.21-3.35-.36-4.95s-.33-3.26-.52-5.06l3.87-.41-.62-6,5.87-.62,1,9.8-5.6.58,2.28,21.65-4,.86.39,3.69-6,.63,1,10-4,.42.61,5.85-5.74.61v4.07l-3.71.39.63,6-5.87.61-1-9.71Z"/><path class="cls-1" d="M630.59,1146.69l-.4-3.75h-4l-1.64-15.6-5.88.62,1.66,15.79-4.1.43-1.66-15.76-5.85.35-1.63-15.58,5.75-.6.58,5.55,4-.43-1-9.59,5.84-.61-.63-6,9.87-1,.6,5.78-5.56.59.39,3.76-4,.86,1,9.61,3.77-.11,1.65,15.73,5.95-.62,1.05,10Z"/><path class="cls-1" d="M354.59,128l5.72-.61.82,3.79,3.67-.38,1.05,10,5.88-.62,3.35,31.94-9.72,1-1.67-15.92-6,.63Z"/><path class="cls-1" d="M733.28,247l9.61-1c-.1-1.88-.21-3.79-.33-5.84l3.76-.4,1,9.72,6-.64,1.26,12,3.86-.41,1.44,13.73-3.62.78.58,5.57-6,.63-1-9.65-4,.42-.61-5.85-5.74.61c-.3-1.37-.56-2.6-.85-4l-3.59.38-.63-6,3.53-.57-.59-5.67h-3.65Z"/><path class="cls-1" d="M515.22,527.35l-.58-5.45a3,3,0,0,1,.31-.39.93.93,0,0,1,.41-.2l28.88-3,.62,5.88c2.73-.11,5.31-.5,7.88-.75s5.25-.54,8-.84l.35,3.34c.31.23.45.43.57.42l19.55-2,.64,6.12-9.94,1,.41,4-9.74,1-.91-4.11-9.7,1-.61-5.79-21.85,2.3-.42-4Z"/><path class="cls-1" d="M526.8,63.6l2.49,23.69,6-.32,3.34,31.7-6,.62-1-9.69-3.88,0-.59-5.67-6,.63-1-10-4,.41-.63-6,3.82-.4-.4-3.85,5.29-.56a3.84,3.84,0,0,0,.48-.57.8.8,0,0,0,.12-.45c-.65-6.26-1.31-12.52-2-19.12Z"/><path class="cls-1" d="M475.88,937.54l1,9.87-5.84.61-.59-5.63-4,.42c-.23-1.45-.41-2.56-.62-3.85l-5.68.59c-.2,3,.71,6.23.69,9.63l-3.62.38-1.64-15.65,3.64-.58-4.78-45.54,5.85-.62L462,902.7l4.06,0,.38,3.64-3.66.67,2.28,21.7,3.82-.4,1,9.83Z"/><path class="cls-1" d="M353.86,1155.66l-3.67.39,1,9.79-6,.63-1.65-15.64-3.9.2-1-9.76,3.72-.58-2.08-19.78,5.83-.61-1-9.79,4-.63Z"/><path class="cls-1" d="M427.43,916.66l3.14,29.84-9.7,1c-.26-1.18-.53-2.4-.83-3.78l-5.54.59-2.72-25.84,5.48-.58c.19-3.39-.69-6.59-.68-10.16l3.84-.41,1,9.95Z"/><path class="cls-1" d="M782.07,483.22l6-.63-2.09-19.89,3.51-.37a2.54,2.54,0,0,1,.35.32.78.78,0,0,1,.19.41c1,9.56,2,19.13,3,28.88l-3.27.34a4.89,4.89,0,0,0-.49.58.86.86,0,0,0-.12.44L794.49,544l-6,.63Z"/><path class="cls-1" d="M463.26,90.39,466,116l-3.9.82,3.73,35.52L460,153l-.59-5.59-4.21,0-1-9.75,3.87-.4c-.44-6.55-1.34-13.07-1.94-19.78l-3.78.39L450,95.93l3.71-.39,1.64,15.69,6-.63-2.08-19.79Z"/><path class="cls-1" d="M614.21,110.72l.4,3.82c-1.56.22-3.14.46-4.72.65s-3.26.35-5.06.54l-.4-3.77-4,.08-.61-5.74-6,.63-1-10-4,.42-3.12-29.69,3.82-.4,1,9.7,6-.63,1.65,15.76,3.76-.39c.91,3.28.7,6.6,1.46,10.09l5.83-.61,1,9.94Z"/><path class="cls-1" d="M117,259.51l-1-9.68-5.8.61.57,5.46-4,.82.39,3.71-6,.63.63,6-4,.41.21,4-5.83.61,1.24,11.79-5.75.61c0,1.39,0,2.63,0,4.21l-3.79.4-1-9.7,3.78-.83-1-9.62,6-.63-.63-6,6-.62c-.07-1.46-.13-2.58-.21-4l3.83-.41-.62-5.85,5.78-.6c0-1.4,0-2.63,0-4l9.59-1c-.11-2.05-.21-3.95-.32-6.18l9.81-1,.62,5.92-5.86.62,1.47,14Z"/><path class="cls-1" d="M517.8,609.36l-.59-5.64,5.81-.88-.39-3.76,10-1.06-.62-5.86,55.65-5.85.6,5.69-45.51,4.79c.08,1.44.14,2.56.21,4l-15.8,1.66.62,5.83Z"/><path class="cls-1" d="M282.78,171.86l-.62-5.93c3.12-.8,6.43-.66,9.77-1.33l-.61-5.73,10-1.05-1-9.85,4-.42,1.64,15.61,5.94-.63,3.13,29.7-5.76.61c-.18-1.16-.35-2.26-.58-3.71l-3.8.4-.61-5.84,3.64-.38-1.46-13.94Z"/><path class="cls-1" d="M323.27,901.47l-.39-3.76,3.81-.79-.6-5.71,16-1.68-.61-5.86,25.9-2.72.61,5.77,4-.43.62,5.87-3.83.59c.05,1.2.1,2.43.16,3.92l-5.85.61-1-9.84-3.95.42.61,5.77L333,896.33c0,1.33,0,2.57.05,4.11Z"/><path class="cls-1" d="M593.85,1084.18l5.83-.61c1,6.49,1.42,13,2.24,19.74l-5.76.6,1.68,16,5.52-.58,1,9.93-5.58.58-.59-5.68c-1.75.12-3.34.21-4.93.35s-3.27.33-5.22.54l-3.76-35.8,3.77-.4c.89,3.76.79,7.7,1.55,11.7l5.85-.61Z"/><path class="cls-1" d="M328.66,166.88l3.67-.39c1.19,7.81,1.68,15.71,2.7,23.72l-3.92.41.63,6-5.87.62-.59-5.59h-4l-3.72-35.46-6,.34-.38-3.63,9.71-1,1,9.67,5.93-.63C328.1,163.12,328.38,165,328.66,166.88Zm1.77,19.84-.59-5.63-5.63.6.59,5.62Z"/><path class="cls-1" d="M620.06,166.42l-3.13-29.84,5.5-.58a2,2,0,0,0,.27-.38,1,1,0,0,0,.11-.44c-.86-8.25-1.73-16.5-2.63-25.08l-6,.62-1.05-9.94,5.73-.6c.25,1.19.52,2.41.81,3.79l5.57-.58L629,139.16l-5.57.59,2.74,26Z"/><path class="cls-1" d="M638.44,1125.75l-2.08-19.84,5.88-.62-3.34-31.73,5.91-.62,2.7,25.71,4.13-.43,1,9.78c-1.56.22-3.14.47-4.73.66s-3.26.35-5,.54l1,9.84,5.69-.6,1,9.85-5.64.59c-.2-1-.46-2.18-.79-3.74Z"/><path class="cls-1" d="M421.06,167.22l3.75-.39c.25,1.19.5,2.42.79,3.81l5.71-.6.63,6,4.05-.2.41,3.86,10-1,.63,6-13.75,1.45c-.29-1.86-.59-3.74-.91-5.79l-9.62,1-.76-4L396.37,180l-.63-6-5.87.62-.42-4L405,169l.39,3.79c2.74-.11,5.32-.5,7.89-.75s5.25-.55,8.23-.86Z"/><path class="cls-1" d="M638.23,184.62l5.66-.6a67.42,67.42,0,0,0-.68-7.73c-.23-2.63-.54-5.25-.83-8l3.85-.41.6,5.7,6-.63.62,6,3.89-.2,1.45,13.81-3.6.38.61,5.82a64.76,64.76,0,0,1-7.88,1c-2.62.33-5.24.57-8,.86Z"/><path class="cls-1" d="M585.88,1161.44l10-1c.34,3.21.67,6.43,1,9.83l-3.89.41.64,6-9.85,1,.4,3.79c-3.3.9-6.62.71-9.95,1.42l.59,5.61-6,.63-1.64-15.62,9.78-1-1.05-10,6-.63.63,6,4-.64Z"/><path class="cls-1" d="M360.3,1062.48l1,9.75,5.83-.29,4.78,45.48-5.66.6-3.12-29.7-6.11.64-2.71-25.86Z"/><path class="cls-1" d="M484.31,41.92l1,9.95-5.88.62,1,9.76-4,.75.61,5.83-5.72.6c0,1.2,0,2.44,0,4l-3.78.4-1-9.94-6,.62-1-9.87,9.84-1-.62-5.93,5.89-.62c0-1.37-.07-2.61-.11-4.12Z"/><path class="cls-1" d="M360.44,1062.29l-4.79-45.55,5.64-.59-1-9.8,4-.63,2.08,19.75-3.66.7,1.65,15.69,3.72-.39,1.47,14-3.84.41.61,5.84Z"/><path class="cls-1" d="M272.74,38l15.91-1.67.61,5.77c-3.13.79-6.44.66-9.78,1.33l.4,3.75-15.95,1.67.63,6-4,.42c.07,1.46.13,2.58.2,3.89l-5.7.6c.12,1.74.2,3.33.34,4.91s.34,3.27.54,5.24l-6,.63-1.47-13.92-4,.42-.63-6,16-1.68-.41-3.89c4.81-.77,9.38-.85,13.81-1.7Z"/><path class="cls-1" d="M431,31.62l-.42-4,11.68-1.23.4,3.75-5.69.6,1.68,16-9.82,1,.4,3.84c-1.74.24-3.32.49-4.92.68s-3.25.35-5.06.54l-.4-3.88-6,.63-.64-6,9.8-1-1-9.82Z"/><path class="cls-1" d="M337.31,843.68l-5.78.61c-.29-1.84-.59-3.72-.92-5.76l-3.16.33c-.33-.25-.56-.34-.58-.46q-2.17-19.71-4.32-39.42l4-.42-.63-6,6-.62-.42-4,9.95-1,.39,3.74-3.78.82.59,5.66-6,.62,1,10-6,.63,2.72,25.82,5.86-.33Z"/><path class="cls-1" d="M669.17,78.8l-5.42.57a2.17,2.17,0,0,0-.32.36.76.76,0,0,0-.14.43q1.31,12.57,2.63,25.13l-5.43.57a2.82,2.82,0,0,1-.39-.29.82.82,0,0,1-.21-.4c-1.08-10.2-2.16-20.4-3.26-30.87l-3.88,0-.39-3.7-10.08,1.06-1-10.08,3.75-.39.79,3.81,9.68-1,.63,6,6-.64.43,4,6-.63Z"/><path class="cls-1" d="M711.65,253.32l-3.81.4c.1,1.88.21,3.78.33,5.84l-5.73.6-.6-5.7-4,.42-1-10-6,.63-.42-3.95-3.87.22-.6-5.68-6.19.3-.41-3.84,9.7-1,.87,3.93,9.74-1,.61,5.78,5.83-.3.38,3.61h4.19Z"/><path class="cls-1" d="M317.58,1153.44l-.4-3.83,11.78-1.24-.63-6-5.7.6-.41-3.87,5.6-.59c.19-3.41-.68-6.62-.68-10l3.74-.39-.63-6,5.88-.62,1,9.79-5.76.6,3.14,29.86-3.81.4c.1,1.88.21,3.78.32,5.84l-5.69.6-1.65-15.75Z"/><path class="cls-1" d="M430.74,946.48l3.79-.4c-.23-2.23-.46-4.49-.7-6.74s-.48-4.59-.74-7.05l5.86-.62-2.3-21.87,5.87-.62,3.74,35.6-5.71.6.62,5.94-9.81,1Z"/><path class="cls-1" d="M460.52,1134.49l5.66-.6,2.68,25.51,4,0,1.42,13.52-3.61.78,1,9.53-6,.63Z"/><path class="cls-1" d="M453.84,39.09l9.85-1,.61,5.79-5.61.59c0,1.38,0,2.62,0,4l-3.63.38c.12,2,.23,3.95.35,6l-5.71.6.63,6-4,.42,1.48,14.07-6.12.64L439,50.75l5.78-.61-.39-3.77c3.28-.9,6.6-.7,10.09-1.45Z"/><path class="cls-1" d="M19.71,748.53l-2.09-19.9,3.75-.39L23,743.86l5.88-.62L33.7,789l-5.58.59-4.35-41.43Z"/><path class="cls-1" d="M359.4,173.7l-5.79.61c-.29-1.84-.59-3.72-.94-5.93l-3.85.4L345.69,139l-5.78.61-.6-5.74-4.21,0-1-9.74,3.81-.4c.29,1.85.58,3.74.92,5.93l9.82-1q1.53,14.55,3.07,29.1a.76.76,0,0,0,.22.4,2.76,2.76,0,0,0,.39.28l5.42-.57Z"/><path class="cls-1" d="M389.27,1049.4l-4,.43.4,3.72-6,.63-1.43-13.63,9.7-1-.61-5.85-3.66.39c-1.15-6.64-1.47-13.21-2.33-19.88l3.85-.4c-.12-2.06-.24-4-.36-6l5.63-.6,1,9.71-5.53.58,1.26,12,5.56-.59,1.47,14-5.6.59Z"/><path class="cls-1" d="M223.4,696.63l-.59-5.66,57.33-6,.59,5.65Z"/><path class="cls-1" d="M5.16,478.49l6-.62,4.16,39.49-5.61.91,1.64,15.61-4,.63-2.7-25.66,3.63-.78Z"/><path class="cls-1" d="M571.93,1122.69l5.63-.6c-.11-1.56-.2-3.15-.34-4.74s-.34-3.26-.52-5l3.82-.41,2.06,19.57,9.94-1,1.05,10,5.89-.62,1.67,15.9-5.61.59-1-9.68-4,.42-.63-6-6,.63-.63-5.94-3.87.23-1-9.66-6,.29Z"/><path class="cls-1" d="M348.62,128.58l-1-9.7h-3.87L338.34,67.5l3.64-.59,4.16,39.62,6.16-.32L354.59,128Z"/><path class="cls-1" d="M588.34,189.86l.62,5.87,13.81-1.45-.62-5.87,10.06-1.06.6,5.72-3.79.83.38,3.56-35.77,3.76-.37-3.54-6.19.31-.61-5.83Z"/><path class="cls-1" d="M403.92,1190.45l-1-9.6,5.78-.91-.38-3.65,4-.77-.6-5.73,6-.63-1-9.84,5.93-.62,2.07,19.62-5.82.62.61,5.84-5.74.6c0,1.4,0,2.64,0,4Z"/><path class="cls-1" d="M223.36,105.54l-3.65.38,2.07,19.64-6,.62-3.73-35.5,5.62-.59-1-9.78,4-.65Z"/><path class="cls-1" d="M408.91,204.7l.38,3.66c3.25.45,6.4-.68,9.82-.59l-.39-3.75c3.26-1.16,6.57-.72,10.06-1.55l.44,4.12-3.72.39.62,6,3.72-.39.42,4L416.34,218l-.39-3.71-6,.62.39,3.72-5.86.62-.6-3.89-3.89.41-1.06-10Z"/><path class="cls-1" d="M229.93,109.06l3.72,35.39h3.87L239.15,160l-3.75.39-1-9.67-5.94.63-4.38-41.65Z"/><path class="cls-1" d="M385,915.08l1,9.72-3.9.83,1.64,15.69-5.8.61.63,6,5.6-.59.39,3.74,4.21,0,.6,5.77-9.87,1-.62-5.89-4.05.43-1.47-14,3.83-.4a66.85,66.85,0,0,0-.67-7.71c-.23-2.63-.54-5.25-.84-8l5.77-.61c-.1-2-.2-3.94-.31-6.18Z"/><path class="cls-1" d="M349.32,76.19,355,75.6l-1-9.7,4-.42L360,85l-3.68.39c.12,1.75.2,3.34.34,4.93s.34,3.27.53,5.08l3.74-.4,1.67,15.93-3.68.39-1-9.79-5.85.62Z"/><path class="cls-1" d="M107,220.5c-.28-2-.47-3.78-.69-5.87h-3.87L101,201l3.67-.56,1,9.85,6-.63.61,4,3.83-.41.63,6,9.91-1,.4,3.85-9.62,1,.29,6-13.64,1.44c-.19-1.38-.44-2.95-.63-4.53s-.35-3.26-.54-5.06c1.42-.15,2.7-.28,4-.44.19,1.1.32,2.36.45,3.6l5.71-.59-.38-3.64C110.74,220.08,108.82,220.29,107,220.5Z"/><path class="cls-1" d="M177.83,1144l5.72-.6c.25,1.18.52,2.4.82,3.78l5.66-.59.63,6,4-.43.42,4,6-.63-.39-3.74,3.85-.41.39,3.67,6.19-.31.61,5.83-15.67,1.65v3.87l-3.72.39-1-9.72-6,.64-.42-4-6,.64Z"/><path class="cls-1" d="M68,425.64l4-.42,1.44,13.67-3.71.68,1,9.75-6,.63,1,9.83-5.9.62c.18,2.08.33,4,.51,5.91s.41,3.93.63,6.06l-3.74.39L55.6,457.13l3.65-.39-1-10,6-.63-1-10,5.84-.61Z"/><path class="cls-1" d="M83.12,243l.6,5.73L80,249.5l.38,3.58c-3.28.85-6.58.7-9.91,1.38l.59,5.66-5.93.95.38,3.59-4.11.89.61,5.78-9.94,1-.61-5.73,3.81-.81-.39-3.69,6-.64-.63-6,4-.41L64,251.2l9.66-1c-.1-2.05-.2-4-.31-6.19Z"/><path class="cls-1" d="M666.09,105.27l5.64-.59,1,9.81,4-.42,1.68,16,5.87-.62,1,9.93-9.55,1-1.64-15.59-6,.29Z"/><path class="cls-1" d="M114.43,100.75,114,97.1l5.8-.9-.6-5.71,10-1-.63-6,10-1c-.08-1.45-.14-2.57-.22-3.9l9.75-1,.39,3.71-3.82.4.63,6-10,1,.61,5.83-9.7,1c0,1.39,0,2.64,0,4Z"/><path class="cls-1" d="M517.28,794.6l5.33-.56a2.37,2.37,0,0,1,.39.3.79.79,0,0,1,.2.41c1.57,14.85,3.13,29.71,4.72,44.77l-5.85.62Z"/><path class="cls-1" d="M376.28,1157.15l1.67,15.92-5.71.6-3.72-35.44,5.69-.6.59,5.6,3.74-.4c.75,2.32.68,4.63,1,6.86s.5,4.59.76,7Z"/><path class="cls-1" d="M432.83,87.73l.6,5.66,3.72-.39.43,4-3.63.58,3.32,31.58-5.84.62-4.36-41.46Z"/><path class="cls-1" d="M615.66,1101.9l-3.64.39-1.64-15.61-6,.29-2.48-23.64,5.62-.6,1,9.58,4,0Z"/><path class="cls-1" d="M246,1008.13l1,9.71-3.81.8.39,3.72-6,.63.61,5.87-9.76,1v4.23l-9.76,1-.4-3.82,5.8-.88-.6-5.67,4-.74c-.06-1.21-.12-2.33-.19-3.79l9.78-1-.61-5.85,5.77-.61c0-1.39,0-2.63,0-4.21Z"/><path class="cls-1" d="M327.92,1039.74l-5.65.59a2.24,2.24,0,0,1-.37-.32.81.81,0,0,1-.19-.41c-1-9.59-2-19.17-3-28.93l5.87-.61-1.68-15.92,3.89-.41,2.05,19.56-3.57.76Z"/><path class="cls-1" d="M677.46,216.69l-9.6,1c-.29-1.86-.59-3.74-.91-5.79l-5.65.59-.75-4L641,210.58l-.63-6,25.55-2.69.6,5.72,4.05-.2.41,3.86,5.83-.61Z"/><path class="cls-1" d="M750,367.94l5.67-.59c1.13,6.8,1.55,13.7,2.33,20.55s1.47,13.85,2.22,21l-5.85.61Z"/><path class="cls-1" d="M214.37,1051.67l-3.79.4c.1,1.87.2,3.76.31,5.83l-5.68.6c-.26-1.68-.56-3.56-.88-5.6l-3.69.39-.62-4,3.87-.41-.63-6,6-.63-.65-6.11,10.09-1.06,1.23,11.74-5.93,1Z"/><path class="cls-1" d="M425.86,1152.12l-3.57.37-.8-3.8-5.7.6-.63-6-5.87.61-.42-4,5.72-.6-2.08-19.84,5.82-.61,2.47,23.51,4,0Z"/><path class="cls-1" d="M399.46,1052.33l-3.13-29.72,5.91-.62.61,5.8,5.84-.61.4,3.83-5.57.91,1,9.64,5.83-.3.61,5.84-5.72.6c0,1.21,0,2.45,0,4Z"/><path class="cls-1" d="M542,56.07l6-.62L551.65,91c-1.39.19-3,.44-4.55.64s-3.26.35-5.06.53l-.6-5.76,3.62-.74Z"/><path class="cls-1" d="M617.13,176.78l1,9.94-6,.63-.4-3.83-9.8,1-2.29-21.8,5.74-.6,1,9.66,4-.42.64,6Z"/><path class="cls-1" d="M412.43,737.15l-3.67.39-6.24-59.41,3.64-.59Z"/><path class="cls-1" d="M331.65,596.92l9.59-1c.29,1.85.6,3.73.92,5.77l5.69-.6,1,10,4-.42.63,6,5.88-.62.41,4-9.64,1-.4-3.79-6,.63-1.25-11.89-3.87.22-.39-3.7-6,.31Z"/><path class="cls-1" d="M768.86,490.46l-6-57.37,3.66-.38,6,57.37Z"/><path class="cls-1" d="M666.23,165.59l-3.46.36a2.88,2.88,0,0,1-.39-.3.87.87,0,0,1-.2-.41c-1.15-10.86-2.29-21.73-3.46-32.82l3.86-.41L664,145.58l6.08-.64,1.69,16-6,.63Z"/><path class="cls-1" d="M729.86,273.53l-5.76.6c-.3-1.83-.61-3.7-.94-5.75l-3.82.4.59,5.6-6,.63-2.28-21.69,5.92-.62.62,5.91,3.95-.42.63,5.93,6-.63Z"/><path class="cls-1" d="M753.86,214.87l.38,3.64,5.84-.33,1.65,15.65-5.69.6.41,3.9-4,.42c-.19-1.12-.37-2.23-.6-3.68l-5.76.61-.62-5.84,5.59-.59c.28-2.42-.28-4.67-.46-6.91s-.47-4.59-.73-7.05Z"/><path class="cls-1" d="M105.93,306.93l1.66,15.8-3.84.61,1.67,15.82-6.09.64-2.7-25.71,5.81-.61c-.12-2-.24-3.93-.37-6.15Z"/><path class="cls-1" d="M397.78,636.18l-5.61.59.55,5.26c-.26.36-.33.59-.45.61-1.09.21-2.19.39-3.46.6l-1-9.76,3.61-.77-2.67-25.43,6-.62Z"/><path class="cls-1" d="M420.91,1199.06l-.42-4,5.81-.88-.6-5.69,4-.72-1-9.61,5.94-.63,2.68,25.46-5.85.62-.59-5.61Z"/><path class="cls-1" d="M555.28,28.43l-15.66,1.65c-.26-1.19-.53-2.4-.86-3.93l-19.7,2.07-.62-6,25.72-2.7.61,5.81,10.08-1.06Z"/><path class="cls-1" d="M754,214.53l-2.27-21.61,9.6-1,2.27,21.61Z"/><path class="cls-1" d="M551.62,50.94l-3.82.4c-.29-1.86-.58-3.75-.89-5.8l-15.56,1.64-.63-6,5.65-.59-.41-4,9.83-1,.37,3.59c3.41.25,6.61-.68,10.19-.64l.61,5.81L551,45Z"/><path class="cls-1" d="M380.33,125.25l-5.33.56a2.88,2.88,0,0,1-.39-.3.79.79,0,0,1-.2-.41c-1.22-11.53-2.44-23.07-3.67-34.83l5.85-.61Z"/><path class="cls-1" d="M134.78,181.22l-5.65.6-1-9.83-5.89.62-2.09-19.89,5.69-.59,1.45,13.77,5.84-.61Z"/><path class="cls-1" d="M324.34,88.9l-3.76-35.8,6-.63,3.77,35.81Z"/><path class="cls-1" d="M516.49,193.39l19.48-2,.8,3.81,15.53-1.63.62,6-21.6,2.27-.61-5.82-13.8,1.45Z"/><path class="cls-1" d="M394.84,15.13l-15.56,1.64c.1,1.87.2,3.78.31,5.85l-5.65.59c0,1.4.06,2.65.1,4l-3.64.38-1-9.72,3.56-.55-.54-5.14a7.07,7.07,0,0,1,.45-.62.92.92,0,0,1,.41-.22l20.95-2.21Z"/><path class="cls-1" d="M613,137l1.45,13.8-5.86.62-1-9.71-3.95.42-1.06-10.07-6.1.64-1-9.83,5.88-.62.4,3.75,4-.2,1.24,11.84Z"/><path class="cls-1" d="M632.7,1013.74l.4,3.82-5.8.88.59,5.68-4,.72,1,9.62-5.94.62-2.07-19.64,5.84-.61-.63-6,4-.42.62,6Z"/><path class="cls-1" d="M91.11,165.88l4.77,45.4-3.82.61-1.67-15.84-6,.63-.42-4,5.81-.61-2.7-25.73Z"/><path class="cls-1" d="M249.78,106.62l1.05,10-5.81.89,1.21,11.59-4,.42L238.54,94.1l3.83-.4,1.42,13.55Z"/><path class="cls-1" d="M567.76,1123l1.47,13.93c-1.56.22-3.14.46-4.73.66s-3.26.35-4.73.5c-.29-.28-.5-.37-.52-.5-.12-1-.22-2-.35-3.25l3.81-.71-.6-5.77-3.74.39-2.5-23.74,3.54-.38a3.12,3.12,0,0,1,.42,1c.67,6.1,1.3,12.2,2,18.48Z"/><path class="cls-1" d="M380.53,1100.48l-5.95.62-3.12-29.64,5.63-.59.59,5.6,4,0,.38,3.61-3.63.73Z"/><path class="cls-1" d="M324.34,88.9l2.7,25.66,6-.29,1,9.81-5.72.6c-.26-1.19-.52-2.41-.82-3.79l-3.57.37-3.36-32Z"/><path class="cls-1" d="M451.47,1145.4,455,1145a2.54,2.54,0,0,1,.35.32.86.86,0,0,1,.19.41c1.23,11.55,2.44,23.1,3.67,34.84l-3.84.4c-.66-2.94-.65-6.22-1.22-9.73l-5.91.62-.61-5.8,5.94-.92Z"/><path class="cls-1" d="M404,1134.48l1,9.61-5.71.6,2.72,25.84-3.82.4c.07.06-.16,0-.17-.14-1-9.7-2.06-19.41-3.1-29.31l3.61-.37c-.1-2.06-.19-3.95-.29-6Z"/><path class="cls-1" d="M667.9,181.5l-.39-3.73-3.86,0-.58-5.56,3.77-.81-.61-5.78,6-.63-.42-4,5.92-.62c.44,3.17.68,6.39,1.09,9.77l-5.76.6c-.15,3.39.69,6.59.71,10.15Z"/><path class="cls-1" d="M224.2,552l.56,5.32a2.88,2.88,0,0,1-.3.39.91.91,0,0,1-.4.21l-28.87,3-.61-5.85Z"/><path class="cls-1" d="M319.55,43.32l.58,5.57-3.79.8,1,9.66-6,.63c.07,1.46.13,2.58.2,3.91l-3.78.4-1.42-13.52,3.65-.39c-.1-2.06-.19-4-.29-6Z"/><path class="cls-1" d="M43,838.42l-3.58.38-.8-3.8-5.69.59-.63-6-3.9.2-1.65-15.7,3.7-.39,1,9.78,5.84-.62.61,5.75,4,0Z"/><path class="cls-1" d="M346.72,780.18l-.37-3.57,3.79-.81-.59-5.68,10-1-.41-3.89,9.93-1,.39,3.7-3.82.41.62,5.84-9.71,1c0,1.39,0,2.63,0,4Z"/><path class="cls-1" d="M243.77,642.53c.17,1.64.36,3.46.55,5.27a3.52,3.52,0,0,0,.37.32.88.88,0,0,0,.44.12L276,645l.41,3.86L241,652.59c-.77-3-.68-6.29-1.26-9.64Z"/><path class="cls-1" d="M354.22,1063.12l-3.69.38c-1.12-6.8-1.55-13.7-2.32-20.56s-1.47-13.84-2.22-21l3.86-.4Z"/><path class="cls-1" d="M629.17,195.62l-1.45-13.73,5.77-.92-1.64-15.62,4.12-.65,2.1,19.93-3.78.4c-.15,3.22.69,6.42.71,10Z"/><path class="cls-1" d="M391.11,226.68l-9.86,1-.61-5.85-5.93.62-.41-3.88-4.14.08-.62-5.82,9.86-1,.61,5.81,4-.14.39,3.74,6.08-.64Z"/><path class="cls-1" d="M672.11,68.44l5.89-.62c.44,2.5.58,5.08.87,7.63s.56,5.24.87,8.19l-5.87.62,1,9.81-4.08.42L669.17,78.8l4-.42Z"/><path class="cls-1" d="M290.86,154.67l-5.62.59-2.7-25.67,5.62-.59Z"/><path class="cls-1" d="M773.44,745.56l6-.63,2.71,25.86-6,.62Z"/><path class="cls-1" d="M454.8,929.78l-5.67.59-2.68-25.51,5.67-.6Z"/><path class="cls-1" d="M342.19,199.72,367.71,197l.62,5.89-25.52,2.68Z"/><path class="cls-1" d="M493.05,853.62l1,9.68-21.51,2.26-.6-5.72,15.43-1.63c0-1.35,0-2.59,0-4Z"/><path class="cls-1" d="M163.08,122l5.64-.6,2.68,25.51-5.63.59Z"/><path class="cls-1" d="M214.37,1051.67l5.42-.57a2.37,2.37,0,0,1,.4.28.77.77,0,0,1,.22.39q1.34,12.57,2.65,25.13l-5.42.57a2.14,2.14,0,0,1-.39-.28.83.83,0,0,1-.23-.39Q215.69,1064.23,214.37,1051.67Z"/><path class="cls-1" d="M341.67,195.5l-.59-5.62,25.49-2.68.59,5.63Z"/><path class="cls-1" d="M480.35,1228.84l.58,5.51c-.09.09-.19.23-.31.33a.86.86,0,0,1-.42.2c-8.24.88-16.49,1.74-25.08,2.64l-.63-6Z"/><path class="cls-1" d="M475.88,937.54,473.2,912l3.82-.6,1,9.87,6-.63.63,6-5.81.61,1,9.83Z"/><path class="cls-1" d="M652.13,605.47l9.84-1c.21,1.34.38,2.43.6,3.86l3.78-.4.63,5.93,6.07-.64.44,4.11-9.84,1c-.21-1.34-.38-2.44-.6-3.86l-5.75.61-.62-5.84-4.15,0Z"/><path class="cls-1" d="M432,1151.3l-1.42-13.52,3.81-.8-1-9.56,6-.62,1.44,13.64-5.82.61,1,9.82Z"/><path class="cls-1" d="M736,236.68l.39,3.73-3.93.86.61,5.77-5.78.61c-.3-1.85-.59-3.73-.92-5.77l-5.68.6c-.24-1.72-.48-3.3-.67-4.89s-.35-3.25-.56-5.21l6-.62.63,6Z"/><path class="cls-1" d="M361.81,923.73l1,9.62-5.81.88,1,9.61-4,.42-1.65-15.64,3.83-.4-.4-3.86Z"/><path class="cls-1" d="M431.1,1009l-.63-6c1.54-.22,3.1-.47,4.67-.66s3.26-.35,5.07-.54l2.29,21.74-3.66.39-1.64-15.62Z"/><path class="cls-1" d="M317.47,1153.62l1.64,15.62-9.59,1-1-9.67,5.59-.58c-.13-2-.24-3.93-.37-6Z"/><path class="cls-1" d="M68.41,485.65,67,472.07l5.81-.9-.59-5.62,4-.42,1,9.67-3.83.4,1,9.82Z"/><path class="cls-1" d="M162.57,214.37l-.59-5.61c3.08-.89,6.38-.65,9.85-1.41l-.39-3.73,5.83-.61,1,9.71Z"/><path class="cls-1" d="M41.2,571.14l-2.09-19.89,6-.63,2.09,19.89Z"/><path class="cls-1" d="M283.36,175.79l19.6-2.06.6,5.63L284,181.42Z"/><path class="cls-1" d="M219.54,162.1l-2.06-19.61,5.63-.59,2.06,19.61Z"/><path class="cls-1" d="M303.47,579.94l.59,5.64-19.54,2.06-.6-5.65Z"/><path class="cls-1" d="M447,128.3l-5.65.59c-1.12-6.43-1.43-13-2.29-19.66l5.87-.61Z"/><path class="cls-1" d="M338.84,1048.48l-3.1-29.54,3.65-.38,3.1,29.53Z"/><path class="cls-1" d="M312.38,1143.85l-5.64.59-2.05-19.54,5.64-.6Z"/><path class="cls-1" d="M154.14,132.68l-2.06-19.54,5.64-.59,2.06,19.54Z"/><path class="cls-1" d="M450.53,1232.1l.59,5.65c-6.43,1.11-13,1.43-19.65,2.29l-.62-5.87Z"/><path class="cls-1" d="M773.82,309.13l-2.09-19.89,6-.63,2.09,19.89Z"/><path class="cls-1" d="M592.91,1074.07l-2.06-19.61,5.63-.59,2.07,19.6Z"/><path class="cls-1" d="M488.18,77.56l-1.65-15.63,9.6-1,.6,5.72-3.62.38,1.05,9.91Z"/><path class="cls-1" d="M645.74,163.62l-3.64.38L639,134.46l3.61-.62Z"/><path class="cls-1" d="M420.42,907.34l-.63-5.93,5.93-.62-.41-3.91,3.83-.41,2.08,19.79-3.79.4-1.05-9.94Z"/><path class="cls-1" d="M260.05,204.26l9.84-1c.2,1.34.37,2.43.59,3.85l5.88-.62.64,6.08-11.81,1.24-.6-5.74-4.14,0Z"/><path class="cls-1" d="M679.28,1055.09,677,1033.36l3.85-.41,1.24,11.8,6.1-.65.43,4.09-6,.64.62,5.85Z"/><path class="cls-1" d="M570.23,859.42l5.9-.62.62,5.89,4-.43,1.06,10-3.78.4c-.23-1.17-.47-2.37-.77-3.9l-5.81.62Z"/><path class="cls-1" d="M515,927.74l2.68,25.51-3.58.38c.07.06-.16,0-.17-.16-.9-8.38-1.78-16.77-2.68-25.33Z"/><path class="cls-1" d="M311.21,96.41l3.66-.39,2.69,25.6-3.63.59Z"/><path class="cls-1" d="M363.05,897.28l2.72,25.86-4,.42-2.72-25.86Z"/><path class="cls-1" d="M229.13,1076.1l-2.69-25.56,3.65-.39,2.69,25.56Z"/><path class="cls-1" d="M647.68,121.38l3.64-.39L654,146.57l-3.61.61Z"/><path class="cls-1" d="M306.88,1088.29l3.64-.38,2.69,25.59-3.62.6Z"/><path class="cls-1" d="M581.9,530.4l9.85-1c.2,1.34.37,2.44.58,3.85l5.89-.62.64,6.08-10,1.05-.61-5.84-6,.32Z"/><path class="cls-1" d="M106.17,117.87l-1-9.85,5.83-.61-.64-6.07,4.12-.43,1,9.84-3.85.59.62,5.89Z"/><path class="cls-1" d="M323.29,901.64l.59,5.64-5.81.88.38,3.64-9.95,1.05-.39-3.71,5.83-.61-.62-5.84Z"/><path class="cls-1" d="M533.79,664.16l9.54-1,.8,3.81,5.58-.59.63,6-9.67,1-.61-5.82-5.85.61Z"/><path class="cls-1" d="M533.62,664.18l-9.83,1-.61-5.75-4.13.06-.4-3.82,9.84-1,.4,3.8,4.12-.12Z"/><path class="cls-1" d="M353.16,55.57l-1-9.7,9.59-1,1,9.7Z"/><path class="cls-1" d="M584.66,1151.51l-9.53,1c-.25-1.2-.51-2.42-.81-3.81l-3.58.37-.63-6,9.52-1,.59,5.59h4Z"/><path class="cls-1" d="M260.05,204.26l-9.85,1-.61-5.83-6.07.63-.43-4.11,9.84-1c.21,1.33.37,2.43.59,3.85l5.89-.62Z"/><path class="cls-1" d="M326.91,593.4l-9.61,1c-.28-1.86-.57-3.76-.89-5.81l-5.65.59c-.15-.75-.3-1.34-.4-2s-.14-1.26-.22-2l9.9-1,.4,3.83,5.84-.61Z"/><path class="cls-1" d="M391.11,226.68l9.84-1,.4,3.81,4.11-.12.62,5.83-9.83,1-.61-5.75-4.13.06Z"/><path class="cls-1" d="M546.9,101.71l5.9-.62.62,5.89,4-.43,1.06,10-4,.41-.61-5.79-6,.33Z"/><path class="cls-1" d="M467.55,73.85l1.67,15.91-6,.63-1.68-15.91Z"/><path class="cls-1" d="M453.32,1010.64l1.63,15.57-5.76.61a72.15,72.15,0,0,1-.91-7.53c-.32-2.62-.56-5.24-.85-8Z"/><path class="cls-1" d="M734.49,319.2l-5.63.59-1.63-15.55,5.62-.59Z"/><path class="cls-1" d="M451.34,1145.42l-5.76.6c-.44-2.49-.58-5.07-.87-7.62s-.56-5.24-.86-8.07l5.84-.62Z"/><path class="cls-1" d="M345.77,925.4,347.41,941l-5.63.59L340.14,926Z"/><path class="cls-1" d="M459.28,90.81l-5.82.61a67.58,67.58,0,0,1-.95-7.69c-.32-2.62-.56-5.25-.87-8.21l6-.62Z"/><path class="cls-1" d="M631,597.5l-15.64,1.65-.59-5.63,15.63-1.64Z"/><path class="cls-1" d="M505.74,188.49l-15.91,1.67-.63-6,15.92-1.67Z"/><path class="cls-1" d="M393.51,1131.29l-5.63.59-1.63-15.54,5.62-.59Z"/><path class="cls-1" d="M398.79,205.63l-15.63,1.65-.59-5.63L398.2,200Z"/><path class="cls-1" d="M547.64,1083.1l5.66-.59,1.63,15.56-5.65.6Z"/><path class="cls-1" d="M454,193.92l.61,5.82a67.58,67.58,0,0,1-7.69.95c-2.62.32-5.25.56-8.21.87l-.62-6Z"/><path class="cls-1" d="M403.44,744.31l5.65-.59,1.64,15.57-5.65.59Z"/><path class="cls-1" d="M584.79,117.84l6-.63,1.67,15.91-6,.63Z"/><path class="cls-1" d="M636,1043.56l5.77-.61c.44,2.5.58,5.08.87,7.63s.56,5.24.85,8.07l-5.84.61Z"/><path class="cls-1" d="M517,794.63l-5.77.6c-.44-2.49-.58-5.07-.87-7.62s-.56-5.24-.85-8.07l5.84-.61Z"/><path class="cls-1" d="M260.77,1093l-5.62.59L253.51,1078l5.63-.59Z"/><path class="cls-1" d="M463.55,1067.46l-1.64-15.57,5.64-.59,1.63,15.57Z"/><path class="cls-1" d="M372.92,53.63l-5.82.61a67.3,67.3,0,0,1-1-7.69c-.32-2.62-.56-5.25-.87-8.2l6-.63Z"/><path class="cls-1" d="M785.94,462.7l-6,.63-1.67-15.91,6-.63Z"/><path class="cls-1" d="M274.49,1127.71l-5.65.6-1.63-15.57,5.65-.59Z"/><path class="cls-1" d="M334.54,1161.71l5.81-.61a67.75,67.75,0,0,1,.95,7.7c.33,2.61.56,5.24.88,8.2l-6,.63Z"/><path class="cls-1" d="M38.45,448.59,36.81,433l5.77-.6a71.82,71.82,0,0,1,.91,7.53c.32,2.62.56,5.24.85,8Z"/><path class="cls-1" d="M360,1155l1.64,15.64-6,.63L354,1155.65Z"/><path class="cls-1" d="M451.35,1047l5.63-.59,1.64,15.56-5.64.6Z"/><path class="cls-1" d="M787.34,571l-2.26-21.53,3.74-.39c1.11,7,1.54,14.17,2.45,21.51Z"/><path class="cls-1" d="M387.56,1168l-2.26-21.53,3.74-.4c1.1,7,1.54,14.18,2.45,21.52Z"/><path class="cls-1" d="M32.24,294.56l-1.05-9.94,10-1.05.62,6-4,.42.41,4Z"/><path class="cls-1" d="M603.48,928.32l-5.59.59c-.74-2.1-.63-4.4-.93-6.61s-.49-4.58-.76-7.08l5.84-.61Z"/><path class="cls-1" d="M456.7,1195.13l3.77-.4c0-1.19,0-2.41-.05-3.82l5.82-.62,1,9.76-9.95,1Z"/><path class="cls-1" d="M90.36,942l5.6-.58c.74,2.1.63,4.4.93,6.61s.49,4.57.75,7.07l-5.83.62Z"/><path class="cls-1" d="M746.14,332l-1.43-13.59,5.64-.6,1.43,13.59Z"/><path class="cls-1" d="M440.75,10.17l-.59-5.59c2.11-.74,4.4-.63,6.61-.93s4.58-.49,7.08-.76l.61,5.84Z"/><path class="cls-1" d="M325.49,788.62l-1.05-10,11.94-1.25.4,3.8-5.94.93.61,5.84Z"/><path class="cls-1" d="M488.07,77.73l.4,3.81c-1.56.22-3.14.46-4.72.66s-3.26.35-5.21.55l-1.46-13.92,3.77-.4c.82,3.11.66,6.42,1.38,9.91Z"/><path class="cls-1" d="M542.58,940.76l-3.92.41c-.83-6.61-1.42-13.25-2.15-19.88l3.91-.42C541.26,927.48,541.85,934.13,542.58,940.76Z"/><path class="cls-1" d="M360.08,1154.84l-2.06-19.6,3.64-.38,2.06,19.6Z"/><path class="cls-1" d="M325.53,675.91l-11.59,1.22-.6-5.77c1.71-.22,3.62-.47,5.53-.69s3.92-.42,6.05-.64Z"/><path class="cls-1" d="M426,1152.1l6-.63,1.23,11.67-6,.63Z"/><path class="cls-1" d="M670.3,531l-11.67,1.23-.59-5.63,11.67-1.22Z"/><path class="cls-1" d="M550.28,173.62l-11.66,1.22-.6-5.62L549.69,168Z"/><path class="cls-1" d="M673.49,617.3l6-.63,1.26,11.94-6,.63Z"/><path class="cls-1" d="M325.53,921.43l3.66-.39,1.64,15.66-3.63.58Z"/><path class="cls-1" d="M780,252.17l3.79-.4c.43,2.5.58,5.08.87,7.63s.55,5.23.86,8.18c-.65.11-1.25.21-1.86.29s-1.24.13-2,.21Z"/><path class="cls-1" d="M778.18,447.43l-3.78.4c-.44-2.5-.58-5.08-.87-7.64S773,435,772.66,432c.66-.1,1.26-.21,1.86-.28s1.25-.14,2-.21Z"/><path class="cls-1" d="M280.11,109.64l-3.36.35c-.1-.08-.32-.18-.33-.31-.55-5.07-1.08-10.14-1.63-15.39l3.66-.39C279.27,99,279.79,104.31,280.11,109.64Z"/><path class="cls-1" d="M376.89,1030.48l-3.66.38-1.65-15.66,3.64-.58Z"/><path class="cls-1" d="M275.59,1194.05l1.66,15.73-4,.65-1.67-16Z"/><path class="cls-1" d="M40.32,504.69l-1.63-15.56,3.59-.38c-.08-.06.15,0,.16.16.55,5.07,1.08,10.14,1.63,15.39Z"/><path class="cls-1" d="M336.1,1177.8l1.65,15.63-3.65.38-1.64-15.63Z"/><path class="cls-1" d="M324.4,1102.29l-1-9.67,9.58-1,.39,3.73-5.59.59.62,5.94Z"/><path class="cls-1" d="M301,117.4l-3.64.38-1.64-15.62,3.61-.62Z"/><path class="cls-1" d="M150,1012l-1.63-15.56,3.59-.38c-.08-.06.15,0,.16.16.55,5.07,1.08,10.14,1.63,15.39Z"/><path class="cls-1" d="M297.16,1187.6,295.52,1172l3.64-.39,1.64,15.63Z"/><path class="cls-1" d="M249.91,70.75l1.64,15.62-3.64.38-1.64-15.62Z"/><path class="cls-1" d="M571.76,1122.7l-4,.42-1.65-15.73,4-.64Z"/><path class="cls-1" d="M488.21,1207.9l-.41-3.83a67.74,67.74,0,0,1,7.7-.94c2.61-.33,5.24-.57,8.2-.88l.42,4Z"/><path class="cls-1" d="M781.94,483.23l-3.78.4c-.43-2.5-.58-5.08-.87-7.64s-.56-5.23-.85-8.06l3.85-.4Z"/><path class="cls-1" d="M30,407.41l-5.79.61c-.21-1.54-.46-3.11-.65-4.69s-.35-3.26-.54-5.06l5.92-.62C29.37,400.78,29.67,404.1,30,407.41Z"/><path class="cls-1" d="M560.38,918.78l6-.63,1,9.94-6,.63Z"/><path class="cls-1" d="M495.34,929.72l5.62-.59,1,9.59-5.62.59Z"/><path class="cls-1" d="M691.78,102.57l-6,.63-1-10,6-.63Z"/><path class="cls-1" d="M395.34,1012.37l-1-9.61,5.64-.59,1,9.61Z"/><path class="cls-1" d="M604.53,650.86l.59,5.64-9.6,1-.59-5.64Z"/><path class="cls-1" d="M341.54,539.57l9.95-1,.63,6-9.95,1Z"/><path class="cls-1" d="M738.16,296.7l-5.63.59-1-9.59,5.63-.59Z"/><path class="cls-1" d="M626.11,1008.4l-1-9.68,6-.63,1,9.68Z"/><path class="cls-1" d="M447.13,128.28l6-.62,1,9.94-6,.63Z"/><path class="cls-1" d="M632.07,1007.77l9.68-1,.63,6-9.68,1Z"/><path class="cls-1" d="M246.71,1054.46l1,9.68-5.63.59-1-9.68Z"/><path class="cls-1" d="M777.82,288.44l-1-9.68,5.62-.59,1,9.68Z"/><path class="cls-1" d="M640.9,1032.85l-.61-5.73,9.59-1,.6,5.73Z"/><path class="cls-1" d="M453.69,39l-5.73.6L447,30l5.74-.61Z"/><path class="cls-1" d="M505.74,188.49l10-1.05.63,6-10,1Z"/><path class="cls-1" d="M337.66,159.82l-5.64.59-1-9.6,5.63-.59Z"/><path class="cls-1" d="M244.58,57.07l1,9.68-6,.62-1-9.68Z"/><path class="cls-1" d="M517.31,547.24l-6,.63-1-9.94,6-.63Z"/><path class="cls-1" d="M324.17,1102.63l1,9.68-5.63.59-1-9.68Z"/><path class="cls-1" d="M390.81,1105.52l-5.64.6c-.22-1.55-.46-3.12-.66-4.7s-.35-3.26-.53-5.06l5.82-.61c.21,1.54.48,3.27.66,5C390.63,1102.36,390.7,1104,390.81,1105.52Z"/><path class="cls-1" d="M593.85,1084.18l-5.8.61c-.22-1.55-.46-3.12-.66-4.7s-.34-3.26-.55-5.22l6-.63Z"/><path class="cls-1" d="M257.25,1113.61l5.64-.59,1,9.6-5.63.59Z"/><path class="cls-1" d="M584.18,1089.07l-5.74.6-1-9.58,5.74-.6Z"/><path class="cls-1" d="M277.17,212.65l9.68-1,.59,5.62-9.68,1Z"/><path class="cls-1" d="M691.4,539l-9.95,1-.62-6,9.94-1.05Z"/><path class="cls-1" d="M230.89,78.48l-.6-5.74,9.58-1,.6,5.73Z"/><path class="cls-1" d="M438,195.48l-9.68,1-.59-5.62,9.68-1Z"/><path class="cls-1" d="M296.82,1145.65l5.63-.59,1,9.6-5.63.6Z"/><path class="cls-1" d="M536.43,1130.27l-1-9.61,5.72-.6c.2,1.38.44,3,.63,4.54s.35,3.25.54,5.05Z"/><path class="cls-1" d="M205.48,184l.6,5.74-9.58,1-.61-5.74Z"/><path class="cls-1" d="M292.41,1202.47l.61,5.74-9.59,1-.6-5.74Z"/><path class="cls-1" d="M450.73,1195.76l-1-9.69,6-.62,1,9.68Z"/><path class="cls-1" d="M420.76,1199l.6,5.74-9.58,1-.61-5.73Z"/><path class="cls-1" d="M64.69,297.18l1,9.95-6,.63-1.05-9.95Z"/><path class="cls-1" d="M29.93,310.89l-6,.63-1-9.94,6-.63Z"/><path class="cls-1" d="M652.13,605.47l-9.94,1-.63-6,9.94-1Z"/><path class="cls-1" d="M441.58,76.73l1,9.68L437,87l-1-9.68Z"/><path class="cls-1" d="M288.67,191.06l-9.68,1-.59-5.62,9.68-1Z"/><path class="cls-1" d="M631.28,62.68l-.61-5.8c1.55-.22,3.13-.47,4.71-.66s3.26-.35,5.22-.56l.63,6Z"/><path class="cls-1" d="M337.51,652.7l9.61-1,.61,5.73c-1.39.19-3,.43-4.55.63s-3.26.34-5.05.53Z"/><path class="cls-1" d="M19,702.27l5.63-.59,1,9.6-5.63.59Z"/><path class="cls-1" d="M387.31,0l.59,5.64-9.6,1L377.71,1Z"/><path class="cls-1" d="M552.23,841.2l6-.62,1,9.94-6,.63Z"/><path class="cls-1" d="M221.66,912.05l-5.65.6L215,903l5.65-.59Z"/><path class="cls-1" d="M375.79,232.39l9.61-1,.6,5.73c-1.39.2-3,.44-4.55.63s-3.25.35-5,.54Z"/><path class="cls-1" d="M117,259.51l1,9.94-6,.63-1.05-9.95Z"/><path class="cls-1" d="M593.61,889.29l5.74-.6,1,9.58-5.74.61Z"/><path class="cls-1" d="M230,108.71l-1.44-13.64,3.65-.38,1.43,13.64Z"/><path class="cls-1" d="M357,1089.14l1.43,13.63-3.64.39-1.44-13.64Z"/><path class="cls-1" d="M168,171.61l-3.64.38-1.43-13.65,3.61-.6Z"/><path class="cls-1" d="M749.72,368l-3.62.38c-.72-2.12-.63-4.41-.92-6.62s-.5-4.57-.76-7.07l3.86-.4Z"/><path class="cls-1" d="M94.64,237.73l.42,4L83.12,243l-.42-4Z"/><path class="cls-1" d="M536.59,155.21,548.25,154l.38,3.64L537,158.85Z"/><path class="cls-1" d="M616.93,136.58l-4,.42-1.24-11.75,4-.65Z"/><path class="cls-1" d="M406.25,235.27,417.9,234l.38,3.65-11.65,1.22Z"/><path class="cls-1" d="M681.13,632.59l-.42-4,9.76-1c.19,1.19.39,2.4.64,4Z"/><path class="cls-1" d="M584.66,117.85l-3.67.39c-.22-1.53-.47-3.08-.66-4.64s-.35-3.24-.54-5.08l3.85-.4Z"/><path class="cls-1" d="M465.66,17.61l-.38-3.68c1.52-.21,3.07-.46,4.63-.65s3.25-.35,5.08-.54l.41,3.85Z"/><path class="cls-1" d="M617.13,176.78l-1-9.95,4-.41,1.05,9.94Z"/><path class="cls-1" d="M793.56,630.83l-1-10,4-.42,1,9.95Z"/><path class="cls-1" d="M271.24,1154.2l-3.65.39-1-9.69,3.63-.59Z"/><path class="cls-1" d="M641.56,600.55l-9.95,1-.41-4,9.94-1Z"/><path class="cls-1" d="M431.63,1111.2l-3.66.39-1-9.7,3.64-.58Z"/><path class="cls-1" d="M672.54,227.14l-9.67,1-.38-3.64,9.67-1Z"/><path class="cls-1" d="M498.14,20.49l.39,3.68c-1.52.21-3.08.46-4.63.65s-3.25.35-5.09.54l-.4-3.85Z"/><path class="cls-1" d="M422,1019.7l-3.66.39-1-9.7,3.64-.57Z"/><path class="cls-1" d="M333.29,1055.42l1,9.67-3.64.38-1-9.67Z"/><path class="cls-1" d="M680.83,534.08l-10,1-.42-4,9.95-1Z"/><path class="cls-1" d="M25.22,800.15l3.64-.38,1,9.68-3.62.6Z"/><path class="cls-1" d="M592.43,133.12l4-.42,1,9.77-4,.64Z"/><path class="cls-1" d="M109.85,189.88l3.68-.39c.21,1.52.46,3.07.65,4.63s.35,3.25.54,5.09l-3.85.4Z"/><path class="cls-1" d="M215.38,1097.91l3.65-.39,1,9.7-3.63.58Z"/><path class="cls-1" d="M408,826.2l3.67-.39c.22,1.52.47,3.08.66,4.63s.35,3.25.54,5.09l-3.85.4Z"/><path class="cls-1" d="M424.29,5.83l-.38-3.64,9.68-1,.6,3.62Z"/><path class="cls-1" d="M59.66,307.93l1,9.66L57,318l-1-9.67Z"/><path class="cls-1" d="M230.64,78.8l1,9.67-3.64.38-1-9.67Z"/><path class="cls-1" d="M489.88,1223.82l.42,4-9.95,1-.42-4Z"/><path class="cls-1" d="M151.61,205.73l.38,3.68c-1.52.21-3.07.46-4.63.65s-3.25.35-5.08.54l-.41-3.85Z"/><path class="cls-1" d="M238.53,1069.34l3.63-.39,1,9.67-3.61.61Z"/><path class="cls-1" d="M327.75,1039.76l4-.42,1,9.94-4,.42Z"/><path class="cls-1" d="M568.61,155.23l-.31-3c.1-.13.19-.36.3-.38,3.09-.34,6.17-.66,9.43-1l.37,3.48C577.9,155,573.24,155.53,568.61,155.23Z"/><path class="cls-1" d="M457.61,74.9l-1.05-10,4-.42,1,10Z"/><path class="cls-1" d="M747.36,285.76l3.68-.38c.22,1.52.46,3.07.66,4.63s.34,3.25.54,5.08l-3.85.41Z"/><path class="cls-1" d="M352.6,13.41l-.38-3.68c1.52-.22,3.07-.46,4.63-.66s3.25-.34,5.08-.54l.41,3.85Z"/><path class="cls-1" d="M810.24,443.9l-1-9.67,3.64-.38,1,9.67Z"/><path class="cls-1" d="M249.91,106.62l-1-9.67,3.64-.38,1,9.67Z"/><path class="cls-1" d="M792.39,333.49l1,9.6-3.59.38c.07.07-.14,0-.16-.15-.34-3.09-.66-6.18-1-9.44Z"/><path class="cls-1" d="M45.18,550.45l-1-9.66,3.64-.39,1,9.67Z"/><path class="cls-1" d="M183.91,206.05l-.39-3.63,9.68-1c.17,1,.37,2.22.6,3.61Z"/><path class="cls-1" d="M288.84,191.17l9.94-1,.42,4-9.95,1Z"/><path class="cls-1" d="M548.19,1185.51l-1-9.94,4-.42,1,9.94Z"/><path class="cls-1" d="M566.46,192.16l-9.94,1.05-.42-4,9.94-1Z"/><path class="cls-1" d="M546.83,1135.54l1,9.66-3.64.39-1-9.67Z"/><path class="cls-1" d="M609.19,101.2l-1-9.77,4-.64,1,10Z"/><path class="cls-1" d="M331.18,536.64l9.94-1,.42,4-9.94,1Z"/><path class="cls-1" d="M685.64,1018.32l3.64-.39,1,9.69-3.62.59Z"/><path class="cls-1" d="M400.08,903.53l5.63-.59.59,5.63-5.63.59Z"/><path class="cls-1" d="M288.08,32.24l-5.72.6-.59-5.61,5.72-.6Z"/><path class="cls-1" d="M440.64,10.46l.6,5.72-5.62.59-.6-5.72Z"/><path class="cls-1" d="M730.15,277.66l.6,5.72-5.61.59-.6-5.72Z"/><path class="cls-1" d="M360.13,29l.6,5.71-5.61.59-.6-5.71Z"/><path class="cls-1" d="M503,162.63l.6,5.7-6,.63-.6-5.7Z"/><path class="cls-1" d="M487,164.47l.6,5.65-5.63.59-.6-5.65Z"/><path class="cls-1" d="M706.52,547.61l5.72-.6.59,5.61-5.72.6Z"/><path class="cls-1" d="M379.88,175.66l5.64-.59.59,5.63-5.64.59Z"/><path class="cls-1" d="M57.7,328l-5.63.59L51.48,323l5.63-.59Z"/><path class="cls-1" d="M477.42,32.45l-.6-5.72,5.61-.59.61,5.72Z"/><path class="cls-1" d="M508.94,29.2l-5.63.59-.59-5.63,5.63-.59Z"/><path class="cls-1" d="M411.46,861.94l-5.64.6-.6-5.63,5.65-.6Z"/><path class="cls-1" d="M484.43,41.77l-.6-5.72,5.62-.59.6,5.72Z"/><path class="cls-1" d="M346,925.08l-.61-5.72,5.62-.59.6,5.72Z"/><path class="cls-1" d="M367.44,939.05l-.6-5.7,6-.63.6,5.71Z"/><path class="cls-1" d="M536.35,921.16l-5.71.6-.59-5.62,5.71-.6Z"/><path class="cls-1" d="M41.14,283.57l-.63-6,6-.63.62,6Z"/><path class="cls-1" d="M571.94,931.78l5.72-.6.59,5.61-5.72.61Z"/><path class="cls-1" d="M451.68,954.42l5.63-.6.59,5.63-5.63.6Z"/><path class="cls-1" d="M584.7,940.52l.59,5.63-5.62.6-.6-5.64Z"/><path class="cls-1" d="M511,49.09l-5.63.59-.59-5.63,5.63-.59Z"/><path class="cls-1" d="M485.51,52l5.72-.6.59,5.61-5.72.6Z"/><path class="cls-1" d="M246.12,1008l-.6-5.72,5.62-.59.6,5.72Z"/><path class="cls-1" d="M277.74,83.75l5.51-.58.61,5.79-5.5.58A17.16,17.16,0,0,1,277.74,83.75Z"/><path class="cls-1" d="M526.93,63.44l-.6-5.71,5.62-.59.6,5.71Z"/><path class="cls-1" d="M322.55,799l-5.7.6-.63-6,5.71-.6Z"/><path class="cls-1" d="M629.79,201.59l-5.7.6-.63-6,5.71-.6Z"/><circle class="cls-1" cx="433.56" cy="219.2" r="4.24"/><path class="cls-1" d="M416.34,218l.63,6-6,.63-.63-6Z"/><path class="cls-1" d="M702.63,990.24l.6,5.76-5.79.61-.58-5.5C698.62,990.45,700.66,990.67,702.63,990.24Z"/><path class="cls-1" d="M429.22,206.59l5.7-.6.63,6-5.71.6Z"/><path class="cls-1" d="M623.88,89.51l-5.63.6-.59-5.63,5.62-.59Z"/><path class="cls-1" d="M372.08,886.14l-.6-5.72,5.61-.59.6,5.72Z"/><path class="cls-1" d="M333.4,1055.25l-.63-6,6-.62.63,6Z"/><circle class="cls-1" cx="344.07" cy="783.65" r="4.24"/><path class="cls-1" d="M177.92,150.72l.59,5.63-5.63.59-.59-5.63Z"/><path class="cls-1" d="M573.73,109.11l.6,5.64-5.63.59-.6-5.64Z"/><path class="cls-1" d="M677.63,216.67l6-.62.63,6-6,.63Z"/><path class="cls-1" d="M635.84,1043.57l-5.71.6-.63-6,5.71-.59Z"/><path class="cls-1" d="M409,204.54l-.6-5.72,5.62-.59.6,5.72Z"/><circle class="cls-1" cx="404.57" cy="823.54" r="4.24"/><path class="cls-1" d="M582,874.42l5.72-.61.59,5.62-5.72.6Z"/><path class="cls-1" d="M455.58,841.45l.6,5.72-5.61.59L450,842Z"/><path class="cls-1" d="M685.77,1078.55l5.7-.6.63,6-5.71.6Z"/><path class="cls-1" d="M539.54,184.74l-.58-5.51,5.79-.61.58,5.5A17.16,17.16,0,0,1,539.54,184.74Z"/><path class="cls-1" d="M441.41,225.56l5.72-.6.59,5.61-5.72.6Z"/><path class="cls-1" d="M677.49,1095.5l.63,6-6,.63-.62-6Z"/><circle class="cls-1" cx="156.35" cy="222.19" r="4.24"/><path class="cls-1" d="M348.82,168.78l.6,5.71-6,.62-.6-5.7Z"/><path class="cls-1" d="M420.43,161.26l.63,6-6,.63-.63-6Z"/><path class="cls-1" d="M518.49,655.57l-5.71.6-.59-5.61,5.71-.6Z"/><path class="cls-1" d="M222.81,922.25l.59,5.63-5.62.59-.59-5.63Z"/><path class="cls-1" d="M668.47,1106.65l.6,5.72-5.62.59-.6-5.72Z"/><path class="cls-1" d="M547.07,1135.21l-.6-5.72,5.62-.59.6,5.72Z"/><path class="cls-1" d="M523.83,170.64l.61,5.72-5.62.59-.6-5.72Z"/><path class="cls-1" d="M323.61,521.18l-.6-5.64,5.63-.59.6,5.64Z"/><circle class="cls-1" cx="81.28" cy="292.42" r="4.24"/><path class="cls-1" d="M781.59,324.25l-.6-5.71,5.61-.59.6,5.71Z"/><circle class="cls-1" cx="676.01" cy="229.92" r="4.24"/><path class="cls-1" d="M547.67,837.52l-5.72.6-.59-5.62,5.72-.6Z"/><path class="cls-1" d="M478.66,181.2l-5.63.59-.59-5.63,5.63-.59Z"/><path class="cls-1" d="M443,1162.38l-5.5.58-.61-5.79,5.5-.58A17.17,17.17,0,0,1,443,1162.38Z"/><path class="cls-1" d="M459.37,187.33l.63,6-6,.62-.63-6Z"/><path class="cls-1" d="M643,518.15l.58,5.5-5.79.61-.58-5.5A17.17,17.17,0,0,1,643,518.15Z"/><path class="cls-1" d="M299.36,194.23l5.71-.6.59,5.62-5.71.6Z"/><path class="cls-1" d="M584.84,1151.49l5.7-.6.63,6-5.7.6Z"/><path class="cls-1" d="M344.66,915.22l-5.63.6-.59-5.63,5.62-.59Z"/><path class="cls-1" d="M460.19,2.32l3.66-.39.61,5.73-3.65.56Z"/><path class="cls-1" d="M630.47,1146.85l.6,5.7-3.64.39-.6-5.71Z"/><path class="cls-1" d="M325.08,38.55l-.63-6,4-.42.63,6Z"/><path class="cls-1" d="M465.56,17.9l.6,5.71-3.64.38-.6-5.71Z"/><path class="cls-1" d="M498.25,20.2l-.6-5.71,3.63-.38.6,5.71Z"/><path class="cls-1" d="M319.53,43.15l-.42-4,6-.63.42,4Z"/><path class="cls-1" d="M243.75,642.36l-.42-4,5.79-.61c.19,1.19.39,2.41.64,4Z"/><path class="cls-1" d="M706.56,147.47l.37,3.52-5.8.61-.37-3.53A17.49,17.49,0,0,1,706.56,147.47Z"/><path class="cls-1" d="M518.27,22.13l-5.7.6-.38-3.63,5.7-.6Z"/><path class="cls-1" d="M518.93,28.37l.39,3.74-5.61.59L513.32,29Z"/><path class="cls-1" d="M559.89,34l-4,.42-.63-6,4-.42Z"/><path class="cls-1" d="M170,75l.42,4-6,.63-.42-4Z"/><path class="cls-1" d="M215.65,70.3,216,74l-5.6.59-.4-3.74Z"/><path class="cls-1" d="M352.9,55.87l.39,3.75-5.61.59-.39-3.75Z"/><path class="cls-1" d="M560.05,34.1l5.71-.6.38,3.63-5.71.6Z"/><path class="cls-1" d="M513.46,167.7l.4,3.74-5.61.59-.39-3.74Z"/><path class="cls-1" d="M413.6,59.26l-3.75.39-.59-5.6,3.75-.4Z"/><path class="cls-1" d="M461.92,213.07l-5.7.6-.38-3.64,5.7-.6Z"/><path class="cls-1" d="M370.15,83.92l-.38-3.64,5.54-.59c-.07,0,.16,0,.18.15.21,1.09.38,2.18.59,3.46Z"/><path class="cls-1" d="M513.48,69.11l3.64-.38.58,5.54c0-.08,0,.14-.14.17-1.09.2-2.18.38-3.46.59Z"/><path class="cls-1" d="M539.72,72.47l.38,3.64-5.72.61c-.16-1-.36-2.24-.58-3.63Z"/><path class="cls-1" d="M498.37,80.83l.59,5.64-3.65.38-.59-5.63Z"/><path class="cls-1" d="M672,68.31l-3.75.39-.59-5.61,3.75-.39Z"/><path class="cls-1" d="M363.66,117l5.64-.59.38,3.64-5.63.59Z"/><path class="cls-1" d="M403.82,1190.78l.6,5.71-3.64.38-.59-5.71Z"/><path class="cls-1" d="M350.18,908.78l3.81-.4.59,5.69c-.53.11-1.27.27-2,.4-1.06.2-1.95.26-1.95-1.29C350.61,911.86,350.37,910.55,350.18,908.78Z"/><path class="cls-1" d="M563,100.1l3.64-.38.6,5.72-3.62.58Z"/><path class="cls-1" d="M684.62,93.12l-3.74.39-.59-5.61,3.74-.39Z"/><path class="cls-1" d="M555,121l-5.79.61c-.19-1.19-.39-2.4-.64-4l6-.64Z"/><path class="cls-1" d="M635.21,1037.61l-.42-4,6-.63.42,4Z"/><path class="cls-1" d="M558.52,116.58l5.78-.61c.2,1.19.39,2.4.64,4l-6,.63Z"/><path class="cls-1" d="M676.27,108l-.37-3.52,5.79-.6.37,3.52A17.45,17.45,0,0,1,676.27,108Z"/><path class="cls-1" d="M243.33,638.38l-4,.42-.62-6,4-.42Z"/><path class="cls-1" d="M558.93,120.55l.61,5.79-3.95.64-.63-6Z"/><path class="cls-1" d="M491.33,894l.59,5.64-3.64.38-.6-5.63Z"/><path class="cls-1" d="M123.63,188.34l-3.8.4-.6-5.69c.54-.11,1.28-.27,2-.4,1.06-.2,2-.25,2,1.29C123.2,185.26,123.45,186.57,123.63,188.34Z"/><path class="cls-1" d="M135.1,181.34l3.74-.39.59,5.6-3.74.4Z"/><path class="cls-1" d="M185.48,182l5.63-.59.38,3.64-5.62.59Z"/><path class="cls-1" d="M282.77,171.7l.42,4-5.79.61c-.2-1.19-.39-2.4-.64-4Z"/><path class="cls-1" d="M490.67,159.91l-4,.41-.63-6,4-.42Z"/><path class="cls-1" d="M365.36,173.08l.39,3.71-6,.63-.39-3.72Z"/><path class="cls-1" d="M497.06,163.26l-6,.62-.42-4,6-.63Z"/><path class="cls-1" d="M446,214.74l-5.7.6-.39-3.63,5.71-.6Z"/><path class="cls-1" d="M34.07,406.81l-.38-3.63,5.53-.58c-.07-.06.15,0,.17.13.21,1.09.39,2.19.6,3.46Z"/><path class="cls-1" d="M339.38,519.85l.38,3.66-5.73.6c-.16-1-.34-2.25-.56-3.64Z"/><path class="cls-1" d="M438.32,1213l-5.71.6-.38-3.63,5.71-.6Z"/><path class="cls-1" d="M352.12,544.5l5.78-.61c.2,1.19.39,2.4.64,4l-6,.63Z"/><path class="cls-1" d="M509.67,532l-.42-4,6-.63.41,4Z"/><path class="cls-1" d="M506.32,538.34l-.63-6,4-.42.62,6Z"/><path class="cls-1" d="M506.18,538.49l.4,3.75-5.61.59-.4-3.75Z"/><path class="cls-1" d="M747.24,285.78l-6,.62-.42-4,6-.63Z"/><path class="cls-1" d="M638.47,534.42l-3.66.38-.6-5.73,3.64-.56Z"/><path class="cls-1" d="M736.25,276.88l4-.42.63,6-4,.41Z"/><path class="cls-1" d="M577,828.72l.59,5.63-3.64.38-.59-5.63Z"/><path class="cls-1" d="M730.28,277.5l-.42-4,6-.63.42,4Z"/><path class="cls-1" d="M691.55,539.13l3.74-.39.59,5.61-3.74.39Z"/><path class="cls-1" d="M719.91,562.32l.38,3.64-5.71.6c-.16-1-.36-2.23-.59-3.62Z"/><path class="cls-1" d="M385.17,914.93l-.4-3.74,5.61-.59.4,3.74Z"/><path class="cls-1" d="M593.31,889l-3.74.39-.59-5.6,3.74-.4Z"/><path class="cls-1" d="M556.1,189.23l-3.72.39-.63-6,3.72-.39Z"/><path class="cls-1" d="M672.2,1046l.38,3.65-5.71.6c-.17-1-.36-2.24-.59-3.62Z"/><path class="cls-1" d="M530.51,232l-.6-5.62,3.64-.38.59,5.62Z"/><path class="cls-1" d="M588.49,153.81l.59,5.64-3.64.38-.6-5.63Z"/><path class="cls-1" d="M281.78,948.19l.39,3.75-5.61.59-.39-3.75Z"/><path class="cls-1" d="M560.23,918.64l-3.74.4-.59-5.61,3.74-.4Z"/><path class="cls-1" d="M336.49,777.25l-.59-5.7,3.63-.38.6,5.7Z"/><path class="cls-1" d="M549.77,223.91l-.38-3.64,5.71-.6c.17,1,.36,2.23.59,3.62Z"/><path class="cls-1" d="M563.84,856.07l6-.63.42,4-6,.63Z"/><path class="cls-1" d="M688.18,1044.1l-.61-5.78,4-.64.63,6Z"/><path class="cls-1" d="M46.48,277l-.42-4,6-.63.41,4Z"/><path class="cls-1" d="M774.54,642.79l-5.64.6-.38-3.65,5.64-.59Z"/><path class="cls-1" d="M450.94,220.53l5.71-.6.38,3.63-5.71.6Z"/><path class="cls-1" d="M563.84,856.07l-4,.42-.63-6,4-.42Z"/><path class="cls-1" d="M28.89,301l-.63-6,4-.42.62,6Z"/><path class="cls-1" d="M166.72,1133.1l-.4-3.8,5.68-.6c.11.54.27,1.27.41,2,.19,1,.25,1.94-1.3,2C169.8,1132.67,168.48,1132.91,166.72,1133.1Z"/><path class="cls-1" d="M111.52,954.05l.6,5.64-3.65.38-.59-5.63Z"/><path class="cls-1" d="M94.76,237.57l-.6-5.71,3.63-.38.6,5.7Z"/><path class="cls-1" d="M667.78,181.66l.6,5.71-3.63.38-.6-5.71Z"/><path class="cls-1" d="M177.67,1143.86l-3.74.4-.59-5.61,3.75-.39Z"/><path class="cls-1" d="M254.94,1129.94l3.65-.38.6,5.72-3.62.58Z"/><path class="cls-1" d="M247,1054.13l-.6-5.7L250,1048l.6,5.71Z"/><path class="cls-1" d="M462.24,213.32l3.74-.39.59,5.6-3.74.4Z"/><path class="cls-1" d="M763.61,402.54l-.38-3.65,5.72-.6c.16,1,.36,2.23.58,3.62Z"/><path class="cls-1" d="M405.82,1114.15l.6,5.71-3.63.38-.6-5.71Z"/><path class="cls-1" d="M686.39,1084.51l.63,6-4,.42-.62-6Z"/><path class="cls-1" d="M450.78,220.41l-4,.42-.63-6,4-.42Z"/><path class="cls-1" d="M683,1090.9l.42,4-6,.62-.41-4Z"/><path class="cls-1" d="M537.85,205.31l3.64-.38.58,5.54c0-.08,0,.14-.14.17-1.09.2-2.18.38-3.46.59Z"/><path class="cls-1" d="M528.59,216.17l-5.62.59-.39-3.64,5.63-.59Z"/><path class="cls-1" d="M303.88,811.08l3.65-.38.6,5.72-3.63.58Z"/><path class="cls-1" d="M630,201.71l5.7-.6.38,3.63-5.7.6Z"/><path class="cls-1" d="M529.06,179.84l-.39-3.65,5.73-.61c.16,1,.35,2.25.56,3.64Z"/><path class="cls-1" d="M489,184.07l-5.7.6L483,181l5.71-.6Z"/><path class="cls-1" d="M588.15,935.88l-3.65.39-.6-5.73,3.63-.57Z"/><path class="cls-1" d="M453.4,188l-6,.62-.41-4,6-.62Z"/><path class="cls-1" d="M737.62,194.28l-5.79.61c-.19-1.19-.39-2.4-.64-4l6-.63Z"/><path class="cls-1" d="M324,660.07l3.77-.4.61,5.8-3.53.37C324.21,664.07,324.4,662,324,660.07Z"/><path class="cls-1" d="M64.81,297l-.6-5.7,3.63-.38.6,5.7Z"/><path class="cls-1" d="M523.32,1141.79l-5.63.59-.39-3.64,5.64-.59Z"/><path class="cls-1" d="M112,270.24l.6,5.71-3.64.38-.6-5.71Z"/><path class="cls-1" d="M399.46,1052.33l.62,6-4,.41-.63-6Z"/><path class="cls-1" d="M410.68,1159.92l.59,5.62-3.63.38-.6-5.62Z"/><path class="cls-1" d="M56.19,903.48l3.64-.38.6,5.71-3.62.59Z"/><path class="cls-1" d="M403.32,877.05l3.65-.38.6,5.72-3.63.57Z"/><path class="cls-1" d="M223.06,1076.9l6-.63.39,3.72-6,.63Z"/><path class="cls-1" d="M369.38,212.74l-5.7.6-.38-3.64,5.7-.6Z"/><path class="cls-1" d="M616.11,1144.32l.39,3.75-5.6.58-.4-3.74Z"/><path class="cls-1" d="M290.94,1188.27l-3.75.39-.59-5.61,3.75-.39Z"/><path class="cls-1" d="M396,1058.86l.4,3.75-5.61.59-.4-3.75Z"/><path class="cls-1" d="M360.38,28.66,360,24.93l3.63-.38.39,3.73Z"/><path class="cls-1" d="M371.37,37.56,371,33.83l3.63-.38.39,3.73Z"/><path class="cls-1" d="M477.17,32.76l.39,3.73-3.63.38-.39-3.73Z"/><path class="cls-1" d="M502.38,60,502,56.32l3.74-.4c.16,1,.34,2.25.56,3.64Z"/><path class="cls-1" d="M510.94,105.35l-3.73.39-.38-3.63,3.73-.39Z"/><path class="cls-1" d="M546.74,101.58,543,102l-.38-3.62,3.73-.39Z"/><circle class="cls-1" cx="693.98" cy="104.35" r="2.83"/><path class="cls-1" d="M569.4,125.34l.42,3.95-3.72.39c-.14-.87-.67-2-.41-3C566.12,125,567.88,126,569.4,125.34Z"/><path class="cls-1" d="M342.7,169.28l-3.73.39-.38-3.62,3.73-.39Z"/><path class="cls-1" d="M743.21,342.34l-.38-3.64,3.73-.39c.16,1,.35,2.22.58,3.61Z"/><path class="cls-1" d="M743.82,312.19l-3.66.39-.39-3.75,3.63-.56Z"/><path class="cls-1" d="M644.78,533.93l3.65-.38.39,3.74-3.63.56Z"/><path class="cls-1" d="M706.21,547.36l-3.73.39-.38-3.63,3.73-.39Z"/><circle class="cls-1" cx="329.29" cy="595.16" r="2.83"/><path class="cls-1" d="M673.34,557.13l3.73-.39.38,3.62-3.73.4Z"/><path class="cls-1" d="M388.41,1080.32l-.47-4.48,3.72-.39a8.43,8.43,0,0,1,.42,3C391.68,1080.31,389.78,1078.83,388.41,1080.32Z"/><path class="cls-1" d="M367.32,939.21l.39,3.73-3.63.38-.39-3.73Z"/><path class="cls-1" d="M401.12,820.74l-3.73.4-.38-3.63,3.73-.39Z"/><circle class="cls-1" cx="439.05" cy="223.65" r="2.83"/><path class="cls-1" d="M251.78,1160.21l-3.73.4-.38-3.63,3.73-.39Z"/><path class="cls-1" d="M672.15,1102.1l.42,4-4,.41-.41-4Z"/><circle class="cls-1" cx="160.8" cy="216.7" r="2.83"/><path class="cls-1" d="M445.47,898.59l-3.64.39-.4-3.74,3.63-.57Z"/><path class="cls-1" d="M62,271.33l3.8-.4.64,3.95-4,.43Z"/><path class="cls-1" d="M773.28,745.43l-3.73.39-.38-3.62,3.73-.4Z"/><circle class="cls-1" cx="550.03" cy="839.42" r="2.83"/><path class="cls-1" d="M417.12,224.09l3.73-.39.38,3.62-3.73.39Z"/><path class="cls-1" d="M303.73,678.13l.42,4-3.72.39c-.14-.87-.67-2-.41-3C300.45,677.84,302.21,678.8,303.73,678.13Z"/><path class="cls-1" d="M517.69,609.69l.4,3.73-3.63.38-.39-3.73Z"/><path class="cls-1" d="M472.83,218.17l3.65-.38.39,3.74-3.62.57Z"/><path class="cls-1" d="M638.31,1125.91l.4,3.73-3.63.38-.39-3.73Z"/><path class="cls-1" d="M343.29,1186.77l-.39-3.65,3.74-.39.57,3.63Z"/><path class="cls-1" d="M448.1,1172l.39,3.73-3.63.38-.39-3.73Z"/><path class="cls-1" d="M585.47,1157.46l.41,4-4,.42-.42-4Z"/><path class="cls-1" d="M125,238.41l-.39-3.72,3.62-.39.4,3.73Z"/><path class="cls-1" d="M78.49,295.88l.39,3.73-3.63.38-.39-3.73Z"/><path class="cls-1" d="M550.7,923.67l-3.73.4-.39-3.63,3.73-.39Z"/><path class="cls-1" d="M571.79,931.65l-4,.42-.42-4,4-.41Z"/><path class="cls-1" d="M321.93,793l-.42-4,4-.41.41,4Z"/><path class="cls-1" d="M294.59,534.31l-5.72.6-.59-5.61,5.72-.6Z"/><path class="cls-1" d="M529.42,530l.6,5.73-9.58,1-.6-5.74Z"/></g></g></svg>