<svg xmlns="http://www.w3.org/2000/svg" viewBox="0 0 439.11 504.03"><defs><style>.cls-1{fill:#fff;fill-rule:evenodd;}</style></defs><g id="Ebene_2" data-name="Ebene 2"><g id="Ebene_1-2" data-name="Ebene 1"><path class="cls-1" d="M371.34,102.79q19.89-9.8,26.88-11.48,2.8-.56,4.76,2.52,3.09,3.92-1.39,6.16c-2.62,1.5-6.91,3.54-12.88,6.16-5.41,2.06-9.24,4-11.48,5.88-5-.75-7.56-2.14-7.56-4.2q0-3.92,1.67-5ZM338,64.15q-4.47,5-10.08-3.08a28.55,28.55,0,0,0-13.16-10.36q-.82-.27-15.68-4.48-8.12-1.95-7-6.72c.56-2,2.81-3.07,6.72-3.07q24.65,2.79,37,16.23Q341.95,60,338,64.15ZM241.14,1.71a6.06,6.06,0,0,1,2.24,4.76q0,4.49-.84,13.44-.84,7.85,1.68,13.44c.19.56-.09,1.21-.84,2a3,3,0,0,1-2.8.84q-3.92-1.4-4.48-2.52a50,50,0,0,1-5.32-17.07L230.5,7q.84-6.16,5-7a7.65,7.65,0,0,1,5.6,1.67ZM268,112.87q6.17,2.25,3.36,7.28A3.42,3.42,0,0,1,268,123a6.18,6.18,0,0,1-4.76-.84q-14-7-22.12-7.56c-4.66-.56-6.91-2.43-6.72-5.6s3.46-4.48,9.8-3.92q19.34,6.15,23.8,7.84Zm49-23.52q31.37,14.28,46.48,48.44,14.85,33.33,7.84,70-9.51,47-46.2,85.68-36.11,37-47,68.32c-.55,1.3-1.21,3.08-2,5.32a11.78,11.78,0,0,0-.28,5.6q2.25,15.12-1.4,42.56-3.63,29.69-2.52,42.56T257.1,474.35q-19.88,3.91-53.76,5.6-14.28.84-23.24-14a76.24,76.24,0,0,1-12.32-40.32V404.91q-.56-19-1.12-23.8a65.33,65.33,0,0,0-7-23.24,108.65,108.65,0,0,0-6.44-10.07,39.36,39.36,0,0,0-7.28-9.52l-43.4-40.88q-13.44-12.6-18.2-27.72-3.07-11.76-7.55-18.76Q68.38,237.2,67.55,219q-.28-12.59,3.64-31.92a110.45,110.45,0,0,1,29.12-57.4,442,442,0,0,1,42.56-38.92Q160.23,77,173.11,77a21.64,21.64,0,0,0,7-1.68Q213.43,63,250.39,68.07q29.67,4.2,66.63,21.28Zm-16,39.76q28,25.77,37.52,45.36,5.31,11.49,3.08,19.88c-1.5,3.36-3.82,4.94-7,4.76q-5,0-5-4.2.27-19.59-12.88-36.12-4.2-5.31-27.72-26.32-4.75-4.75-4.2-7.84,7.56-3.07,16.24,4.48ZM261.3,210.87q3.65,9,12.88,10.36a126,126,0,0,0,15.68,2c.19,0,2.62.18,7.28.56a12.46,12.46,0,0,1,8.13,2.52q-3.64,7.56-9.24,23.24-5.32,15.39-9,22.39-7.29,14.57-17.93,43.4-10.92,29.4-17.92,42.84-5.88,11.76,1.12,14.84a6.35,6.35,0,0,0,7.56-1.12q1.68-2,4.2-7.84l.28-1.4q15.4-36.39,48.44-70.84,30.81-31.08,42.84-68.88,13.17-41.43.84-73.36-13.71-33-54.32-53.48Q263.54,77,215.38,79,171.7,80.1,140.9,108.67a4.27,4.27,0,0,0-1.68,5.32q2.81.83,8.68-3.08,5.88-3.64,10.08-1.68-5.88,5.88-32.76,23.8-20.16,14.28-28,28.28,9.8-4.47,28.84-16,18.21-11.49,28.84-15.68-16.52,15.69-53.76,39.76-10.08,6.72-14,16.8-3.65,9-2.8,23,33.87-28,54-38.92a37.39,37.39,0,0,1-8.12,10.36l-8.12,6.44Q99.45,205,90.21,215.91q-6.72,7.29-6.72,11.2,0,4.48,6.72,14.56,5.88-2.52,19-12Q120.44,221,129.41,219a19.7,19.7,0,0,1-5,6.72c-2.8,2.24-4.86,3.92-6.16,5L96.65,248.67c-3.54,3.18-4.66,6.53-3.36,10.08A48.79,48.79,0,0,0,98.61,268c1.86,3.16,4.11,4.48,6.72,3.92,1.12-.19,3.46-1.5,7-3.92a109.69,109.69,0,0,0,9-6.45,34.52,34.52,0,0,1,12-4.76q-3.08,6.72-11.2,14c-6,5.23-9.7,9.15-11.2,11.76q8.4,10.08,11.48,10.65t13.44-5.61c.94-.55,2.43-1.58,4.48-3.07a5.22,5.22,0,0,1,5.88.28q-.56,3.91-7.28,8.68-5.88,4.75-6.72,9.24,9.81,13.71,19,20.16,4.77,3.64,9.8,2.23,0-.56,8.68-4.76,8.4-4.75,4.2-14-8.4-22.11-12.88-33-7.83-19.32-16-31.64-4.2-6.72-2.8-9.8c.93-2.05,3.83-3.46,8.68-4.2l11.2-1.4c4.3-.93,7.18-3.64,8.68-8.12,1.12-2,2.7-2.8,4.76-2.24a12.21,12.21,0,0,1,5.88,4.48q3.07,5.9,13.44,21.29l11.76-23q3.93-8.4,9.52-8.39,4.48-.28,8.12,8.39l9,21.84q13.74-16.51,16-25.76,1.4-5.59,5.87-6.72,4.22-1.67,6.17,2.81Zm-40.88,26.32a16.63,16.63,0,0,0-5.87-8.4q-4.77,3.36-7,14.28-2.81,11.49-12.61,12.6-5.31.29-11.19-8.68l-3.93-6.16q-5.31-7.83-16.8-2-4.2,2.25-3.36,6.16.28,2,3.08,6.72,6.45,17.08,20.72,50.68,12,30,17.92,51.8a59.58,59.58,0,0,0,4.48,10.36q5,6.45,16.8,6.16,11.76-.84,14.84-8.12,27.45-64.11,40.32-96a167.48,167.48,0,0,0,6.44-23.52,9.53,9.53,0,0,0-3.07-9q-4.2-3.92-7.28-.84-6.45,5.88-10.36,2-3.65-6.15-6.16-7.56a55.09,55.09,0,0,0-9,10.36q-4.76,7.56-7,10.92-5.9,7.56-10.08,7a8.54,8.54,0,0,1-5.6-3.07L223.23,247c-1.12-4.31-2.06-7.57-2.8-9.81Zm179.2-12.88c.94-1.3,1.87-2,2.81-2q6.15,0,18.76-.56a23.44,23.44,0,0,1,17.92,8.4q-7.28,5-18.76,4.76a139.53,139.53,0,0,0-17.92-.84q-3.36,0-3.36-5.88a4.87,4.87,0,0,1,.55-3.92Zm-12,85.68c-.56,2.8-2.06,4.2-4.48,4.2l-29.68-.56c-4.3,0-6.45-1.5-6.45-4.48q-.56-5.88,5.32-6.72,19.32-.84,32.77,3.08,3.06.84,2.52,4.48Zm-79,71.12v20.44q0,3.92-2,5.88a7.52,7.52,0,0,1-5.87,2q-5.9-.56-5-8.12L299.11,368q0-4.76,3.64-10.08c.74-1.3,2.23-2,4.48-2,3.54.56,5,2.24,4.48,5ZM249,405.75l-43.39,34.72a41.93,41.93,0,0,1-7.84,4.76q-3.93,1.68-5.88-2.8A3.12,3.12,0,0,1,193,438l53.2-35.56Zm14.29,4.76.83-3.92q1.41-10.08-2-14-3.64-4.2-13.72-4.2-5.88-.84-14.28,6.16-14.28,11.19-21.28,16.8a195.36,195.36,0,0,1-22.12,15.4q-7,4.47-7.84,8.68-.84,3.92,2,10.64,5.88,12.31,12.61,14.84,6.43,1.95,19-5,2-1.39,12-7.84a63.12,63.12,0,0,1,12-6.72q23.8-9.8,22.69-30.8Zm30.79,70.56c-.56,3.18-2.52,5-5.88,5.6-3.54.38-5.5-.84-5.88-3.64q-1.11-6.72,5.88-7.28c3.93,0,5.88,1.78,5.88,5.32Zm-36.68-44.52q-25.75,16.51-38.64,28.84,22.68,3.63,33.88-4.2,12.33-8.12,4.76-24.64ZM115.14,39.79q4.76,5.6,8.68,15.68,4.49,13.44,6.44,16.8c.56,1.12-.09,2.14-2,3.08q-3.08,1.68-5,0-5-3.93-10.36-14-5.59-10.92-9.52-14.28-.82-5.88,3.08-7.56,5-3.09,8.68.28ZM4.26,142a39.67,39.67,0,0,1,5.6-.28q12.33-1.12,21.84,14c1.87,2.43,1.78,4.66-.28,6.72a5.45,5.45,0,0,1-7.28,0q-12.88-9-17.36-10.08a15.13,15.13,0,0,1-5-1.68c-1.68-.93-2.14-2.61-1.4-5A4.67,4.67,0,0,1,4.26,142Zm131,222q9.52,25.75,3.64,43.4-3.91,12-4.2,12.32a30.61,30.61,0,0,0-.56,12.88q.84,5.88.56,7.55-.84,3.36-5.88,3.08c-3,0-4.94-1-5.87-3.08a6.39,6.39,0,0,1-.84-3.92q2.79-16.8,3.92-20.44,9-26.88.28-49-2.52-6.15,1.12-8.68c2.24-.74,4-.37,5.32,1.12.36.57,1.21,2.16,2.51,4.77Zm42.56-39.48q-11.76,4.76-12.32,9.24-.56,4.2,9,24.08,12-9.53,12.32-14.84.84-5.61-9-18.48Zm9,45.64q4.77.84,6.16-4.2a5.92,5.92,0,0,0-.28-3.92,4.85,4.85,0,0,0-2-2.8q-4.77-2.25-7.84,1.4c-.18.37-1.5,3.07-3.92,8.12.37,0,3,.47,7.84,1.4ZM184,383.63q-2.52,2.25-.56,16.8l21.84-16q-18.48-2.79-21.28-.84ZM63.62,279.75q1.13,6.72-4.76,7.56-7.29.29-10.36.28-5.88.84-9,1.12a25.45,25.45,0,0,1-9.52-.56c-3-1.12-4.48-2.61-4.48-4.48q-.84-4.76,3.92-5.32,6.16-1.11,17.92-2c.37.19,3.55-.09,9.52-.84q5.88-.84,6.72,4.2ZM177.86,420.31q13.72-3.92,28.84-14.56,23.52-16.8,24.92-17.36Q220.7,382,214.82,387q-13.15,8.68-19.88,13.45a53.81,53.81,0,0,0-17.08,19.87Zm-26,61.32q6.45,7.56,13.72,10.36,5.61,3.08,16,2.52,14.28-.84,16-.84.84,9-7.84,9.8-10.92.57-16.52.56a35.89,35.89,0,0,1-16.23-3.92q-22.12-12-16.52-32.76,3.9,4.75,11.47,14.28Z"/></g></g></svg>