<svg xmlns="http://www.w3.org/2000/svg" viewBox="0 0 490 490"><g id="Ebene_2" data-name="Ebene 2"><g id="Ebene_1-2" data-name="Ebene 1"><path d="M33.68,175A33.88,33.88,0,0,0,0,208.85V351.14A33.89,33.89,0,0,0,33.68,385H316.31A33.89,33.89,0,0,0,350,351.14V208.85A33.89,33.89,0,0,0,316.31,175Zm27.57,52.5H87.5a35,35,0,0,1,0,70H70v26.25a8.75,8.75,0,0,1-17.5,0v-87.5A8.75,8.75,0,0,1,61.25,227.5Zm87.5,0h7.5c29.5,0,53.75,23.43,53.75,52.5s-24.25,52.5-53.75,52.5h-7.5a8.75,8.75,0,0,1-8.75-8.75v-87.5a8.75,8.75,0,0,1,8.75-8.75Zm87.5,0h52.5a8.75,8.75,0,1,1,0,17.5H245v25.11h43.75a8.75,8.75,0,0,1,0,17.5H245v36.14a8.75,8.75,0,0,1-17.5,0v-87.5A8.75,8.75,0,0,1,236.25,227.5ZM70,245v35H87.5a17.5,17.5,0,0,0,0-35Zm87.5.24v69.52c19.72-.66,35-15.78,35-34.76s-15.28-34.1-35-34.76Z"/><path d="M166.25,0A43.85,43.85,0,0,0,122.5,43.75V157.5H316.32c28.16,0,51.19,23.27,51.19,51.35V351.14c0,28.09-23,51.36-51.19,51.36H122.5v43.75A43.85,43.85,0,0,0,166.25,490h280A43.84,43.84,0,0,0,490,446.25V140H385a35.12,35.12,0,0,1-35-35V0ZM367.5,4.12V105A17.28,17.28,0,0,0,385,122.5h99.21a30.78,30.78,0,0,0-2.89-3.56L373.76,8.81a29.25,29.25,0,0,0-6.25-4.7Z"/></g></g></svg>