<svg xmlns="http://www.w3.org/2000/svg" viewBox="0 0 503.8 407.48"><defs><style>.cls-1{fill:#fff;fill-rule:evenodd;}</style></defs><g id="Ebene_2" data-name="Ebene 2"><g id="Ebene_1-2" data-name="Ebene 1"><path class="cls-1" d="M374.51,45.09q-18.19.27-27.44-1.12-28.85-4.2-96.88-5.6Q181.6,37,153.31,37.81q-54.32,1.39-96.88,9-25.2,5-31.64,11.48Q18.07,65.81,17.24,91l-3.93,88.2q-.84,14.83.56,19,3.65.56,8.12-4.2,4.49-4.47,8.68-4.48-1.4,5.88-8.68,12.32-7.26,6.17-8.4,10.36-2.52,11.76.29,30.52,6.15-3.36,16.8-12.88Q41,220.65,48.6,217a53.49,53.49,0,0,1-11.48,16q-2.52,2.25-12.88,10.08-12.6,9.8-11.2,24.64l.84,16.52q11.21-8.11,30-25.2,18.48-17.35,28.28-24.36c1.12,2.43,1.22,4.3.28,5.6-.18.75-1,1.87-2.52,3.36l-36.39,32.2a155.24,155.24,0,0,0-15.68,14.84c-2.8,3.17-2.71,6.26.28,9.24q1.39,1.39,13.72,0,12.6-1.39,14.28-3.08,9-8.4,24.64-20.44,19.32-14,25.2-19.32A24,24,0,0,1,99,254c1.68-.93,3.36-.55,5,1.12q-8.13,9.53-24.93,22.4-19.59,15.12-26.6,22.12,24.07,4.49,36.68,2.24,17.92-2.24,29.4-17.64a80.74,80.74,0,0,1,9.8-10.36q7.29-5.88,10.92-9-1.68,11.21-13.44,21-15.94,14.28-18.48,17.92,17.92,2.81,26.32,1.68,13.16-1.68,21.56-12.88c3.18-4.1,6.25-6.25,9.24-6.44q0,3.93-4.48,8.68c-3.37,3.74-4.95,7.19-4.77,10.36q16,.84,23.52.84c3,0,4.77-.93,5.32-2.8q2.52-8.4,12.6-16.24,12.89-10.63,15.4-13.72c2.62-3.73,4.85-4.66,6.72-2.8,1.5,1.68,1.68,3.18.56,4.48-.37.94-1.5,2.15-3.36,3.64L198.39,294c-2.61,2.24-4.11,3.74-4.48,4.48a6.75,6.75,0,0,0-1.4,6.16,7.7,7.7,0,0,0,3.92,2,23.78,23.78,0,0,1,4.2.28q16.25,5.89,27.16-8.12a77.93,77.93,0,0,1,12.32-11.2q10.08-7.27,15.68-11.76-1.11,10.08-12.88,18.2-12.32,8.4-13.72,14.56,14.28,2.79,23.8.84,12.06-2.52,19.88-13.16a75,75,0,0,1,7-5.88q5.61-3.92,7.57-5.6c1.5-1.31,2.43-2,2.8-2q1.68-.84,4.2,2l-25.77,23.8q9.81,3.09,11.2,3.08l28.57.84q11.47.56,15.4-2.8,4.2-3.65,4.76-14.28a264.5,264.5,0,0,1,2.8-28.84q2.79-22.41,3.64-28.28.56-12,3.36-35.84t3.92-35.56q.29-7.84,1.68-8.4c.93-.56,3.74.46,8.4,3.08a6.15,6.15,0,0,0,4.2.84,10.91,10.91,0,0,1,3.64-.84q10.08.28,30.8-2,20.15-2.81,31.08-2.24,8.67.84,11.48-2.52,3.07-3.36,2.52-12,0-13.16-.28-19.6A331.41,331.41,0,0,0,431.91,70q-2.24-12.6-9.23-17.64-5.6-4.48-20.44-6.72-9.25-.84-27.73-.56Zm25.76,13.17c4.68.56,7.19,2.33,7.57,5.32q0,5-7.84,4.2l-29.68-1.4Q342,67.22,330,65q-14.55-2-22.4,2.8-6.15,3.91-8.39-2.52c-1.31-4.1.65-6.63,5.87-7.56l5-.84,86.8,2.24Zm42.57,5.31q0,5.59,2.8,40,1.68,24.36-.57,40-2.24,16,12.32,20.44,21,6.15,22.4,35.56,2.52,76.15-3.92,132.44a69.13,69.13,0,0,1-5,18.48q-2.52,5.88-7.84,17.64-2.79,5.88-12.32,7.84-32.19,5.59-49.56,6.44-27.44,1.13-49.84-5.88-16.8-5-21.56-16.52c-1.86-4.48-5.23-6.62-10.07-6.44q-8.42.84-31.93,0-19.87-.56-31.64,2-3.34.56-13.16-1.4-13.72-3.65-14,11.48,5.33,1.68,17.36,1.12,4.77-1.4,6.72-1.12,8.4,0,8.12,5.88c-.18,2.61-1.12,4.3-2.8,5a17.4,17.4,0,0,1-5.88.28q-21.84-1.68-65.24-.84H170.12c.18,2.24,1,3.55,2.52,3.92a10.38,10.38,0,0,0,3.36.29q32.48,2.24,65.23,3.35,10.65.57,14.56-2,4.48-2.79,7,1.4,2.81,5,1.12,8.12-3.07,4.2-7,3.93A72.52,72.52,0,0,1,244,392.58a383.89,383.89,0,0,0-70.56-2.52q-18.76,1.11-18.48-15.4c.18-3.18.93-5.32,2.24-6.44q2-2.25,7.28-2,12.31.83,36.68.84h5.6c2.43-.56,3.73-2,3.92-4.2q.28-4.48-1.68-7a8.92,8.92,0,0,0-7-2.8q-30.24-.84-38.92-.29-42,2.25-125.44-2.52a70.4,70.4,0,0,1-21-5.32q-9-3.9-10.63-17.35Q-2.09,257.06.72,205.26q1.68-44.81,2.8-67.48,2-40.32,6.72-67.48Q13,54.61,18.07,48.46q5.61-5.9,20.72-9.24Q53.07,35.29,63.43,35q39.2-2.52,58.24-3.64,34.44-2,58.8-.56,17.35.55,54.32.28,35.84-.27,54.6.56,44.52,3.63,66.64,4.76l57.68,1.4q15.12.55,21.56,6.16,6.74,5.6,7.57,19.59Zm2.8-48.71a23.6,23.6,0,0,0,4.2,2.51Q468,28,471.12,56.3c-.56,1.3-.66,3.54-.28,6.72q0,3.63-4.2,4.19-5.61,0-5.6-10.35-1.12-21-17.37-32.77-5.88-3.91-2.24-8.12a3.59,3.59,0,0,1,4.21-1.11ZM256.92,71.69A124.15,124.15,0,0,1,240.12,70q12.87-9.24,30.8-2.8A26.89,26.89,0,0,1,256.92,71.69Zm145.6,46.48q0,.84-1.68,12.88a41.11,41.11,0,0,1-1.4,6.16,3.59,3.59,0,0,1-4.2,2.24c-4.11-.18-5.41-3.27-3.92-9.24l1.4-13.16a15.16,15.16,0,0,1,.56-3.64,3.89,3.89,0,0,1,3.64-2c3.17,0,5,2.24,5.6,6.72Zm21.28,49q-9.81-1.68-16,3.92H440Q434.45,170.82,423.8,167.17Zm33.6,18.2q-3.93-.27-81.48-6.16-15.41-1.12-22.12,4.76-6.72,6.45-7,21.28c-.19,1.5-.56,3.64-1.13,6.44a9,9,0,0,0,1.4,6.16q3.36-.27,7.84-5,4.75-5.32,9.8-6.72-1.12,2.79-15.39,20.16-9.24,11.19-5,23.23,5-2.52,12.32-10.07,8.11-8.41,12.88-11.77a23.3,23.3,0,0,1-5.88,13.45q-2.52,2.79-9.52,7.55a36.38,36.38,0,0,0-14,19.61q-2.25,8.94-.84,25.2l21.28-19.61a151,151,0,0,1,21.56-16.23,33.82,33.82,0,0,1-11.48,14.84q-2.52,2.24-12.32,11.76a141.22,141.22,0,0,1-12.6,10.64,23.58,23.58,0,0,0-9,14q-1.12,5-1.12,16.52,0,5.6,7,5,3.64,0,8.4-5l40.32-35.28a21.93,21.93,0,0,1,5.32-4.2,11,11,0,0,1,7.55-2.24q-6.15,9.79-23.8,23.52-16.8,13.44-22.39,22.4a9,9,0,0,0,5.6,2.8h5q21.56,3.92,33.88-12.32a52.08,52.08,0,0,1,7.28-7.56q5.88-4.47,8.68-7,5-4.2,9.23-.84-1.12,3.91-5.87,7-6.16,3.91-7,5.32a75.54,75.54,0,0,1-7.57,6.72q-4.49,4.2-5.6,8.4a21.32,21.32,0,0,0,9,1.68,80.39,80.39,0,0,1,8.4.28q12.6,3.63,18.76-7.56,5.88-10.08,14-9.52-.27,3.91-4.76,7.84-4.75,4.2-4.76,7.56a10.5,10.5,0,0,0,5.6.84c3.17-.56,5.23-.75,6.16-.56l11.2,1.4q7-40.89,5.6-112,0-18.76-2.8-28.28-2.22-7.29-10.63-8.41Zm21-51q14.28,10.35,18.2,14.84a29.12,29.12,0,0,1,7,23c-.38,3.36-2,4.94-4.77,4.76-3.36-1.3-5-2.43-5-3.36a29.78,29.78,0,0,0-6.16-19q-.56,0-13.71-14c-3.36-2.61-3.84-4.85-1.4-6.72,1.68-1.31,3.64-1.13,5.88.56ZM284.65,319.77a397.7,397.7,0,0,1-41.72-1.68q-59.64-5.88-115.64-5.88-5.6,0-16.8.28a105.65,105.65,0,0,1-16.8-1.12,357.27,357.27,0,0,0-37.81-1.68q-12,0-37.23.28,1.68,19.32,5.88,24.08,3.91,5,21,7.56a131.81,131.81,0,0,0,15.12.84q60.75,2.79,91.56,2,24.07-1.12,71.12.56,48.16,1.39,71.4.84,13.15,0,18.2-1.12c6-1.5,9.8-3.36,11.48-5.61q2.52-3.63,1.4-12.32-1.41-7-6.16-5.6-6.72,1.41-17.65,0-12.6-1.67-17.35-1.39Zm19-21q5.61-5.32,8.4-8.12,3.36-3.09,5.6-.84a2.33,2.33,0,0,1,1.4,3.07,4.28,4.28,0,0,1-1.68,2.52q-5.31,4.49-19.32,14.56a24.58,24.58,0,0,1,5.6-11.19Zm149.8,61.88q7-5.59,8.4-17.35-21.56,4.76-56,1.67-35-3.08-59.63-3.35-16.25-.57-7,13.44,7.83,12,28.56,14.56,24.07,3.08,68.32-2.52c7.64-.94,13.44-3.09,17.35-6.45ZM369.2,407.42q12-6.17,31.64-6.72,26.6-.29,31.63-1.4Q419.6,406,401.4,406.86q-10.92.84-32.2.56Zm17.65-51.8c0-3.18,1.68-4.95,5-5.33,2.24-.18,3.92,1.59,5,5.33q1.13,5-3.92,5.6a44.68,44.68,0,0,0-4.48-1.4,3.67,3.67,0,0,1-1.67-4.2ZM152.49.29h52.64c1.3.18,2.14,1.21,2.52,3.07A3.56,3.56,0,0,1,206.25,7a31.26,31.26,0,0,1-4.2.56L188.88,8.68q-7.55.29-13.16,0-19.59-1.11-73.64-.28a34.81,34.81,0,0,0-7.55,1.4C91.72,10,90.23,8.68,90,5.88q-.56-5,4.2-5.88h58.24V.29ZM47.21,13.45q-6.16.84-13.16,6.72c-2.62,1.5-4.68,1.12-6.17-1.12q-3.07-4.2,1.12-7.28,5.32-3.91,15.68-5.32a18.29,18.29,0,0,1,2.8.84,2.52,2.52,0,0,1,2.24,2.52c0,2-.83,3.27-2.51,3.64Zm123.48,261.8,10.36-8.68q-2.52,9.81-5.32,13.44-3.07,3.36-10.92,5.88a18,18,0,0,1,5.88-10.64Zm37,62.72q-6.15-4.49-4.76-10.08,1.13-5.88,7.83-7.84,8.68-1.95,11.2,6.16l-.28.56a15.77,15.77,0,0,0-4.2.28q-3.91,2.79-2.52,5c1.87,1.86,3.74,1.5,5.61-1.12l1.12-4.2h.56a.83.83,0,0,0-.29-.56l4.2-2.24q2.52-1.39,4.2,1.12,2.52,2.81,0,7.56c-1.86,3.74-5.23,6.26-10.08,7.56q-7.55,1.68-12.59-2.24Zm-90.72,41.72q-1.68,3.36-6.44,4.2-4.2.27-18.48-.28-11.2-.84-18.2.84c-2.8.55-4.39-.56-4.76-3.36q-.57-2.8,3.63-4.48,7.56-2.52,20.44-1.4a74,74,0,0,1,23.81,4.48Z"/></g></g></svg>