<svg xmlns="http://www.w3.org/2000/svg" viewBox="0 0 503.98 423.51"><defs><style>.cls-1{fill:#fff;fill-rule:evenodd;}</style></defs><g id="Ebene_2" data-name="Ebene 2"><g id="Ebene_1-2" data-name="Ebene 1"><path class="cls-1" d="M372,23.78q4.2-2,5.88,1.67a45.9,45.9,0,0,0,8.4,10.93q.27.27,10.36,9.24,2.81,2.79.56,4.19l-3.36,3.08-5-1.4a76.34,76.34,0,0,1-18.19-20.71,5.36,5.36,0,0,1-1.13-3.93A4.08,4.08,0,0,1,372,23.78ZM258.6,31.34q-16-7.56-16,10.91l.28,6.44q0,6.45-3.08,6.72-4.49.56-5.88-6.16l-.29-9.8a14.89,14.89,0,0,0-3.92-9.8q-29.12,26.33-57.11,65a113,113,0,0,0-9.24,17.63c-.75,1.31-1.4,2.52-2,3.64q-2.81,6.74-1.69,8.68,1.68,2.52,12.61,2.52,21.84.57,28,1.68,18.48,2.52,24.92,1.68,12.87-.56,11.76-12v-2.52q0-5,1.4-17.92,1.13-12.89-1.4-20.44-.56-4.2,5.32-5.6A46.13,46.13,0,0,1,246,91q0,6.15-.56,18.76a61.13,61.13,0,0,0,.28,6.16q.27,8.69,1.68,10.36,2.52,2.25,16,.84,16.8-1.12,23.52-2.52a62.75,62.75,0,0,0,23-7.56c4.85-3,7.38-5,7.56-6.16q.84-2.25-2.8-9-15.39-31.36-42.84-60.48a44.07,44.07,0,0,0-12.88-9.52c0-.37-.09-.55-.28-.55Zm22.12,6.44q21.55,21.27,46.76,66.07a47.52,47.52,0,0,0,15.4-11.76q3.09-3.36,11.48-14.84,7.84,5.61,1.4,14.57a78,78,0,0,1-17.36,15.12q-6.72,4.2-3.64,10.63c1.69,3.37,3.46,8.68,5.32,16a4.4,4.4,0,0,0,2.52,3.36,3.31,3.31,0,0,0,3.64-.56,44.87,44.87,0,0,1,23.23-9q6.73-.56,24.65,0,17.64.85,28,4.48a43.93,43.93,0,0,1,22.68,18.2,76,76,0,0,1,6.44,7.57q4.47,5.59,9.51-.28,9.53-10.65,7.57-22.69-2.52-12-15.4-17.92-27.15-13.16-44-16.23.84-3.93,3.92-3.93,23-1.68,47.32,12.61,16.8,9.24,18.48,24.36t-11.76,29.68c-3.93,3.93-5.79,6.82-5.61,8.68q.29,2.25,7.29,11.77,15.66-17.08,18.76-23,7.84-14,4.76-28.55-3.36-16.26-19.32-23.52-32.48-15.12-73.92-22.4a49.78,49.78,0,0,0-4.76,2q7.28,10.92,10.36,16.24,5.32,9.79,3.08,19.32a9.07,9.07,0,0,1-5.6-3.64c-.38-1.13-1-2.8-2-5q-14.28-28.27-33.6-40.61-32.47-20.43-77-37.8a15,15,0,0,1-3.64-1.39c-1.67-.21-3.35.64-5,2.5Zm47.6,89.87c-1.68-3.54-3.45-5.7-5.32-6.43q-3.08-.85-8.4,2.8-5,3.35-18.19,7A146.76,146.76,0,0,1,276,134.65c-4.48.57-11.29,1.3-20.43,2.24q-5.33.56-7.57,2.52c-1.68,1.68-2.42,4.1-2.23,7.28q1.4,22.68,3.63,71.12c0,5.6,3.09,8.4,9.24,8.4q25.2-.86,33.32-2.8,1.13-10.65,1.12-11.2-.84-17.37,9-33.88,5.88-11.21,21.28-28,8.13-8.4,8.68-10.37.56-2.78-3.64-12.31Zm17.36,64.69-25.48,26.6q-11.47,12-12.6,21.84-1.39,6.72.56,9a4.08,4.08,0,0,0,4.48,1.11q2.81-1.95,4.2-2.8,16.25-10.92,30.8-30,2.81-4.2,4.48-6.44a13.57,13.57,0,0,1,7.29-5,11.47,11.47,0,0,1-1.4,8.12c-.37.93-1.87,2.89-4.48,5.88q-20.73,23.52-33.32,31.92-6.16,4.2-6.44,7-.28,2.52,4.76,8.11l5.32,4.2q9-9.8,27.72-21.56a105.48,105.48,0,0,0,12.88-10.36q8.12-7.56,13.44-10.64a30.4,30.4,0,0,1-7.56,12.32q-2.81,2.79-11.2,9.52l-21.28,16q-8.13,5.88-5,12,4.2,7.56,25.48,14,21.27,5.88,29.68,2l1.4-1.12q.27-.27,12.6-10.08,8.11-6.15,10.64-12.6,2-5.88,5.88-3.92a4.82,4.82,0,0,1,1.68,3.92,5.59,5.59,0,0,1-1.4,3.64l-13.43,16.8q41.71-6.72,51.8-42.28A65.39,65.39,0,0,0,459.37,238c.57-7.65.84-11.57.84-11.76q4.76-27.45-10.92-53.48-1.4-2-9.52-12.89-5.86-7.56-7.84-13.44-1.4-4.47-7.28-6.16-43.95-12.89-73.92,3.92Q323.85,159,312.36,178.33q-12.87,21.84-7.55,51a85.91,85.91,0,0,1,10.64-13.16q7.83-7.56,11.76-11.49,6.72-8.67,10.08-12.88,6.43-7.84,13.44-10.63a11.29,11.29,0,0,1-1.68,7,44.69,44.69,0,0,1-3.37,4.21Zm49.56-110.6a144.12,144.12,0,0,1,85.4,19.31Q500,112.26,503.32,133q3.35,20.44-10.37,37.8-9,10.65-12.6,13.17-12,7.55-10.36,25.48a118.52,118.52,0,0,1-11.76,61A52.58,52.58,0,0,1,438.34,292q-9.51,5.88-26.31,10.63-9.52,2.81-15.12,7-5.88,4.77-10.64,13.72-23,44.79-61.88,59.37-47.33,17.64-77,18.48-52.37,1.39-86.24-12.88-9-3.64-20.71-12-16.26-11.49-19.89-13.72-10.92-6.45-19.6-5.88Q69.87,359,31.79,341.3q-19-9.24-26.88-24.64a66.25,66.25,0,0,1-2.8-7q-5.32-16.52,2.8-35a58.77,58.77,0,0,1,4.2-8.4q15.12-26.87,39.2-30a56.93,56.93,0,0,0,7.56-2.52q3.08-1.4,3.07-4.2c.19-1.86-.56-2.89-2.23-3.07-4.3-.75-6.44-1.87-6.44-3.36,0-.75,1.12-2.91,3.36-6.44Q59,210,60.35,198.23q1.13-13.17,2-19.88Q72.12,126.27,94,93.78a138.57,138.57,0,0,1,11.48-14.84,182.88,182.88,0,0,1,29.4-28q21.27-15.67,50.4-24.64,23.52-7.56,53.48-6.72,10.08.57,20.16,2Q323,29.67,382.35,77.26a18.85,18.85,0,0,0,12.89,4.48Zm12.32,81.76q13.15,5,27.44,25.2,14,19.88,14,32.48,0,5.88-1.4,8.12a6,6,0,0,1-5.32,3.08c-1.3,0-2.43-.94-3.36-2.8l-.84-3.08q-.27-15.12-9.52-30.52-3.63-5-19.31-25.2c-2.06-2.62-2.62-5-1.69-7.28Zm88.2,87.35q4.2,18.21-7,31.09-10.65,13.15-29.4,10.63a44.1,44.1,0,0,0,23.8-17.36q4.77-6.15,12.6-24.36Zm-63.84,11.21c-2.05,2.42-4,3.55-5.88,3.36q-4.2,0-3.37-4.48.85-9.24,8.4-10.08c2.62-.38,3.92.93,3.92,3.92a12.54,12.54,0,0,1-3.07,7.28ZM400,241.62q0,9.24-7.84,18.2-8.12,8.67-33.88,28.28,5.61-8.69,21-23.24,14.84-14,20.72-23.24ZM382.08,307.7q-34.44-1.12-57.68-20.16c-1.86-1.5-3.83-1.5-5.88,0q-3.36,1.95-17.64,8.68a146.6,146.6,0,0,0-18.76,10.63q23.52,9,27.43,10.09,15.13,4.47,28,2.51,2.81-.84,4.49,2,20.43,26.59,36.39-.57a22,22,0,0,0,3.08-5.6,8.94,8.94,0,0,0,.57-7.55Zm28.56,14q4.2,23.25-18.2,53.76-22.95,30.26-47.32,33.6,5-5,23-19.31,13.46-10.92,18.77-20.16,3.07-5.61,10.63-23.52,6.72-15.7,13.16-24.37ZM277.35,232.38q-4.47.27-13.16.28-11.2,0-13.16,2.52-2.25,1.95,0,12.32a89.5,89.5,0,0,1,0,10.08q-.57,6.44.56,9.8a4.74,4.74,0,0,1-.56,4.48,5.88,5.88,0,0,1-4.48,2.8,9.54,9.54,0,0,1-3.92-7.28v-7.84c-.19-4.3-.28-7.37-.28-9.24a59.12,59.12,0,0,0-1.12-9q-1.68-9-11.2-9l-66.36.84q-13.72.56-15.68,3.08-2,2.79.28,16.52a136.24,136.24,0,0,0,12.88,40.88c1.68,3.16,1.49,5.6-.56,7.28q-2.52,1.68-6.72-2.52-1.4-.84-3.36-5.88a8.62,8.62,0,0,0-4.48-4.76q-.57.27-16.8,14-10.36,8.4-20.72,10.92,10.63-11.49,13.72-13.17,5.86-3.35,18.2-17.07,4.47-4.49,2.8-8.4a43.79,43.79,0,0,1-2.8-14q-1.12-11.76-1.4-14.28c-.75-3.37-1.22-5.42-1.4-6.17-.93-2.05-2.8-3.16-5.6-3.36q-8.69-1.12-12.89,6.45Q108.51,262,93.94,267.09v-.84h-.83a9.53,9.53,0,0,1,3.63-7.55,55.53,55.53,0,0,0,7-5.61,64.46,64.46,0,0,0,6.44-6.71,13.92,13.92,0,0,0,2.8-9.24q-24.92-.55-33.6,9.24-9,9.8.56,27.71c1.3-.37,3.46-2,6.44-5,2.24-2.24,4.48-3.17,6.72-2.81v.84h.83c0,2.06-.92,4.39-2.8,7-2.61,3.17-4.1,5.42-4.48,6.72q-2.24,8.4,3.08,12.88c2.24,2.05,4.3,2.34,6.17.84a38.63,38.63,0,0,1,4.48-4.76q2-.84,14.56-13.16,9.24-7.85,17.08-10.93a41.71,41.71,0,0,1-10.37,13.16q-2,2-12.87,10.93-10.36,9.53-10.65,12.32-.27,3.07,7.29,13.16-9.81,5.6-14.84-1.4Q77.69,297.91,73.78,292q-8.4-12.87-10.64-24.92-3.64-20.73-7.28-23-4.2-2-21.84,8.4-22.13,13.16-23,38.63-.57,25.75,21.84,37.24,23.24,12,42,16.52,23.79,5.59,45.63.83,28.85-5.88,30.8-6.43,3.91-.29,9.24-4.76,5-3.93,7.84-3.93,11.75,2,18.76.57a159.14,159.14,0,0,0,22.12-7q18.48-7.29,21.56-8.4,49.56-16.8,75.6-33.32,6.17-3.64,2.24-9c-1.31-2-2.52-3.27-3.64-3.64-1.68-.75-3.54-.46-5.6.84Q284.6,280,277.33,282.2,196.41,314.12,139,327q-40.89,9.51-62.44,8.68-28.84-1.12-43.68-16.8-13.74-14.55-9.81-34.44,4.22-20.44,23-27.16l-9,16.8q-7.55,15.12-1.68,29.4,6.15,14.55,22.12,19.6a73.23,73.23,0,0,0,33,3.08q65-6.72,115.64-26.88a275.45,275.45,0,0,1,28-9.52A213.94,213.94,0,0,0,263,279.4q18.76-8.11,28-12.32,11.49-5,6.44-16-1.12-2.53-7-20.72a51.44,51.44,0,0,1-13.13,2Zm-14.27,84.56a124.74,124.74,0,0,0-24.64,5.6q-7.84,2.79-23.52,8.11-5.59,2.25-8.12,5.6-5.33,8.13-19.6,20.17c-3.17,2.8-5.14,4.85-5.88,6.16q-2.23,4.2,1.12,9,1.4,2.52,0,3.92a4.72,4.72,0,0,1-4.2.28,14.37,14.37,0,0,1-3.64-2,4.86,4.86,0,0,0-3.64-1.12c-1.68.56-2.61,1.3-2.8,2.24a2.08,2.08,0,0,0,0,2.51q1.68,2,11.49,3.93,10.07,2.24,11.76.83,18.19-12.87,27.44-19.6,16.52-12,24.08-23.8,4.2-6.16,10.07-3.92-6.15,16.25-2,28.28,7.84-3.64,16-14,9.24-12.6,13.72-16,2.52,5.88-2.23,10.08-17.36,19-19.32,20.71-13.16,11.21-7.84,24.37,12.89,3.36,20.16-6.72,7-6.72,10.37-10.36,5.86-6.17,6.16-13.44c.18-1.3,1.12-2.43,2.8-3.37a5.47,5.47,0,0,1,5.32,0c2.05.94,2.8,2.16,2.23,3.65a14.76,14.76,0,0,1-2,4.19q-2.25,4.75-9,12-7,7.28-9,12.32,29.4-8.42,43.39-14,25.2-9.24,37.24-27.44-12.87-9.52-16.24-9.24-3.64.56-11.76,12.88-6.72,10.08-9.52,12.89A24.77,24.77,0,0,1,307,369l20.16-28.57q5.88-8.4-1.68-10.63-10.35-2.81-30.52-9-17.65-5-31.93-3.91ZM196.15,3.06q-27.45.27-52.08,17.64-14,9.8-38.63,35.28l-1.69,1.68a166,166,0,0,0-27.16,37.8q-2.52,5.33-6.16,2.52C68.38,96.86,68,94.9,69.31,92.1q9-19,21.56-31.64L105.44,45.9q19.31-19.32,29.39-28,28-23.79,62.72-16Zm20.73,28.28q-57.67,1.13-101.36,51-5.61,6.45-10.08,12.61Q73.51,137.47,75.2,185.35q2,.56,4.76-2.52,2.81-2.81,5-1.12,2.81,2.52.84,6.72c-1.69,3.35-2.33,5.69-2,7l-2.8,1.68q-10.65,7.26-11.77,20.44c-.37,4.84,0,12.6,1.13,23.23q.56,3.36,3.07,3.08a4.64,4.64,0,0,0,3.08-1.68,3.67,3.67,0,0,0,0-2.8q-4.2-6.16-1.68-8.68,1.68-1.68,8.4-1.4a12.91,12.91,0,0,0,9.8-3.36c.37-.37,2.61-3.09,6.72-8.12a47.3,47.3,0,0,1,2.8-5c1.3-1.86,3.27-2.61,5.88-2.23q1.13,3.07-2.52,8.39-3.36,4.76-1.4,8.12,19.05,0,23.24.56,9.51.28,9.52-10.07-.84-35.28,2.8-52.65,2.23-10.92,3.36-16a73.7,73.7,0,0,0,1.68-17.08q-6.44-1.4-20.16-3.08-10.92-2.79-16.8-10.63l16,4.2A67.24,67.24,0,0,0,140.43,124q9.24,0,12.88-7.57c0-.37.09-.56.28-.56q3.36-8.67,5.6-13.16A46,46,0,0,1,167,90.14q14.85-18.48,22.68-27.44a232.66,232.66,0,0,1,24.92-25.48,6.19,6.19,0,0,0,2.25-5.88Zm-160.16,103q3.91,9.81-5,8.68-6.16-.84-4.76-10.36l.83-3.07a54,54,0,0,1,2.52-6.45c1.12-2.23,3-2.89,5.6-2q3.36,1.13,3.08,4.2c-.18.56-.93,2.24-2.23,5Zm139.16,2.52q-24.07-2.24-31.36-2.24-6.45,0-9.52,2.81c-1.68,1.68-2.7,4.29-3.08,7.83q-7.84,41.44-5.6,72.52.27,9.26,10.36,9.24h36.4V226h38.07q9,0,9-7l-1.68-72.8q-.57-10.08-11.48-9a251.11,251.11,0,0,1-31.08-.28Zm-2.8,203.28q-17.65,1.41-27.44,5.88a43.42,43.42,0,0,0-21,18.2l10.92,7.84a7.84,7.84,0,0,0,8.12-2,8.1,8.1,0,0,0,3.08-7.57q0-1.4-2.52-6.16c-.93-2.8-.57-4.76,1.11-5.88q3.93-2.52,5.61,1.68,5.59,10.08,13.44.28a44.93,44.93,0,0,0,4.48-5,20.31,20.31,0,0,0,4.2-7.28Zm-60.2,15.67q.84,3.09,4.76,3.09c2.8-.57,4.3-1.77,4.48-3.64,0-1.86-.65-2.89-2-3.08-.93,0-2.24.1-3.92.28h-2.8q-1.68.84-.56,3.35ZM118.6,392.54q33.59,23.81,59.92,24.08,0,5-2.52,5.88c-.56.56-2.06.84-4.48.84a58,58,0,0,1-28.28-5q-10.08-4.47-24.37-14.84Q113,399,118.6,392.54Zm101.92-2.8c1.49,0,3.82-1.3,7-3.92q16.51-13.15,13.72-34.16L213,373.78q-5,3.64-6.43,5.6a5.89,5.89,0,0,0-.57,7.28c1.12,2.24,3.18,3.37,6.16,3.37q5.61-.28,8.41-.29Z"/></g></g></svg>