<svg width="838" height="540" xmlns="http://www.w3.org/2000/svg" xmlns:xlink="http://www.w3.org/1999/xlink" xml:space="preserve" overflow="hidden"><defs><clipPath id="clip0"><rect x="221" y="116" width="838" height="540"/></clipPath></defs><g clip-path="url(#clip0)" transform="translate(-221 -116)"><path d="M0 0 837.931 0 837.931 540 0 540Z" fill="#FFFFFF" transform="matrix(1.00008 0 0 1 221 116)"/><path d="M7.44828 7.44828 826.759 7.44828 826.759 528.828 7.44828 528.828 7.44828 7.44828" stroke="#000000" stroke-width="0.931034" stroke-miterlimit="10" fill="none" transform="matrix(1.00008 0 0 1 222.862 117.862)"/><path d="M7.44828 7.44828 7.44828 27.931 136.024 27.931 146.266 17.6897 146.266 7.44828 7.44828 7.44828" fill="#FFFFFF" transform="matrix(1.00008 0 0 1 222.862 117.862)"/><path d="M7.44828 7.44828 7.44828 27.931 136.024 27.931 146.266 17.6897 146.266 7.44828 7.44828 7.44828 7.44828 7.44828" stroke="#000000" stroke-width="0.931034" stroke-miterlimit="10" fill="none" transform="matrix(1.00008 0 0 1 222.862 117.862)"/><path d="" stroke="#000000" stroke-width="0.931034" stroke-miterlimit="10" fill="none" transform="matrix(1.00008 0 0 1 222.862 117.862)"/><text font-family="Arial,Arial_MSFontService,sans-serif" font-weight="400" font-size="13" transform="matrix(0.931111 0 0 0.931035 253.337 140)">AnimalRecognition</text><text font-family="Arial,Arial_MSFontService,sans-serif" font-weight="400" font-size="13" transform="matrix(0.931111 0 0 0.931035 234.296 140)">sd</text><path d="M36.3103 43.7586 103.066 43.7586 103.066 80.069 36.3103 80.069Z" fill="#C0C0C0" fill-opacity="0.2" transform="matrix(1.00008 0 0 1 222.862 117.862)"/><path d="M29.7931 37.2414 96.5483 37.2414 96.5483 73.5517 29.7931 73.5517Z" fill="#FFFFFF" transform="matrix(1.00008 0 0 1 222.862 117.862)"/><path d="M29.7931 37.2414 96.5483 37.2414 96.5483 73.5517 29.7931 73.5517 29.7931 37.2414Z" stroke="#000000" stroke-width="0.931034" stroke-miterlimit="10" fill="none" transform="matrix(1.00008 0 0 1 222.862 117.862)"/><path d="" stroke="#000000" stroke-width="0.931034" stroke-miterlimit="10" fill="none" transform="matrix(1.00008 0 0 1 222.862 117.862)"/><text font-family="Arial,Arial_MSFontService,sans-serif" font-weight="400" font-size="13" transform="matrix(0.931111 0 0 0.931035 269.243 172)">Client</text><path d="M63.7759 74.4828 63.7759 519.517" stroke="#000000" stroke-width="0.931034" stroke-miterlimit="10" stroke-dasharray="2.7931 2.7931" fill="none" transform="matrix(1.00008 0 0 1 222.862 117.862)"/><path d="M289.552 43.7586 379.21 43.7586 379.21 80.069 289.552 80.069Z" fill="#C0C0C0" fill-opacity="0.2" transform="matrix(1.00008 0 0 1 222.862 117.862)"/><path d="M283.034 37.2414 372.693 37.2414 372.693 73.5517 283.034 73.5517Z" fill="#FFFFFF" transform="matrix(1.00008 0 0 1 222.862 117.862)"/><path d="M283.034 37.2414 372.693 37.2414 372.693 73.5517 283.034 73.5517 283.034 37.2414Z" stroke="#000000" stroke-width="0.931034" stroke-miterlimit="10" fill="none" transform="matrix(1.00008 0 0 1 222.862 117.862)"/><path d="" stroke="#000000" stroke-width="0.931034" stroke-miterlimit="10" fill="none" transform="matrix(1.00008 0 0 1 222.862 117.862)"/><text font-family="Arial,Arial_MSFontService,sans-serif" font-weight="400" font-size="13" transform="matrix(0.931111 0 0 0.931035 514.766 172)">Node</text><text font-family="Arial,Arial_MSFontService,sans-serif" font-weight="400" font-size="13" transform="matrix(0.931111 0 0 0.931035 542.699 172)">-</text><text font-family="Arial,Arial_MSFontService,sans-serif" font-weight="400" font-size="13" transform="matrix(0.931111 0 0 0.931035 546.423 172)">Server</text><path d="M329.121 74.4828 329.121 519.517" stroke="#000000" stroke-width="0.931034" stroke-miterlimit="10" stroke-dasharray="2.7931 2.7931" fill="none" transform="matrix(1.00008 0 0 1 222.862 117.862)"/><path d="M527.897 43.7586 628.355 43.7586 628.355 80.069 527.897 80.069Z" fill="#C0C0C0" fill-opacity="0.2" transform="matrix(1.00008 0 0 1 222.862 117.862)"/><path d="M521.379 37.2414 621.838 37.2414 621.838 73.5517 521.379 73.5517Z" fill="#FFFFFF" transform="matrix(1.00008 0 0 1 222.862 117.862)"/><path d="M521.379 37.2414 621.838 37.2414 621.838 73.5517 521.379 73.5517 521.379 37.2414Z" stroke="#000000" stroke-width="0.931034" stroke-miterlimit="10" fill="none" transform="matrix(1.00008 0 0 1 222.862 117.862)"/><path d="" stroke="#000000" stroke-width="0.931034" stroke-miterlimit="10" fill="none" transform="matrix(1.00008 0 0 1 222.862 117.862)"/><text font-family="Arial,Arial_MSFontService,sans-serif" font-weight="400" font-size="13" transform="matrix(0.931111 0 0 0.931035 753.13 172)">Python</text><text font-family="Arial,Arial_MSFontService,sans-serif" font-weight="400" font-size="13" transform="matrix(0.931111 0 0 0.931035 791.306 172)">-</text><text font-family="Arial,Arial_MSFontService,sans-serif" font-weight="400" font-size="13" transform="matrix(0.931111 0 0 0.931035 795.03 172)">Server</text><path d="M572.121 74.4828 572.121 521.379" stroke="#000000" stroke-width="0.931034" stroke-miterlimit="10" stroke-dasharray="2.7931 2.7931" fill="none" transform="matrix(1.00008 0 0 1 222.862 117.862)"/><path d="M714.103 43.7586 813.817 43.7586 813.817 80.069 714.103 80.069Z" fill="#C0C0C0" fill-opacity="0.2" transform="matrix(1.00008 0 0 1 222.862 117.862)"/><path d="M707.586 37.2414 807.3 37.2414 807.3 73.5517 707.586 73.5517Z" fill="#FFFFFF" transform="matrix(1.00008 0 0 1 222.862 117.862)"/><path d="M707.586 37.2414 807.3 37.2414 807.3 73.5517 707.586 73.5517 707.586 37.2414Z" stroke="#000000" stroke-width="0.931034" stroke-miterlimit="10" fill="none" transform="matrix(1.00008 0 0 1 222.862 117.862)"/><path d="" stroke="#000000" stroke-width="0.931034" stroke-miterlimit="10" fill="none" transform="matrix(1.00008 0 0 1 222.862 117.862)"/><text font-family="Arial,Arial_MSFontService,sans-serif" font-weight="400" font-size="13" transform="matrix(0.931111 0 0 0.931035 939.352 172)">freesound API</text><path d="M758.328 74.4828 758.328 521.379" stroke="#000000" stroke-width="0.931034" stroke-miterlimit="10" stroke-dasharray="2.7931 2.7931" fill="none" transform="matrix(1.00008 0 0 1 222.862 117.862)"/><path d="M63.3103 90.3103 322.138 90.3103" stroke="#000000" stroke-width="0.931034" stroke-miterlimit="10" fill="none" transform="matrix(1.00008 0 0 1 222.862 117.862)"/><path d="M312.641 94.2207 322.138 90.3103 312.641 86.4" transform="matrix(1.00008 0 0 1 222.862 117.862)"/><path d="M312.641 94.2207 322.138 90.3103 312.641 86.4 312.641 94.2207" stroke="#000000" stroke-width="0.931034" stroke-miterlimit="10" fill="none" transform="matrix(1.00008 0 0 1 222.862 117.862)"/><path d="" stroke="#000000" stroke-width="0.931034" stroke-miterlimit="10" fill="none" transform="matrix(1.00008 0 0 1 222.862 117.862)"/><text font-family="Arial,Arial_MSFontService,sans-serif" font-weight="400" font-size="13" transform="matrix(0.931111 0 0 0.931035 373.061 203)">1 </text><text font-family="Arial,Arial_MSFontService,sans-serif" font-weight="400" font-size="13" transform="matrix(0.931111 0 0 0.931035 383.303 203)">: </text><text font-family="Arial,Arial_MSFontService,sans-serif" font-weight="400" font-size="13" transform="matrix(0.931111 0 0 0.931035 390.752 203)">request GET</text><path d="M322.138 90.3103 334.241 90.3103 334.241 134.069 322.138 134.069Z" fill="#FFFFFF" transform="matrix(1.00008 0 0 1 222.862 117.862)"/><path d="M322.138 90.3103 334.241 90.3103 334.241 134.069 322.138 134.069 322.138 90.3103Z" stroke="#000000" stroke-width="0.931034" stroke-miterlimit="10" fill="none" transform="matrix(1.00008 0 0 1 222.862 117.862)"/><path d="M322.138 126.621 63.3103 126.621" stroke="#000000" stroke-width="0.931034" stroke-miterlimit="10" stroke-dasharray="2.7931 2.7931" fill="none" transform="matrix(1.00008 0 0 1 222.862 117.862)"/><path d="M72.8069 122.71 63.3103 126.621 72.8069 130.531" stroke="#000000" stroke-width="0.931034" stroke-miterlimit="10" fill="none" transform="matrix(1.00008 0 0 1 222.862 117.862)"/><path d="" stroke="#000000" stroke-width="0.931034" stroke-miterlimit="10" fill="none" transform="matrix(1.00008 0 0 1 222.862 117.862)"/><text font-family="Arial,Arial_MSFontService,sans-serif" font-weight="400" font-size="13" transform="matrix(0.931111 0 0 0.931035 357.236 258)">2 </text><text font-family="Arial,Arial_MSFontService,sans-serif" font-weight="400" font-size="13" transform="matrix(0.931111 0 0 0.931035 367.478 258)">: </text><text font-family="Arial,Arial_MSFontService,sans-serif" font-weight="400" font-size="13" transform="matrix(0.931111 0 0 0.931035 374.927 258)">response</text><text font-family="Arial,Arial_MSFontService,sans-serif" font-weight="400" font-size="13" transform="matrix(0.931111 0 0 0.931035 424.276 258)">(</text><text font-family="Arial,Arial_MSFontService,sans-serif" font-weight="400" font-size="13" transform="matrix(0.931111 0 0 0.931035 428 258)">website</text><text font-family="Arial,Arial_MSFontService,sans-serif" font-weight="400" font-size="13" transform="matrix(0.931111 0 0 0.931035 468.969 258)">)</text><path d="M63.3103 178.759 322.138 178.759" stroke="#000000" stroke-width="0.931034" stroke-miterlimit="10" fill="none" transform="matrix(1.00008 0 0 1 222.862 117.862)"/><path d="M312.641 182.669 322.138 178.759 312.641 174.848" transform="matrix(1.00008 0 0 1 222.862 117.862)"/><path d="M312.641 182.669 322.138 178.759 312.641 174.848 312.641 182.669" stroke="#000000" stroke-width="0.931034" stroke-miterlimit="10" fill="none" transform="matrix(1.00008 0 0 1 222.862 117.862)"/><path d="" stroke="#000000" stroke-width="0.931034" stroke-miterlimit="10" fill="none" transform="matrix(1.00008 0 0 1 222.862 117.862)"/><text font-family="Arial,Arial_MSFontService,sans-serif" font-weight="400" font-size="13" transform="matrix(0.931111 0 0 0.931035 330.978 292)">3 </text><text font-family="Arial,Arial_MSFontService,sans-serif" font-weight="400" font-size="13" transform="matrix(0.931111 0 0 0.931035 341.22 292)">: </text><text font-family="Arial,Arial_MSFontService,sans-serif" font-weight="400" font-size="13" transform="matrix(0.931111 0 0 0.931035 348.669 292)">request POST</text><text font-family="Arial,Arial_MSFontService,sans-serif" font-weight="400" font-size="13" transform="matrix(0.931111 0 0 0.931035 425.02 292)">(</text><text font-family="Arial,Arial_MSFontService,sans-serif" font-weight="400" font-size="13" transform="matrix(0.931111 0 0 0.931035 428.745 292)">animal video</text><text font-family="Arial,Arial_MSFontService,sans-serif" font-weight="400" font-size="13" transform="matrix(0.931111 0 0 0.931035 494.854 292)">)</text><path d="M322.138 178.759 334.241 178.759 334.241 484.138 322.138 484.138Z" fill="#FFFFFF" transform="matrix(1.00008 0 0 1 222.862 117.862)"/><path d="M322.138 178.759 334.241 178.759 334.241 484.138 322.138 484.138 322.138 178.759Z" stroke="#000000" stroke-width="0.931034" stroke-miterlimit="10" fill="none" transform="matrix(1.00008 0 0 1 222.862 117.862)"/><path d="M334.241 223.448 565.138 223.448" stroke="#000000" stroke-width="0.931034" stroke-miterlimit="10" fill="none" transform="matrix(1.00008 0 0 1 222.862 117.862)"/><path d="M555.641 227.359 565.138 223.448 555.641 219.538" transform="matrix(1.00008 0 0 1 222.862 117.862)"/><path d="M555.641 227.359 565.138 223.448 555.641 219.538 555.641 227.359" stroke="#000000" stroke-width="0.931034" stroke-miterlimit="10" fill="none" transform="matrix(1.00008 0 0 1 222.862 117.862)"/><path d="" stroke="#000000" stroke-width="0.931034" stroke-miterlimit="10" fill="none" transform="matrix(1.00008 0 0 1 222.862 117.862)"/><text font-family="Arial,Arial_MSFontService,sans-serif" font-weight="400" font-size="13" transform="matrix(0.931111 0 0 0.931035 586.461 336)">4 </text><text font-family="Arial,Arial_MSFontService,sans-serif" font-weight="400" font-size="13" transform="matrix(0.931111 0 0 0.931035 596.703 336)">: </text><text font-family="Arial,Arial_MSFontService,sans-serif" font-weight="400" font-size="13" transform="matrix(0.931111 0 0 0.931035 604.152 336)">request POST </text><text font-family="Arial,Arial_MSFontService,sans-serif" font-weight="400" font-size="13" transform="matrix(0.931111 0 0 0.931035 684.228 336)">(</text><text font-family="Arial,Arial_MSFontService,sans-serif" font-weight="400" font-size="13" transform="matrix(0.931111 0 0 0.931035 687.952 336)">animal video</text><text font-family="Arial,Arial_MSFontService,sans-serif" font-weight="400" font-size="13" transform="matrix(0.931111 0 0 0.931035 754.061 336)">)</text><path d="M565.138 223.448 577.241 223.448 577.241 275.586 565.138 275.586Z" fill="#FFFFFF" transform="matrix(1.00008 0 0 1 222.862 117.862)"/><path d="M565.138 223.448 577.241 223.448 577.241 275.586 565.138 275.586 565.138 223.448Z" stroke="#000000" stroke-width="0.931034" stroke-miterlimit="10" fill="none" transform="matrix(1.00008 0 0 1 222.862 117.862)"/><path d="M565.138 268.138 334.241 268.138" stroke="#000000" stroke-width="0.931034" stroke-miterlimit="10" stroke-dasharray="2.7931 2.7931" fill="none" transform="matrix(1.00008 0 0 1 222.862 117.862)"/><path d="M343.738 264.228 334.241 268.138 343.738 272.048" stroke="#000000" stroke-width="0.931034" stroke-miterlimit="10" fill="none" transform="matrix(1.00008 0 0 1 222.862 117.862)"/><path d="" stroke="#000000" stroke-width="0.931034" stroke-miterlimit="10" fill="none" transform="matrix(1.00008 0 0 1 222.862 117.862)"/><text font-family="Arial,Arial_MSFontService,sans-serif" font-weight="400" font-size="13" transform="matrix(0.931111 0 0 0.931035 557.676 400)">5 </text><text font-family="Arial,Arial_MSFontService,sans-serif" font-weight="400" font-size="13" transform="matrix(0.931111 0 0 0.931035 567.918 400)">: </text><text font-family="Arial,Arial_MSFontService,sans-serif" font-weight="400" font-size="13" transform="matrix(0.931111 0 0 0.931035 575.367 400)">response </text><text font-family="Arial,Arial_MSFontService,sans-serif" font-weight="400" font-size="13" transform="matrix(0.931111 0 0 0.931035 628.44 400)">(</text><text font-family="Arial,Arial_MSFontService,sans-serif" font-weight="400" font-size="13" transform="matrix(0.931111 0 0 0.931035 632.165 400)">array with identified animals</text><text font-family="Arial,Arial_MSFontService,sans-serif" font-weight="400" font-size="13" transform="matrix(0.931111 0 0 0.931035 781.142 400)">)</text><path d="M334.241 335.172 751.345 335.172" stroke="#000000" stroke-width="0.931034" stroke-miterlimit="10" fill="none" transform="matrix(1.00008 0 0 1 222.862 117.862)"/><path d="M741.848 339.083 751.345 335.172 741.848 331.262" transform="matrix(1.00008 0 0 1 222.862 117.862)"/><path d="M741.848 339.083 751.345 335.172 741.848 331.262 741.848 339.083" stroke="#000000" stroke-width="0.931034" stroke-miterlimit="10" fill="none" transform="matrix(1.00008 0 0 1 222.862 117.862)"/><path d="" stroke="#000000" stroke-width="0.931034" stroke-miterlimit="10" fill="none" transform="matrix(1.00008 0 0 1 222.862 117.862)"/><text font-family="Arial,Arial_MSFontService,sans-serif" font-weight="400" font-size="13" transform="matrix(0.931111 0 0 0.931035 654.628 448)">6 </text><text font-family="Arial,Arial_MSFontService,sans-serif" font-weight="400" font-size="13" transform="matrix(0.931111 0 0 0.931035 664.87 448)">: </text><text font-family="Arial,Arial_MSFontService,sans-serif" font-weight="400" font-size="13" transform="matrix(0.931111 0 0 0.931035 672.319 448)">call</text><text font-family="Arial,Arial_MSFontService,sans-serif" font-weight="400" font-size="13" transform="matrix(0.931111 0 0 0.931035 690.941 448)">(</text><text font-family="Arial,Arial_MSFontService,sans-serif" font-weight="400" font-size="13" transform="matrix(0.931111 0 0 0.931035 694.666 448)">request result for animal keyword</text><text font-family="Arial,Arial_MSFontService,sans-serif" font-weight="400" font-size="13" transform="matrix(0.931111 0 0 0.931035 872.508 448)">)</text><path d="M751.345 335.172 763.448 335.172 763.448 364.966 751.345 364.966Z" fill="#FFFFFF" transform="matrix(1.00008 0 0 1 222.862 117.862)"/><path d="M751.345 335.172 763.448 335.172 763.448 364.966 751.345 364.966 751.345 335.172Z" stroke="#000000" stroke-width="0.931034" stroke-miterlimit="10" fill="none" transform="matrix(1.00008 0 0 1 222.862 117.862)"/><path d="M751.345 357.517 334.241 357.517" stroke="#000000" stroke-width="0.931034" stroke-miterlimit="10" stroke-dasharray="2.7931 2.7931" fill="none" transform="matrix(1.00008 0 0 1 222.862 117.862)"/><path d="M343.738 353.607 334.241 357.517 343.738 361.428" stroke="#000000" stroke-width="0.931034" stroke-miterlimit="10" fill="none" transform="matrix(1.00008 0 0 1 222.862 117.862)"/><path d="" stroke="#000000" stroke-width="0.931034" stroke-miterlimit="10" fill="none" transform="matrix(1.00008 0 0 1 222.862 117.862)"/><text font-family="Arial,Arial_MSFontService,sans-serif" font-weight="400" font-size="13" transform="matrix(0.931111 0 0 0.931035 650.708 489)">7 </text><text font-family="Arial,Arial_MSFontService,sans-serif" font-weight="400" font-size="13" transform="matrix(0.931111 0 0 0.931035 660.95 489)">: </text><text font-family="Arial,Arial_MSFontService,sans-serif" font-weight="400" font-size="13" transform="matrix(0.931111 0 0 0.931035 668.399 489)">response</text><text font-family="Arial,Arial_MSFontService,sans-serif" font-weight="400" font-size="13" transform="matrix(0.931111 0 0 0.931035 717.748 489)">(</text><text font-family="Arial,Arial_MSFontService,sans-serif" font-weight="400" font-size="13" transform="matrix(0.931111 0 0 0.931035 721.472 489)">id of best rated search result</text><text font-family="Arial,Arial_MSFontService,sans-serif" font-weight="400" font-size="13" transform="matrix(0.931111 0 0 0.931035 875.106 489)">)</text><path d="M334.241 402.207 751.345 402.207" stroke="#000000" stroke-width="0.931034" stroke-miterlimit="10" fill="none" transform="matrix(1.00008 0 0 1 222.862 117.862)"/><path d="M741.848 406.117 751.345 402.207 741.848 398.297" transform="matrix(1.00008 0 0 1 222.862 117.862)"/><path d="M741.848 406.117 751.345 402.207 741.848 398.297 741.848 406.117" stroke="#000000" stroke-width="0.931034" stroke-miterlimit="10" fill="none" transform="matrix(1.00008 0 0 1 222.862 117.862)"/><path d="" stroke="#000000" stroke-width="0.931034" stroke-miterlimit="10" fill="none" transform="matrix(1.00008 0 0 1 222.862 117.862)"/><text font-family="Arial,Arial_MSFontService,sans-serif" font-weight="400" font-size="13" transform="matrix(0.931111 0 0 0.931035 672.123 515)">8 </text><text font-family="Arial,Arial_MSFontService,sans-serif" font-weight="400" font-size="13" transform="matrix(0.931111 0 0 0.931035 682.366 515)">: </text><text font-family="Arial,Arial_MSFontService,sans-serif" font-weight="400" font-size="13" transform="matrix(0.931111 0 0 0.931035 689.814 515)">call</text><text font-family="Arial,Arial_MSFontService,sans-serif" font-weight="400" font-size="13" transform="matrix(0.931111 0 0 0.931035 708.437 515)">(</text><text font-family="Arial,Arial_MSFontService,sans-serif" font-weight="400" font-size="13" transform="matrix(0.931111 0 0 0.931035 712.161 515)">request audio source for id</text><text font-family="Arial,Arial_MSFontService,sans-serif" font-weight="400" font-size="13" transform="matrix(0.931111 0 0 0.931035 854.621 515)">)</text><path d="M751.345 402.207 763.448 402.207 763.448 428.276 751.345 428.276Z" fill="#FFFFFF" transform="matrix(1.00008 0 0 1 222.862 117.862)"/><path d="M751.345 402.207 763.448 402.207 763.448 428.276 751.345 428.276 751.345 402.207Z" stroke="#000000" stroke-width="0.931034" stroke-miterlimit="10" fill="none" transform="matrix(1.00008 0 0 1 222.862 117.862)"/><path d="M751.345 424.552 334.241 424.552" stroke="#000000" stroke-width="0.931034" stroke-miterlimit="10" stroke-dasharray="2.7931 2.7931" fill="none" transform="matrix(1.00008 0 0 1 222.862 117.862)"/><path d="M343.738 420.641 334.241 424.552 343.738 428.462" stroke="#000000" stroke-width="0.931034" stroke-miterlimit="10" fill="none" transform="matrix(1.00008 0 0 1 222.862 117.862)"/><path d="" stroke="#000000" stroke-width="0.931034" stroke-miterlimit="10" fill="none" transform="matrix(1.00008 0 0 1 222.862 117.862)"/><text font-family="Arial,Arial_MSFontService,sans-serif" font-weight="400" font-size="13" transform="matrix(0.931111 0 0 0.931035 673.986 556)">9 </text><text font-family="Arial,Arial_MSFontService,sans-serif" font-weight="400" font-size="13" transform="matrix(0.931111 0 0 0.931035 684.228 556)">: </text><text font-family="Arial,Arial_MSFontService,sans-serif" font-weight="400" font-size="13" transform="matrix(0.931111 0 0 0.931035 691.677 556)">response </text><text font-family="Arial,Arial_MSFontService,sans-serif" font-weight="400" font-size="13" transform="matrix(0.931111 0 0 0.931035 744.75 556)">(</text><text font-family="Arial,Arial_MSFontService,sans-serif" font-weight="400" font-size="13" transform="matrix(0.931111 0 0 0.931035 748.474 556)">link to audio source</text><text font-family="Arial,Arial_MSFontService,sans-serif" font-weight="400" font-size="13" transform="matrix(0.931111 0 0 0.931035 853.69 556)">)</text><path d="M322.138 476.69 63.3103 476.69" stroke="#000000" stroke-width="0.931034" stroke-miterlimit="10" stroke-dasharray="2.7931 2.7931" fill="none" transform="matrix(1.00008 0 0 1 222.862 117.862)"/><path d="M72.8069 472.779 63.3103 476.69 72.8069 480.6" stroke="#000000" stroke-width="0.931034" stroke-miterlimit="10" fill="none" transform="matrix(1.00008 0 0 1 222.862 117.862)"/><path d="" stroke="#000000" stroke-width="0.931034" stroke-miterlimit="10" fill="none" transform="matrix(1.00008 0 0 1 222.862 117.862)"/><text font-family="Arial,Arial_MSFontService,sans-serif" font-weight="400" font-size="13" transform="matrix(0.931111 0 0 0.931035 275.489 611)">10 </text><text font-family="Arial,Arial_MSFontService,sans-serif" font-weight="400" font-size="13" transform="matrix(0.931111 0 0 0.931035 292.249 611)">: </text><text font-family="Arial,Arial_MSFontService,sans-serif" font-weight="400" font-size="13" transform="matrix(0.931111 0 0 0.931035 299.698 611)">response </text><text font-family="Arial,Arial_MSFontService,sans-serif" font-weight="400" font-size="13" transform="matrix(0.931111 0 0 0.931035 352.771 611)">(</text><text font-family="Arial,Arial_MSFontService,sans-serif" font-weight="400" font-size="13" transform="matrix(0.931111 0 0 0.931035 356.495 611)">updated website with playable audio</text><text font-family="Arial,Arial_MSFontService,sans-serif" font-weight="400" font-size="13" transform="matrix(0.931111 0 0 0.931035 403.016 623)">src</text><text font-family="Arial,Arial_MSFontService,sans-serif" font-weight="400" font-size="13" transform="matrix(0.931111 0 0 0.931035 419.776 623)">)</text><path d="M283.034 297.931 796.966 297.931 796.966 454.345 283.034 454.345 283.034 297.931" stroke="#000000" stroke-width="0.931034" stroke-miterlimit="10" fill="none" transform="matrix(1.00008 0 0 1 222.862 117.862)"/><path d="M283.034 297.931 283.034 318.414 417.662 318.414 427.903 308.172 427.903 297.931 283.034 297.931" fill="#FFFFFF" transform="matrix(1.00008 0 0 1 222.862 117.862)"/><path d="M283.034 297.931 283.034 318.414 417.662 318.414 427.903 308.172 427.903 297.931 283.034 297.931 283.034 297.931" stroke="#000000" stroke-width="0.931034" stroke-miterlimit="10" fill="none" transform="matrix(1.00008 0 0 1 222.862 117.862)"/><path d="" stroke="#000000" stroke-width="0.931034" stroke-miterlimit="10" fill="none" transform="matrix(1.00008 0 0 1 222.862 117.862)"/><text font-family="Arial,Arial_MSFontService,sans-serif" font-weight="400" font-size="13" transform="matrix(0.931111 0 0 0.931035 539.047 430)">for animal in array</text><text font-family="Arial,Arial_MSFontService,sans-serif" font-weight="400" font-size="13" transform="matrix(0.931111 0 0 0.931035 509.246 430)">loop</text></g></svg>