<svg id="Ebene_1" data-name="Ebene 1" xmlns="http://www.w3.org/2000/svg" viewBox="0 0 21.67 21.7"><defs><style>.cls-1{fill:#010101;}</style></defs><path class="cls-1" d="M3.08,18.23V5.37L14,3.1V19.93Z" transform="translate(-1.17 -1.15)"/><path class="cls-1" d="M2,5V18.68l13.05,2.51V1.61l2.26-.46v.56q0,10,0,20c0,.93-.39,1.26-1.29,1.07l-14.53-3a2.4,2.4,0,0,1-.32-.13V5Z" transform="translate(-1.17 -1.15)"/><path class="cls-1" d="M17.93,17.24V15.92c.57.12,1.1.2,1.62.34,1.14.29,1.37-.25,1.38-1.13,0-2.35,0-4.7-.06-7,0-1-.39-1.28-1.34-1.09-.53.1-1,.3-1.59.46V6a14.23,14.23,0,0,1,3.44-.65,1,1,0,0,1,1.17,1,38.83,38.83,0,0,1,.19,7.15c-.08,1-.21,2.07-.35,3.1A1.35,1.35,0,0,1,20.82,18a4,4,0,0,1-.69-.07,4.63,4.63,0,0,1-.61-.17Z" transform="translate(-1.17 -1.15)"/></svg>