<?xml version="1.0" encoding="utf-8"?>
<!-- Generator: Adobe Illustrator 26.0.1, SVG Export Plug-In . SVG Version: 6.00 Build 0)  -->
<svg version="1.1" id="Ebene_1" xmlns="http://www.w3.org/2000/svg" xmlns:xlink="http://www.w3.org/1999/xlink" x="0px" y="0px"
	 viewBox="0 0 24 24" style="enable-background:new 0 0 24 24;" xml:space="preserve">
<path d="M12,1.6L0,22.4h24L12,1.6z M9.3,19.9V12l0.2-1.1l6.9,4l0.8,0.8l-6.9,4L9.3,19.9z M9.6,10.4L10,8.9l4.9,4.5L9.6,10.4z
	 M8.8,20l-1.5,0.5L8.8,14V20z M17.6,15.9l1.1,1l-6.4,2L17.6,15.9z M10.2,8.4l0.5-1.2l5.6,6.8L10.2,8.4z M6.8,20.6l-1.3,0.2l3.1-8.2
	L6.8,20.6z M19.1,17.4l0.8,1l-8.7,1.4L19.1,17.4z M10.8,6.3l0.5-1l5.9,8.8L10.8,6.3z M4.6,21.1l-1.1,0.1l4.7-9.6L4.6,21.1z M20.5,19
	l0.6,0.9l-10.6,0.7L20.5,19z M18,13.8l-6.4-9.6L12,3.4L18,13.8z M7.6,11.1L2.5,21.5H1.6L7.6,11.1z M10.5,21.5L22,20.7l0.4,0.8H10.5z
	"/>
</svg>
